<svg xmlns="http://www.w3.org/2000/svg" viewBox="0 0 812.78 232.52"><defs><style>.cls-1{fill:#191919;}</style></defs><title>digital-black-horizontal</title><g id="Layer_2" data-name="Layer 2"><g id="Layer_1-2" data-name="Layer 1"><polygon class="cls-1" points="152.91 119.94 152.89 147.39 135.67 147.39 135.67 85.08 148.52 85.08 169.2 120.16 189.8 85.08 202.74 85.08 202.74 147.39 185.43 147.39 185.43 120.08 169.2 147.64 152.91 119.94"/><path class="cls-1" d="M276.91,147.39V85.08h25.34c19.43,0,33.53,13,33.53,31,0,18.16-14.1,31.33-33.53,31.33Zm17.31-15.81h8c9.1,0,16-6.67,16-15.52,0-8.65-6.86-15.17-16-15.17h-8Z"/><path class="cls-1" d="M369.53,148.71c-17.91,0-29-11.67-29-30.45V85.08h17.4v33.44c0,8.54,4.46,13.85,11.65,13.85s11.73-5.31,11.73-13.85V85.08h17.4v33.18C398.67,137,387.5,148.71,369.53,148.71Z"/><polygon class="cls-1" points="406.08 147.39 406.08 85.08 423.39 85.08 423.39 131.84 452.98 131.84 452.98 147.39 406.08 147.39"/><path class="cls-1" d="M47.29,124.18a16.84,16.84,0,1,1,.05-15.55H63.84a32.38,32.38,0,1,0,0,15.55Z"/><path class="cls-1" d="M98.58,84A32.39,32.39,0,1,0,131,116.36,32.39,32.39,0,0,0,98.58,84Zm0,49.22a16.84,16.84,0,1,1,16.84-16.84A16.84,16.84,0,0,1,98.58,133.19Z"/><path class="cls-1" d="M239.82,84a32.39,32.39,0,1,0,32.39,32.39A32.39,32.39,0,0,0,239.82,84Zm0,49.22a16.84,16.84,0,1,1,16.84-16.84A16.84,16.84,0,0,1,239.82,133.19Z"/><polygon class="cls-1" points="505.66 100.45 505.66 85.08 457.96 85.08 457.96 147.39 505.66 147.39 505.66 132.02 475.27 132.02 475.27 123.49 498.4 123.49 498.4 108.97 475.27 108.97 475.27 100.45 505.66 100.45"/><path class="cls-1" d="M749.56,129.65q-12.9,7.63-26.87,14.14A289.19,289.19,0,0,1,675.52,161q5.55,2.2,11.29,4.85c33.73,15.7,60.66,38.1,80.19,66.7l.15-.08,17.27-11.8a134.55,134.55,0,0,0,28.37-31.3A250.37,250.37,0,0,0,749.56,129.65Z"/><path class="cls-1" d="M713.13,123.23c40.85-19,74.32-45.92,99.65-80.06a134.56,134.56,0,0,0-28.37-31.3L767.14.08,767,0c-19.53,28.59-46.45,51-80.18,66.69-32.41,15.08-60.9,18.39-77.25,18.39H570.47a134.63,134.63,0,0,0,0,62.36h39.09C628.81,147.44,667.87,144.29,713.13,123.23Z"/></g></g></svg>