<svg xmlns="http://www.w3.org/2000/svg" viewBox="0 0 245.97 310.98"><defs><style>.cls-1{fill:#fff;}</style></defs><title>digital-white-vertical</title><g id="Layer_2" data-name="Layer 2"><g id="Layer_1-2" data-name="Layer 1"><polygon class="cls-1" points="74.08 297.03 74.07 310.33 65.72 310.33 65.72 280.14 71.95 280.14 81.97 297.14 91.95 280.14 98.22 280.14 98.22 310.33 89.83 310.33 89.83 297.1 81.97 310.45 74.08 297.03"/><path class="cls-1" d="M134.15,310.33V280.14h12.28c9.41,0,16.25,6.31,16.25,15s-6.83,15.18-16.25,15.18Zm8.39-7.66h3.89a7.46,7.46,0,0,0,7.73-7.52,7.38,7.38,0,0,0-7.73-7.35h-3.89Z"/><path class="cls-1" d="M179,311c-8.68,0-14.07-5.65-14.07-14.75V280.14h8.43v16.2c0,4.14,2.16,6.71,5.64,6.71s5.68-2.57,5.68-6.71v-16.2h8.43v16.07C193.14,305.31,187.73,311,179,311Z"/><polygon class="cls-1" points="196.73 310.33 196.73 280.14 205.12 280.14 205.12 302.8 219.45 302.8 219.45 310.33 196.73 310.33"/><path class="cls-1" d="M22.91,299.08a8.16,8.16,0,1,1,0-7.53h8a15.69,15.69,0,1,0,0,7.53Z"/><path class="cls-1" d="M47.76,279.6a15.69,15.69,0,1,0,15.69,15.69A15.69,15.69,0,0,0,47.76,279.6Zm0,23.85a8.16,8.16,0,1,1,8.16-8.16A8.16,8.16,0,0,1,47.76,303.45Z"/><path class="cls-1" d="M116.19,279.6a15.69,15.69,0,1,0,15.69,15.69A15.69,15.69,0,0,0,116.19,279.6Zm0,23.85a8.16,8.16,0,1,1,8.16-8.16A8.16,8.16,0,0,1,116.19,303.45Z"/><polygon class="cls-1" points="244.97 287.59 244.97 280.14 221.86 280.14 221.86 310.33 244.97 310.33 244.97 302.88 230.25 302.88 230.25 298.75 241.45 298.75 241.45 291.72 230.25 291.72 230.25 287.59 244.97 287.59"/><path class="cls-1" d="M182.75,129.65q-12.9,7.63-26.87,14.14A289.17,289.17,0,0,1,108.7,161q5.55,2.2,11.29,4.85c33.73,15.7,60.66,38.1,80.19,66.7l.15-.08,17.27-11.8A134.55,134.55,0,0,0,246,189.35,250.37,250.37,0,0,0,182.75,129.65Z"/><path class="cls-1" d="M146.31,123.23c40.85-19,74.32-45.92,99.65-80.06a134.56,134.56,0,0,0-28.37-31.3L200.32.08,200.19,0C180.66,28.59,153.74,51,120,66.69,87.59,81.77,59.1,85.08,42.75,85.08H3.66a134.65,134.65,0,0,0,0,62.36H42.75C62,147.44,101.05,144.29,146.31,123.23Z"/></g></g></svg>