<svg xmlns="http://www.w3.org/2000/svg" viewBox="0 0 245.96 232.52"><defs><style>.cls-1{fill:#191919;}</style></defs><title>digital-black-icon</title><g id="Layer_2" data-name="Layer 2"><g id="Layer_1-2" data-name="Layer 1"><path class="cls-1" d="M182.75,129.65q-12.9,7.63-26.87,14.14A289.17,289.17,0,0,1,108.7,161q5.55,2.2,11.29,4.85c33.73,15.7,60.66,38.1,80.19,66.7l.15-.08,17.27-11.8A134.55,134.55,0,0,0,246,189.35,250.37,250.37,0,0,0,182.75,129.65Z"/><path class="cls-1" d="M146.31,123.23c40.85-19,74.32-45.92,99.65-80.06a134.56,134.56,0,0,0-28.37-31.3L200.32.08,200.19,0C180.66,28.59,153.73,51,120,66.69,87.59,81.77,59.1,85.08,42.75,85.08H3.66a134.65,134.65,0,0,0,0,62.36H42.75C62,147.44,101.05,144.29,146.31,123.23Z"/></g></g></svg>