<?xml version="1.0" encoding="utf-8"?>
<!-- Generator: Adobe Illustrator 21.1.0, SVG Export Plug-In . SVG Version: 6.00 Build 0)  -->
<svg version="1.1" id="Layer_1" xmlns="http://www.w3.org/2000/svg" xmlns:xlink="http://www.w3.org/1999/xlink" x="0px" y="0px"
	 viewBox="0 0 500 475" enable-background="new 0 0 500 475" xml:space="preserve">
<g>
	<path fill="#191919" d="M499,175.3c0-17.4-10-32.4-22.4-42.3L250,0.9l-226.6,132C11,142.9,1,157.8,1,175.3v249
		C1,451.6,23.4,474,50.8,474h398.4c27.4,0,49.8-22.4,49.8-49.8V175.3z"/>
	<polygon fill="#44D62C" points="454.7,170.3 407.2,205.4 248,323.2 90.8,206.9 41.4,170.3 89.9,142.2 90.8,141.7 91.8,141.1 
		199.9,78.6 248,50.8 296.2,78.6 406.2,142.2 407.2,142.8 408.2,143.4 	"/>
	<polygon fill="#595959" points="407.2,31.7 407.2,205.4 248,323.2 90.8,206.9 90.8,31.7 	"/>
	<rect x="123.1" y="144" fill="#D9D9D9" width="253.9" height="31.2"/>
	<rect x="123.1" y="81.5" fill="#D9D9D9" width="253.9" height="31.2"/>
</g>
</svg>
