<?xml version="1.0" encoding="utf-8"?>
<!-- Generator: Adobe Illustrator 21.1.0, SVG Export Plug-In . SVG Version: 6.00 Build 0)  -->
<svg version="1.1" id="Layer_1" xmlns="http://www.w3.org/2000/svg" xmlns:xlink="http://www.w3.org/1999/xlink" x="0px" y="0px"
	 viewBox="0 0 492 492" enable-background="new 0 0 492 492" xml:space="preserve">
<path fill="#A6A6A6" enable-background="new    " d="M106.3,1c15,10.4,31.1,19.6,44.8,31.5c16.9,14.6,32.3,31.2,47.8,47.6
	c20,21.2,20.3,48.2,0.5,69.7c-12,13-25.2,24.8-37.4,36.8c11.8,41.1,93.5,123,142.8,143.5c10.9-11.1,22.1-22.4,33.3-33.7
	c24-23.9,51.2-24.6,75.5-1.3c20.9,20,41.5,40.1,61.1,61.4c7.4,8,11,19.5,16.5,29.4c0,4.8,0,9.6,0,14.4
	c-23.5,42.3-52.9,77.9-102.4,90.9c-8.3,0-16.6,0-24.9,0c-14.1-3.1-28.6-4.6-42.1-9.3C195.3,437.3,102.2,353.4,39.2,236.8
	C21.5,204,13.4,165.9,1,130.2c0-8.9,0-17.9,0-26.8C13.2,53.6,49.3,24.9,91,1C96,1,101.2,1,106.3,1z M376.8,467.6
	c13-5.9,27.7-9.9,38.8-18.4c14.5-11.1,26.4-25.7,39.3-39c11.4-11.7,11.4-23.6-0.1-35.2c-20.2-20.4-40.5-40.7-61-60.9
	c-11.4-11.2-23.3-11.5-34.8-0.1c-12.4,12.2-23.5,25.9-37.2,36.4c-6.6,5.1-19.9,8.4-26.5,5.2C225.1,320.8,172,268,137.1,198
	c-3.5-7.1,0-21.3,5.3-28.5c10.5-14.2,24.8-25.6,37.1-38.5c9.7-10.2,9.7-21.4-0.1-31.5c-21.1-21.6-41.7-43.5-64.3-63.5
	c-5.7-5.1-21.4-7.2-26.4-3.1C70,48.4,51.3,65,37.4,84.6c-16.9,23.6-9.4,51.4-1,76.5c37.2,111.1,110.3,193.7,208.6,255
	C284.9,441,326.8,461.4,376.8,467.6z"/>
</svg>
