<?xml version="1.0" encoding="utf-8"?>
<!-- Generator: Adobe Illustrator 21.1.0, SVG Export Plug-In . SVG Version: 6.00 Build 0)  -->
<svg version="1.1" id="Layer_1" xmlns="http://www.w3.org/2000/svg" xmlns:xlink="http://www.w3.org/1999/xlink" x="0px" y="0px"
	 viewBox="0 0 500 363" enable-background="new 0 0 500 363" xml:space="preserve">
<path fill="#44D62C" enable-background="new    " d="M13.9,1H489c5.5,0,10,4.5,10,10v340c0,5.5-4.5,10-10,10l-476,1
	c-6.7,0-12-5.4-12-12L1.9,13C2,6.4,7.3,1,13.9,1z M249.4,223.9C316.5,156.8,383.7,89.6,450.2,23c-133.2,0-267.7,0-401.7,0
	C115.8,90.3,183.1,157.6,249.4,223.9z M469.3,338.8C419.4,289,369.4,239,319,188.7c-19.1,19.2-38.2,39.5-58.8,58.1
	c-3.9,3.6-16.6,3.5-20.5-0.1c-20.6-18.6-39.6-38.9-58.5-57.9C130.7,239.2,80.7,289.2,31,338.9C176.7,338.8,323.3,338.8,469.3,338.8z
	 M24.3,33.7c0,92.1,0,184.4,0,276.1c46.1-46.1,92.3-92.3,138-138C116.7,126.2,70.5,79.9,24.3,33.7z M475.7,309.6
	c0-91.5,0-183.9,0-275.8c-46.2,46.2-92.4,92.4-137.9,137.9C383.5,217.4,429.7,263.6,475.7,309.6z"/>
</svg>
