<?xml version="1.0" encoding="utf-8"?>
<!-- Generator: Adobe Illustrator 21.1.0, SVG Export Plug-In . SVG Version: 6.00 Build 0)  -->
<svg version="1.1" id="Layer_1" xmlns="http://www.w3.org/2000/svg" xmlns:xlink="http://www.w3.org/1999/xlink" x="0px" y="0px"
	 viewBox="0 0 500 500" enable-background="new 0 0 500 500" xml:space="preserve">
<g>
	<path fill="#ffffff" d="M67.8,246.5l-12.5-3.9l9.1-9.4c18-18.5,40.7-31.4,65.9-37.4l17-4.1l-8,15.6c-8.3,16.3-15.8,33.7-22.1,51.5
		l-3.2,8.9l-8.3-4.6C92.6,255.8,79.8,250.2,67.8,246.5z"/>
	<path fill="#ffffff" d="M144.3,394.1c0,14.5-9.6,26.7-22.8,30.7l-46,13.9c-0.6,0.2-1.2,0.3-1.9,0.3c-3.5,0-6.4-2.9-6.4-6.4
		c0-0.7,0.1-1.3,0.3-1.9l13.9-46c4-13.2,16.2-22.8,30.7-22.8C129.9,362.1,144.3,376.4,144.3,394.1z"/>
	<path fill="#ffffff" d="M289.1,356.9l15.6-8l-4.1,17c-6,25.2-19,47.9-37.4,65.9l-9.4,9.1l-3.9-12.5c-3.8-12.1-9.4-24.8-16.7-38
		l-4.6-8.3l9-3.2C255.4,372.7,272.8,365.2,289.1,356.9z"/>
	<path fill="#ffffff" d="M429.3,66.2L429.3,66.2c-3.4-3.4-8-5.3-12.8-5.3h-0.2c-23.7,0.3-54.7,1.4-84.1,6.8
		c-30.4,5.7-55.7,15.3-77.4,29.4c-16.2,10.5-31.6,24.3-45.9,41c-13,15.1-25,32.7-35.8,52.2c-19.4,35-34.5,76-42.6,115.5
		c-1.2,6,0.6,12.1,4.9,16.4l37.8,37.8c3.4,3.4,8,5.3,12.8,5.3c1.2,0,2.4-0.1,3.6-0.4c39.4-8,80.5-23.2,115.5-42.6
		c19.5-10.8,37.1-22.9,52.2-35.8c16.7-14.3,30.5-29.7,41-45.9c14.1-21.7,23.7-47,29.4-77.4c5.5-29.5,6.5-60.5,6.8-84.1
		C434.7,74.4,432.8,69.7,429.3,66.2z M327.7,200.6c-17.7,0-32.1-14.4-32.1-32.1c0-17.7,14.4-32.1,32.1-32.1
		c17.7,0,32.1,14.4,32.1,32.1C359.8,186.3,345.5,200.6,327.7,200.6z"/>
</g>
</svg>
