<?xml version="1.0" encoding="utf-8"?>
<!-- Generator: Adobe Illustrator 21.1.0, SVG Export Plug-In . SVG Version: 6.00 Build 0)  -->
<svg version="1.1" id="Layer_1" xmlns="http://www.w3.org/2000/svg" xmlns:xlink="http://www.w3.org/1999/xlink" x="0px" y="0px"
	 viewBox="0 0 500 500" enable-background="new 0 0 500 500" xml:space="preserve">
<g>
	<polygon fill="#ffffff" points="118.4,103.4 41.9,260.2 1.2,240.4 77.6,83.6 	"/>
	<path fill="#ffffff" d="M428.8,256.7v3.2l-11,6.4c-7.8,4.6-14.9,10.4-20.8,17.3l-22.4,26.1l10.3,14.7c7,9.7,4.5,23.3-5.2,30.3
		c-8.3,5.7-19.7,4.7-26.9-1.9c4.4,8.7,2,19.7-6.2,25.4l-0.4,0.4c-8.3,5.7-19.7,4.3-26.4-3.2c2.6,9.2-1.4,20-11.3,24
		c-9,3.7-19.3,0.2-24.7-7.8l-0.6-0.9c3.1,7.7,0.4,17.3-6.5,22.3c-8.3,5.7-20.2,3.8-25.9-4.5l-3.3-4.6H247c-4.6,3.3-10,4.8-15.3,4.5
		c-0.9-0.1-1.8-0.1-2.7-0.1c-6.6-1.2-12.2-4.6-15.9-9.7c-2.5-3.3-3.6-6.9-4.3-10.9l-2.8,2.1c-5.1,3.7-11.4,5.6-18,5.2
		c-0.9,0-2.2-0.1-3.1-0.1c-7.4-1.3-13.9-5.2-18.4-11.2c-4.1-5.5-6-12.3-5.2-18.9c-1.7-0.1-4-0.2-6.2-0.4
		c-8.4-0.4-16.3-3.6-21.2-10.4c-3.7-5.1-5.2-10.4-5.3-16.7c-2.2,0.4-4.9,0.7-7.5,0.5c-0.9,0-2.2-0.1-3.1-0.1
		c-7.4-1.3-13.9-5.2-18.4-11.2c-8.2-12.4-5.5-30,7-39l4.6-3.8c-6-12.4-15.7-22.6-27.8-29.2l-7.8-4.3l57.8-118.5l20.9,9.6
		c10.3,4.7,21.9,5.8,32.8,2.9c14.5-3.9,35.8-6.3,63.1-0.2c1.3,0.5,4.8,1.5,9.1,3.1l86.6,1c5.7,0.1,11.4-1.5,16.4-4.4l8.6-5l6.3,13
		l-7.6,4.5c-6.2,3.7-13.2,5.6-20.4,5.6l-14.8,0.3l-46.3-0.7c14.3,7.4,27.1,16.5,31.1,25.2c0,0,3.3,33.4,8.9,50.6
		c2,6-0.6,12.6-6.2,15.4c-10.8,5.4-28.5,5-42.8-39.7c0,0-8.6-13.8-20.2-20.6L113.9,299.2c-6.5,4.5-7.9,13.8-3.3,19.8
		c4.5,6.5,13.8,7.9,19.8,3.3l7.4-5.4c0.5-0.4,1.4-0.8,1.9-1.7l77-52.3c2.7-1.6,5.2-1.5,7.8,0.3c2,1.4,3.1,3.6,3,6
		c-0.1,2.2-1.1,3.9-2.9,5.2l-71.9,49l-6.5,4.5c-5.2,5-6,13-1.9,19c4.1,5.5,15.6,6.6,23.4,1.7c1.4-1.2,2.3-2.5,4.1-3.3l64.7-46.8
		c1.5-1.7,3.2-2.5,5.4-2.4c3.8,0.1,6.9,3.3,6.8,7.1c0,2.4-1,4.2-2.5,5.5l-66.1,47.1c-6.5,4.5-7.9,13.8-3.3,19.8
		c2,3.2,5.5,5.2,9.5,5.8c3.9,0.7,7.6-0.5,10.8-2.5l55.4-40.2c1.3-0.7,2.5-1.1,4.1-1.1c3.9,0,7.3,3.4,7.1,7.4
		c-0.1,2.2-1.1,3.9-2.9,5.2l-34.7,26.1c-2.3,1.7-3.8,4.3-4.4,6.9c-0.6,2.6,0.1,5.7,1.8,7.6c1.7,2.3,4.3,3.8,6.9,4.4
		c2.6,0.6,5.7-0.1,7.6-1.8l3.2-2c-0.1-5.7,2.8-11.9,7.9-15.6c4.1-2.8,9.5-3.9,14.3-2.8l6.4-4.1c-0.5-6.7,2.5-14,8.5-18.2
		c6.5-4.5,14.5-4.5,21-1.1l2.3-1.7c-1.4-7.6,1.7-15.5,8.1-20l0.4-0.4c7.3-4.9,16.7-4.4,23.5,0.4h0.4l-0.4-0.9
		c-7.1-9.8-4.5-23.4,5.2-30.4c8.3-5.7,19.8-4.7,27,1.9l24.2-28c6.5-7.6,14.4-14,23.1-19l10-5.7L428.8,256.7z"/>
	<polyline fill="#ffffff" points="422.7,83.6 381.9,103.4 458.4,260.2 499.2,240.4 	"/>
</g>
</svg>
