<?xml version="1.0" encoding="utf-8"?>
<!-- Generator: Adobe Illustrator 21.1.0, SVG Export Plug-In . SVG Version: 6.00 Build 0)  -->
<svg version="1.1" id="Layer_1" xmlns="http://www.w3.org/2000/svg" xmlns:xlink="http://www.w3.org/1999/xlink" x="0px" y="0px"
	 viewBox="0 0 500 500" enable-background="new 0 0 500 500" xml:space="preserve">
<path fill="#44D62C" d="M1,450.4C1,316.8,1,183.2,1,49.6C7.9,23.6,24.1,7,50.6,1c133,0,265.8,0,398.8,0
	c26.7,6.3,43.3,22.9,49.6,49.6c0,133.3,0,266.5,0,399.8c-6.9,26.1-23.1,42.6-49.6,48.6c-40.6,0-81,0-121.6,0c0-62.6,0-125.3,0-188.5
	c27.8,0,55,0,82.1,0c0-27.7,0-54.9,0-82.6c-27.5,0-54.7,0-82,0c0-13.5-2.2-27,0.9-39.1c1.8-6.7,12.1-15.1,19.3-15.9
	c20.4-2.1,41.2-0.8,61.9-0.8c0-28,0-55.1,0-82.6c-19,0-37.4,0-55.8,0c-54.3,0-94.2,33.8-102,87.7c-2.4,16.5-1.9,33.5-2.8,50.9
	c-19.8,0-39.7,0-59.4,0c0,27.8,0,55,0,82.7c20.1,0,39.8,0,60.2,0c0,63.1,0,125.6,0,188.1c-66.8,0-133.5,0-200.4,0
	C23.9,492.3,7.7,476.1,1,450.4z"/>
</svg>
