<?xml version="1.0" encoding="utf-8"?>
<!-- Generator: Adobe Illustrator 21.1.0, SVG Export Plug-In . SVG Version: 6.00 Build 0)  -->
<svg version="1.1" id="Layer_1" xmlns="http://www.w3.org/2000/svg" xmlns:xlink="http://www.w3.org/1999/xlink" x="0px" y="0px"
	 viewBox="0 0 500 501" enable-background="new 0 0 500 501" xml:space="preserve">
<path fill="#44D62C" enable-background="new    " d="M2,450.5c0-133.3,0-266.7,0-400C8.9,24.5,25.1,8,51.5,2c132.7,0,265.3,0,398,0
	c26.7,6.3,43.2,22.8,49.5,49.5c0,133,0,266,0,399c-6.9,26-23.1,42.5-49.5,48.5c-133,0-266,0-399,0C24.8,492.3,8.7,476.2,2,450.5z
	 M213,212.9c0,50.9,0,101.3,0,151.9c15.5,0,30.7,0,46.4,0c0-28.6,0-57.1,0-85.5c0-14.4,5.4-25.6,19.6-30.6
	c21.3-7.4,39.1,7,39.2,31.4c0.1,28.2,0,56.5,0,84.7c16,0,31.3,0,46.7,0c0-32.6,2.3-65-1-96.9c-1.7-16.6-9.4-36.2-21.1-47.5
	c-24.3-23.5-55.9-17.5-83.7,11.5c0-6.5,0-12.5,0-18.8C243.7,212.9,228.5,212.9,213,212.9z M183,364.7c0-50.6,0-100.8,0-150.8
	c-15.6,0-30.9,0-46.1,0c0,50.5,0,100.5,0,150.8C152.3,364.7,167.5,364.7,183,364.7z M159.2,135.7c-14.8,1.1-24,8.5-24,23.8
	c0,14.8,8.3,23.6,23.4,23.8c15.1,0.2,24.3-8.3,24.5-23.3C183.2,145.4,174.7,136.7,159.2,135.7z M1,1"/>
</svg>
