<?xml version="1.0" encoding="utf-8"?>
<!-- Generator: Adobe Illustrator 21.1.0, SVG Export Plug-In . SVG Version: 6.00 Build 0)  -->
<svg version="1.1" id="Layer_1" xmlns="http://www.w3.org/2000/svg" xmlns:xlink="http://www.w3.org/1999/xlink" x="0px" y="0px"
	 viewBox="0 0 500 500" enable-background="new 0 0 500 500" xml:space="preserve">
<path fill="#44D62C" d="M49.6,499C23.9,492.3,7.7,476.1,1,450.4C1,316.8,1,183.2,1,49.6C7.9,23.6,24.1,7,50.6,1
	c133,0,265.8,0,398.8,0c26.7,6.3,43.3,22.9,49.6,49.6c0,133.3,0,266.5,0,399.8c-6.9,26.1-23.1,42.6-49.6,48.6H49.6z M400.6,164.2
	c-10.1,2.9-20.3,5.9-29.3,8.6c8-10.2,16.1-20.6,26.3-33.6c-16.1,6-28.5,10.7-40.3,15.1c-22.8-20.8-47.3-26.7-73.8-12.6
	c-26.6,14-35.6,37.8-31.4,67.4c-50.8-3.7-92-24.9-125.1-63.7c-14.5,32-8.4,58.7,20.2,82.9c-11.5-3.2-19.8-5.5-28.8-8.1
	c2.1,30.5,18.1,50,50.9,60.2c-12.3,0-20.6,0-29.6,0c10.4,26.1,28.9,39.8,61.3,42.9c-18.7,8.4-32.1,16.1-46.6,20.2
	c-14.5,4.1-30.1,4.5-43.6,6.2c117,74.5,272.5-16.1,262.2-153.6c10.1-11.2,19.2-21.2,28.2-31.2c0.1-0.3,0.2-0.7,0.5-1.5
	C401.2,163.8,400.9,164,400.6,164.2z"/>
</svg>
