<?xml version="1.0" encoding="utf-8"?>
<!-- Generator: Adobe Illustrator 21.1.0, SVG Export Plug-In . SVG Version: 6.00 Build 0)  -->
<svg version="1.1" id="Layer_1" xmlns="http://www.w3.org/2000/svg" xmlns:xlink="http://www.w3.org/1999/xlink" x="0px" y="0px"
	 viewBox="0 0 500 500" enable-background="new 0 0 500 500" xml:space="preserve">
<g>
	<path fill="#44D62C" d="M1,450.4C1,316.8,1,183.2,1,49.6C7.9,23.6,24.1,7,50.6,1c133,0,265.8,0,398.8,0
		c26.7,6.3,43.3,22.9,49.6,49.6c0,133.3,0,266.5,0,399.8c-6.9,26.1-23.1,42.6-49.6,48.6c-133.3,0-266.5,0-399.8,0
		C23.9,492.3,7.7,476.1,1,450.4z M357.3,356.8c32.5-0.8,48.4-12.4,50.8-42c3-38.2,4.9-76.9,1.9-115.1c-4.2-53.4-14.4-61.1-68-61.5
		c-61.7-0.5-123.4-0.3-185.1,0c-37.6,0.2-55,9.9-57.5,41.1c-3.6,44.1-2.2,88.6-0.9,133c0.6,20.4,10.1,39.2,33.3,41.4
		C172.5,357.6,322.9,357.6,357.3,356.8z"/>
	<path fill="#44D62C" d="M307,244.6c-29.1,15.1-57.3,29.7-86,44.5c0-30.1,0-59.3,0-89.4C249.7,214.7,277.9,229.4,307,244.6z"/>
</g>
</svg>
