<?xml version="1.0" encoding="utf-8"?>
<!-- Generator: Adobe Illustrator 21.1.0, SVG Export Plug-In . SVG Version: 6.00 Build 0)  -->
<svg version="1.1" id="Layer_1" xmlns="http://www.w3.org/2000/svg" xmlns:xlink="http://www.w3.org/1999/xlink" x="0px" y="0px"
	 viewBox="0 0 2790 500" enable-background="new 0 0 2790 500" xml:space="preserve">
<g>
	<g>
		<path fill="#191919" d="M1077.2,216.5c0-1.6,1.8-3.2,2.8-3.2c1,0,1.9,0.8,2.9,1.6h7.6c0.1-0.1,0.5-1,0.3-1.7
			c-0.4-1.4-0.1-2.6,0.5-3.9c0.5-1.1,0.5-2.2,0.1-3.4c-0.6-1.6-1-3.4-1.6-5.2c-1.5,0-2.8-0.5-3.4-2.5c0.4-0.5,0.9-1.4,1.5-2
			c1.3-1.4,1.1-3-0.7-3.7c-0.3-0.1-0.7-0.1-1-0.3c-1.8-0.7-2.2-2.5-0.7-3.7c1.3-1.1,2.8-1.9,4.1-2.9c1.9-1.5,4.2-1.7,6.4-1.3
			c3,0.6,6,0.5,9-0.1c3.5-0.7,7.1-1.3,10.6-1.9c0.6-0.1,1.3-0.2,1.6-0.5c2-2.4,4.7-2.2,7.3-2.2c0.9,0,1.8,0.4,2.7,0.8
			c4.8-0.7,9.5-0.2,14.1,1.1c3,0.8,6,1.2,9.1,1.8c0.4,0.1,0.8,0.1,1.2,0.2c2.4,0.6,4.8,1.4,7.2,1.9c0.7,0.2,1.7-0.1,2.4-0.4
			c1.9-0.8,3.5-0.5,5.1,0.9c1.5,1.4,3.2,1.7,5.3,1.5c3.4-0.4,6.3-1.9,9.3-3.5c0.8-0.4,1.6-0.8,2.5-1.2c0.9-0.4,1.8-0.9,2.7-1.3
			c1.4-0.6,2.7-1.3,4.1-1.8c2-0.7,4.7,0.3,5.6,2.6c0.2,0.4,0.4,0.7,0.5,1.1c0.2,0.8,0.4,1.6,0.6,2.3c-0.5,1.8-1.5,2.8-3,3.6
			c-1.4,0.7-2.5,2-3.9,2.7c-2,1.1-4,2-6.1,2.9c-2.1,0.9-4.1,2.1-6.3,2.5c-3.1,0.6-6.3,0.9-9.4,0.8c-2.5,0-4.9-0.9-7.4-1.2
			c-0.7-0.1-1.7,0.3-2.2,0.8c-2.1,2.1-5,2.1-7.5,3c-3.4,1.2-6.9,0.2-10.4,0.8c-0.6,0.1-1.4-0.4-2.1-0.6c-3.2-1-6.4-2.4-10.2-2.3
			c-0.4,1-1,2.1-1.2,3.2c-1.4,8.3-2.4,16.6-2,25c0.2,4.3,0.5,8.7,1.1,13c0.3,2,1.4,3.9,2.3,5.7c0.8,1.6,0.8,3.1,0.2,4.6
			c-0.8,2.1-0.4,3.9,1.1,5.6c1.2,1.4,2.5,2.7,3.8,4c0.8,0.7,1.7,1.3,2.6,1.9c-0.1,0.2-0.3,0.4-0.4,0.7c1.4-0.2,2.8-0.5,4.2-0.7
			c4.2-0.4,8.5-0.4,12.7-1.1c5-0.8,9.9,0,14.8,0.3c6.8,0.3,13.4,1.7,19.9,3.6c11.7,3.5,22.7,8.5,32.8,15.5
			c6.6,4.6,12.8,9.8,18.1,15.8c13.8,15.6,22.9,33.5,26.5,54.1c1.4,7.9,2.1,16,1.6,24c-0.8,13-3.6,25.4-8.8,37.4
			c-4.4,10.2-10.2,19.4-17.2,27.9c-4.9,6-10.5,11.2-16.6,16c-7.3,5.8-15.4,10.4-23.8,14.4c-8.8,4.1-18,6.9-27.6,8.2
			c-4.3,0.6-8.6,0.8-13,1.1c-14.2,0.9-28-1.7-41.4-6.3c-11.2-3.9-21.4-9.8-30.8-17.1c-5-3.9-9.6-8.4-13.9-13.1
			c-5.2-5.7-9.6-12-13.4-18.8c-5.8-10.4-9.8-21.4-12-33.1c-1.6-8.5-2.3-17.1-1.7-25.7c1-16.4,5.4-31.8,13.3-46.2
			c4.7-8.6,10.4-16.5,17.4-23.6c5.7-5.8,11.7-11,18.4-15.5c3.3-2.2,6.7-4.1,10.1-6.1c0.5-0.3,1-0.6,1.5-0.9
			c-0.2-2.1-1.1-3.8-2.3-5.2c-1.7-2.2-2.3-4.5-2-7.2c0.1-1.7-0.6-3.4-1-5.1c-0.1-0.5-0.7-0.8-1.4-1.4
			c-34.9,41.4-69.7,82.6-104.5,123.8c0.5,1.8,0.8,3.1,1.2,4.8c1,0.1,2.1,0.4,3.3,0.4c6.1-0.1,12.2-0.3,18.3-0.4c1.4,0,2.8,0.4,4,0.5
			c0.4,0.8,0.6,1.4,1,1.8c0.4,0.4,0.9,1,1.3,1c2.8,0.1,5.6,0,8.8,0c0.7,1.1,1.6,2.6,2.5,4.1c-0.7,1.9-2.1,3.2-3.6,4.4
			c-0.5,0.3-1.3,0.3-1.9,0.3c-1.7,0-3.3,0.3-4.6,1.6c-0.5-0.3-0.9-0.7-1.5-1.1c-0.5,0.1-1.1,0.2-1.6,0.4c-1.7,0.7-3.3,0.8-5.1,0.3
			c-2.3-0.7-4.4-0.1-6.4,1.3c-1.8-1.9-3.9-1.1-6.4-0.3c-0.7-1.3-1.5-2.7-2.3-4.2c-1.8,0.2-3.7,0.4-5.8,0.6c-0.3,0.9-0.6,1.7-0.8,2.6
			c-1.4,5.4-4,10.2-7.7,14.2c-4.6,5-10.4,8.5-17.1,10c-5.5,1.2-11.1,1.2-16.7-0.3c-6.1-1.7-12.3-3.4-18.4-5
			c-0.6-0.2-1.3-0.3-2.1-0.5c-0.5,0.8-1.1,1.5-1.4,2.3c-3.9,8.4-8.8,16.2-14.8,23.2c-3.5,4-7.4,7.7-11.2,11.4
			c-4.4,4.3-9.4,8-14.7,11.4c-11.4,7.3-23.6,12.5-37,15.1c-4.3,0.8-8.7,1.9-13.1,2.3c-5,0.5-10,0.5-15,0.6
			c-8.8,0.2-17.3-1.4-25.7-3.8c-5.5-1.5-11-3.1-16.2-5.3c-9.9-4.1-19.1-9.3-27.2-16.4c-3.5-3.1-7.1-6.1-10.4-9.5
			c-6.5-6.6-11.9-14-16.5-22c-6.9-11.7-10.9-24.4-13.1-37.8c-1.2-7.4-1.6-15-1.1-22.5c1.1-14,4.3-27.4,10.4-40.1
			c4.4-9.2,9.6-17.9,16.3-25.5c8.3-9.3,17.6-17.4,28.5-23.7c11.9-6.8,24.5-11.6,37.9-14.1c9.8-1.8,19.7-2.2,29.5-1.6
			c11.2,0.7,22.2,3.3,32.7,7.4c0.3,0.1,0.6,0.2,1.1,0.4c0.6-0.4,1.2-0.8,1.7-1.2c-0.9-5.1,1.9-5.5,6.4-5.1c2.4-2.4,3.1-5.7,3.8-7.8
			c2.6-3,4.6-5.3,6.5-7.7c3.4-4.4,6.8-8.7,10.7-12.6c1.6-1.6,2.7-3.8,3.8-5.8c1.6-2.8,3.1-5.6,4.4-8.5c0.6-1.3,0.8-2.9,0.7-4.4
			c-0.2-2-1-3.9-1.6-5.9c-0.8,0-1.4-0.1-2.1,0c-2.4,0.4-3.3-0.4-3.2-2.8c0-0.5,0.2-1,0.3-1.6c1.3-0.4,2.5-0.8,4-1.2
			c-0.7-2.8-1.3-5.4-2-8.1c-1.2-4.4-2.5-8.9-3.7-13.3c-0.5-1.7-0.8-3.4-1-5.2c-0.6-3.8-2.6-6.5-6.6-7.6c-0.8,1.1-1.7,2.5-3,1.7
			c-1.3-1.6-2.3-2.7-3.3-3.9c0.2-0.5,0.6-1.2,1.1-2.2c-0.7-0.1-1.3-0.3-2-0.3c-4.7,0-9-1.2-12.9-4c-4.3-3-8.6-5.8-13.5-7.6
			c-1.3-0.5-2.6-0.8-3.8-1.2c-1.2-0.5-2.5-1-3.6-1.7c-1.4-0.9-1.6-2-0.6-3.4c1.2-1.9,3-2.7,5.1-2.7c2.7,0.1,5.3,0.3,8,0.6
			c7.6,1.1,15.2,2.4,22.9,2.4c10.7,0,21.4,0.2,32.1,0.5c5.1,0.1,10.2,0.5,15.2,1c1.6,0.2,3.3,0.7,4.8,1.4c1.6,0.8,3.1,1.8,2.6,4.3
			c-4.5,1-8.8,2.9-13.6,2.3c-1.7-0.2-3.4-0.8-5.1-0.9c-3.1-0.3-5.9,0.8-8.5,2.5c-1,0.7-2.1,1.4-3.1,2.1c-3.1,2.2-6.3,3.8-10.7,3.4
			c0.5,1,0.6,1.8,1.1,2.2c5.5,4.8,8.3,10.9,10,17.8c1.2,5,2.7,10,4,15c0.2,0.6,0.5,1.2,0.7,1.9c0.7,0,1.3-0.1,1.8-0.1
			c0.7,0,1.4-0.3,2-0.1c0.7,0.3,1.6,0.9,1.7,1.6c0.2,0.6-0.3,1.6-0.8,2.1c-0.7,0.7-1.8,1.1-2.6,1.6c0.5,3.4,1.6,10.9,4.7,13.3
			H1077.2z M821.4,394.3c0.1-1.4,1.3-3-0.8-4.3c-0.3,1.5-0.5,2.8-0.6,4.1c0,0.2,0.6,0.4,0.9,0.7c-2.7,3.9-2.4,8.6-3.3,12.9
			c1.2-1.6,2.1-3.4,3.2-5.1C822.4,400,822.1,397.2,821.4,394.3z M1158.3,384.3c-1,0-1.6,0.5-1.9,1.3c-0.5,1.6-1.7,3.3-1.4,4.7
			c0.8,3.6,2.2,7.1,3.3,10.6c0.2,0,0.3,0,0.5,0c1.3-4.3,2.6-8.7,3.9-13C1161.1,386.5,1159.7,385.4,1158.3,384.3
			c1.5,0.7,3.1,1.4,5.1,2.4c-0.3-0.9-0.3-1.7-0.7-2c-1.4-0.9-2.7-2-4.7-1.6C1158.1,383.5,1158.2,383.9,1158.3,384.3z M1091.9,312.9
			c-1.4-0.8-2.9-1.6-4.4-2.5c-3.7,4-6.9,8.3-9.5,13c2.3,2,50.2,23.8,53.3,24.4c-0.1-0.4-0.2-0.7-0.3-0.9c-1.8-2.9-3.6-5.8-5.5-8.7
			c-0.6-0.9-1.5-1.8-2.4-2.4c-8.7-6.2-17.4-12.4-26.1-18.7C1095.1,315.8,1093.5,314.3,1091.9,312.9c1.2,0.7,2.5,1.3,3.7,2.1
			c8.5,6,17,12.1,25.5,18.2c0.3,0.2,0.8,0.3,1.4,0.6c-1.3-3.6-20-33.8-21.8-35.3c-2.5,0.9-10.2,7.9-11.8,10.8
			C1089.8,310.5,1090.8,311.7,1091.9,312.9z M785.2,395.3c5.9-3.1,10.4-8,15.6-12.2c-5,0.8-9.9,1.7-14.8,2.6
			c-13.5,2.5-26.9,5-40.4,7.6c-1.7,0.3-3.3,0.9-5.2,1.4c1.3,4.9,3,9.1,5.2,13.4c1.2-0.2,2.3-0.3,3.4-0.7c6.6-2.3,13.2-4.7,19.9-6.9
			c1.1-0.4,2.3-0.5,3.4-0.7c-0.6,0.3-1.1,0.8-1.7,1c-5.4,2-10.9,3.8-16.3,5.8c-2.6,0.9-5.3,1.6-7.4,3.3c0.7,2.6,4.9,9.3,7.3,11.9
			c1.5-0.7,3-1.3,5.1-2.3c-1.5,1.6-2.6,2.9-4,4.4c3.2,3.6,6.3,7,9.4,10.4c3.1-2.3,36-42.2,37.2-44.3c-3.1,1-6.2,2-9.2,3.2
			c-1.7,0.6-3.4,1.4-4.8,2.5c-3.5,2.8-6.9,5.8-10.3,8.7c-1.3,1.1-2.6,2.1-4,3.2c3.6-4.6,8.6-7.9,12.8-12.1
			C785.5,395.5,785.3,395.4,785.2,395.3z M808.8,377.2c-0.4-1.9-0.7-3.9-1.1-5.7c-2.9-1.1-5.5-2.1-8.1-2.9c-1.2-0.4-2.6-0.4-3.9-0.3
			c-1.6,0.1-3.1,0.5-4.7,0.8c-8.6,1.5-17.3,3-25.9,4.5c-6.8,1.2-13.6,2.4-20.5,3.7c-2.5,0.5-5,1.1-7.7,1.7c0.5,4.9,1.3,9.5,2.9,14.3
			c3.4-0.7,6.7-1.3,10.1-1.9c7.1-1.3,14.3-2.6,21.4-3.9c6-1.1,12-2,18-3.3c5.3-1.2,11-1.3,16-3.9c1.7,1.1,3.1-0.2,5-0.3
			C809.7,378.9,809.3,378.1,808.8,377.2z M1130.6,384.8c-0.1,0.6-0.1,1.2-0.2,2.2c2.8-1.1,5.2-2.3,7.8-3c3-0.9,4.2-2.9,4.7-5.9
			c-1-0.3-2-0.5-2.9-0.8c-3.1-0.7-3.1-0.7-4.9,1.9C1133.6,381.1,1132.1,382.9,1130.6,384.8c1.7-2.7,3.4-5.5,5.2-8.3
			c-0.5-0.2-0.8-0.5-1.2-0.6c-2.9-0.8-5.8-1.6-8.8-2.2c-0.7-0.2-1.5,0-2.1,0.3c-14.4,5.1-28.7,10.1-43.1,15.2
			c-4.3,1.5-8.6,3.1-13.2,4.7c1.2,5.4,3.2,10.4,5.6,15.5c1.2-0.3,2.2-0.6,3.2-0.9c2.3-0.9,4.7-1.8,7-2.8
			c13.5-5.3,26.9-10.6,40.4-15.9c2.4-0.9,5-1.6,6.2-4.3C1129.9,385.1,1130.3,385,1130.6,384.8z M815.4,401.4c-0.3,0.6-0.6,1.2-1,1.7
			c-1.4,1.8-2.9,3.5-4.3,5.2c-3.2,3.8-6.4,7.5-9.6,11.3c-2.4,2.8-4.8,5.6-7.2,8.4c-3.3,3.9-6.6,7.7-9.8,11.7c-1.6,2-3.7,3.6-4.6,6.1
			c4.7,3.3,10.3,6.2,13,6.7c1.7-2.9,3.4-5.8,5.2-8.8c4.8-8.2,9.6-16.5,14.4-24.8c1.5-2.6,3.4-5.1,4.3-7.9c1.1-3.5,1.5-7.3,2.2-11.4
			C816.8,400.3,816.1,400.8,815.4,401.4c0.2-0.4,0.3-1,0.6-1.3c1.9-1.5,2.4-3.5,2.7-5.7c0.2-1,0.3-2,0.5-3c0.3-1.3-0.2-2.2-1.2-3
			c-1.9-1.6-3.7-3.4-5.5-5.1c-0.5-0.5-1-1.1-1.7-1.8c-1.8,2-3.5,4-5.2,5.9c0.1,0.1,0.1,0.2,0.2,0.3c1.9-0.6,3.9-1.2,5.8-1.8
			c0.1,0.2,0.1,0.4,0.2,0.5c-1.8,0.7-3.7,1.4-5.5,2c-1.7,0.5-2.9,1.5-4,2.9c-2.8,3.5-5.7,7-8.6,10.4c-4.5,5.5-9.1,10.9-13.6,16.4
			c-2.8,3.4-5.7,6.8-8.5,10.2c-1.9,2.4-4.2,4.5-5.4,7.4c2,2.6,8.4,7.7,11.1,8.8c0.5-0.5,1.2-1,1.7-1.6c1.4-1.5,2.8-3.1,4.2-4.7
			c2.7-3.2,5.4-6.3,8.1-9.5c3.1-3.6,6.2-7.3,9.2-10.9c2.7-3.2,5.4-6.4,8.2-9.5C811,406,813.2,403.7,815.4,401.4z M928.8,226.9
			c-1.9,0.1-1.2,2.8-1,3.8c0.3,1.3,6.1,21.9,9.5,34.4c4.3,15.6,8.6,31.1,12.8,46.7c3.6,13.2,7.1,26.5,10.6,39.8
			c0.2,0.6,0.5,1.2,0.8,1.9c6,0.2,11.8,1,17.4,3.8c2.4-2.9,4.6-5.5,6.8-8.1c4.8-5.7,9.5-11.4,14.3-17.1c3.9-4.6,7.8-9.2,11.7-13.8
			c4.8-5.7,9.5-11.5,14.3-17.1c4.9-5.8,9.9-11.6,14.8-17.4c6.6-7.9,13.1-15.8,19.8-23.7c6.7-8,13.5-15.9,20.3-23.9
			c1.5-1.8,3-3.6,4.4-5.5c1.3-1.7,0.6-3.1-1.5-3.3c-1.6-0.2-3.2-0.4-4.7-0.5C1078.8,227,930.6,226.9,928.8,226.9z M949.4,354.6
			c-0.2-0.9-0.3-1.5-0.5-2c-2.8-10.4-5.6-20.9-8.4-31.3c-2.6-9.7-5.2-19.4-7.9-29.1c-4.4-15.9-8.9-31.8-13.3-47.6
			c-1.3-4.6-2.5-9.2-3.7-13.8c-0.3-1.1-0.8-2.1-1.1-3.1c-0.3,0-0.3,0-0.6,0c-8.1,15.5-16.1,31.1-24.2,46.7
			c29.7,19.2,47.4,46,52.7,81C944.9,355.1,947.1,354.8,949.4,354.6z M1162.2,355.2c2.8-1.1,5.4-1.8,7.7-3c2.5-1.3,4.9-2.9,7.2-4.6
			c1-0.7,1.9-1.7,2.4-2.8c3.1-7,6-14.2,9-21.2c3.4-8,6.9-16,10.3-23.9c1.2-2.9,2.4-5.8,3.5-8.6c-4.6-3-12.4-6.4-15.1-6.6
			c-0.5,0.8-1.2,1.7-1.7,2.6c-1.9,3.5-3.7,7-5.5,10.4c-6.1,11.9-12.2,23.8-18.4,35.7c-0.5,1-1.2,1.9-1.5,2.9
			c-0.4,1.1-0.8,2.4-0.7,3.6c0.3,3.6,0.8,7.1,1.4,10.7C1161.1,351.8,1161.7,353.3,1162.2,355.2z M1172,364.3c0.5,0.3,1,0.5,1.4,0.6
			c5,1.2,10.1,2.4,15.2,3.5c0.7,0.2,1.7,0,2.4-0.3c3.5-1.4,6.9-2.9,10.4-4.3c13.2-5.3,26.4-10.6,39.6-15.9c1.2-0.5,2.3-1.2,3.5-1.8
			c-1.4-5.5-3.1-10.6-5.6-15.4c-1.5,0.4-2.7,0.8-3.9,1.2c-17.6,5.9-35.3,11.8-52.9,17.7c-0.7,0.2-1.5,0.5-2,1
			C1176.3,354.4,1173.7,359,1172,364.3z M1241.5,400.1c-3.6-1.7-6.9-3.3-10.2-4.9c-9.9-4.7-19.9-9.3-29.8-13.9
			c-4.9-2.3-9.8-4.7-14.7-7c-0.6-0.3-1.5-0.4-2.2-0.3c-3,0.4-6,0.8-8.9,1.3c-1,0.2-2,0.6-3.1,0.9c0.2,0.6,0.2,0.9,0.4,1.2
			c1.6,2.8,3.4,5.4,4.7,8.3c2,4.5,5.2,7.4,9.9,9.2c6.6,2.5,12.9,5.6,19.3,8.5c7,3.1,14.1,6.2,21.1,9.4c2.1,0.9,4.1,1.8,6.3,2.7
			C1237.3,410.6,1239.7,405.6,1241.5,400.1z M1139.6,361c-0.6-1.1-0.9-1.9-1.4-2.6c-1.2-2-2.7-3.9-3.7-6c-1.1-2.3-2.9-3.3-5-4.2
			c-9-4-18-8-27-12.1c-7.6-3.4-15.2-6.9-22.8-10.4c-0.8-0.4-1.7-0.5-2.5-0.8c-2.7,3.7-6.3,11.4-6.9,14.8c1,0.6,2.1,1.2,3.2,1.7
			c9.9,4.6,19.7,9.2,29.6,13.7c5.8,2.7,11.6,5.5,17.5,8.2c1,0.4,2.3,0.5,3.4,0.3c2.6-0.3,5.3-0.9,7.9-1.3
			C1134.2,362.1,1136.7,361.6,1139.6,361z M828,392.3c-1.3,2.3-2.8,4.7-4.1,7.2c-0.5,1-0.9,2.2-0.9,3.3c0,4.5,0.3,9,0.4,13.5
			c0.2,5.9,0.4,11.9,0.5,17.8c0.2,8.2,0.3,16.4,0.5,24.6c0,0.6,0.2,1.1,0.4,2c4.8,0,9.5,0.1,14.3-0.1c0.2-1,0.3-1.7,0.4-2.3
			c0.2-6.8,0.4-13.5,0.5-20.3c0.1-10.6,0-21.3,0.1-31.9c0-1.6,0.3-3.2,0.3-4.7c0-0.9,0.1-1.9-0.3-2.7c-1.3-2.3-2.7-4.5-4.1-6.8
			C833.2,392,830.8,392.2,828,392.3z M1194.1,451.7c-0.1-0.5,0-0.7-0.1-1c-3.2-8.4-6.4-16.9-9.6-25.3c-3.4-9-6.9-18-10.2-27
			c-1-2.8-2.1-5.2-5.1-6.4c-1-0.4-1.8-1.2-2.7-1.8c-0.9-0.6-1.7-1.2-2.8-1.9c-0.4,1.1-0.7,2-1,2.9c-0.9,3-1.7,6.1-2.8,9.1
			c-0.5,1.6-0.5,3.1,0.1,4.6c1.5,4.2,3,8.3,4.5,12.5c4.1,11.8,8.2,23.7,12.4,35.5c0.5,1.4,1.2,2.7,1.9,4.1
			C1184.3,456.1,1189.2,454,1194.1,451.7z M843.2,388.3c0.7,3.6,1.3,6.9,2,10.1c0.1,0.4,0.4,0.7,0.7,1c4.9,5.5,9.9,10.9,14.8,16.3
			c4.9,5.3,10,10.6,14.9,16c1.9,2,3.6,4.2,5.4,6.3c1.6,1.7,3.2,3.3,5.1,5.2c3.8-3.2,7.3-6.2,10.9-9.2c-0.9-1.4-1.5-2.6-2.4-3.7
			c-3.5-4.3-7.1-8.4-10.6-12.7c-5.4-6.6-10.8-13.2-16.3-19.7c-1.6-1.9-3.1-3.8-5.8-4.4c-4-0.9-7.9-2.1-11.9-3.2
			C847.9,389.7,845.8,389.1,843.2,388.3z M908,316.4c-1.6,0.8-2.9,1.4-4.2,2.1c-4.3,2.4-8.5,5-12.8,7.4c-4.2,2.3-8.4,4.5-12.6,6.9
			c-7,3.9-14,8-21,11.9c-1.4,0.8-2.4,1.7-3.1,3.1c-0.4,0.8-0.9,1.6-1.4,2.4c-0.9,1.7-1.8,3.3-2.6,4.8c0.6,1.7,1.6,2.2,3,2.1
			c3.9-0.1,7.7,0.1,11.6-0.1c2.3-0.1,4.6-0.4,6.7-1.7c11-6.6,22.1-13.2,33.2-19.8c3.5-2.1,7-4.2,10.7-6.4
			C913.3,324.6,911,320.5,908,316.4z M1146.8,389.3c-4,1.8-7.4,3.7-10.6,5.9c-0.5,0.3-0.8,1.1-1.1,1.7
			c-8.3,16.6-16.6,33.1-24.8,49.7c-0.3,0.6-0.5,1.2-0.7,1.8c3,2.4,12.2,6.5,14.9,6.7c0.2-0.2,0.4-0.5,0.5-0.8
			c2.8-5.9,5.6-11.8,8.3-17.7c4.7-10.5,9.2-21,13.8-31.5c0.7-1.5,1.5-3.2,1.4-4.7C1148.3,396.7,1147.5,393.3,1146.8,389.3z
			 M812.1,356.8c-1.6-2.9-3-5.5-4.5-8.1c-0.4-0.7-1.1-1.2-1.8-1.6c-8.1-4.7-16.3-9.3-24.4-14c-6.6-3.8-13.2-7.6-19.8-11.3
			c-2.9-1.6-5.6-3.7-8.8-4.5c-2.4,2.9-6.5,9.9-7.1,12.4c0.9,0.6,1.7,1.5,2.7,2c10.5,5.7,21.1,11.3,31.7,16.9
			c5.2,2.8,10.4,5.7,15.7,8.5c1.8,0.9,3.6,2.2,5.5,2.4c3,0.4,6.2,0.1,9.3,0.1C811,358.6,811.5,357.8,812.1,356.8z M822.1,348.3
			c1-0.3,2.1-0.7,3.2-1.1c0.5-2.6,1-5.1,1.3-7.5c0.1-1.2,0.1-2.5-0.3-3.6c-1.1-3.3-2.4-6.6-3.6-9.9c-4.6-12.5-9.2-25-13.8-37.4
			c-1.1-2.9-2.3-5.7-3.3-8.4c-4,0.4-11.8,3.2-13.8,5c0.4,1.3,0.8,2.6,1.3,3.9c1.3,3.4,2.7,6.7,4,10c5.4,13.7,10.8,27.4,16.2,41.1
			c0.4,1,1.2,2,2.1,2.7C817.4,344.9,819.7,346.5,822.1,348.3z M840.3,347.6c2.3-4.2,4.4-8,6.6-11.9c4.6-8.5,9.2-17.1,13.8-25.6
			c1-1.9,2-3.9,2.8-5.9c1.1-2.8,2-5.7,2.9-8.5c1.2-3.5,2.3-7.1,3.6-11c-4.9-1.7-9.5-3.4-14.2-5c-0.4,0.8-0.7,1.3-0.9,1.9
			c-3.4,9.8-6.9,19.6-10.3,29.4c-2.4,6.7-4.9,13.4-7.3,20.1c-0.7,1.9-1.8,3.9-1.6,5.7c0.2,3.4,1.2,6.7,1.8,10.1
			C838.5,347.1,839.3,347.3,840.3,347.6z M1134,396.9c-0.2-0.1-0.3-0.2-0.5-0.3c-5.2,3-10.5,5.9-15.7,8.9c-0.7,0.4-1.4,1-1.8,1.7
			c-3.9,5.8-7.7,11.7-11.6,17.6c-3,4.6-6.2,9.1-9.4,14c4.6,3.3,8.9,6.4,13.6,9.7c4.3-8.6,8.6-17.1,12.7-25.7
			C1125.4,414,1130.3,405.8,1134,396.9z M1209.5,442.4c-0.9-1.6-1.5-2.8-2.1-4c-6-10.3-11.9-20.5-17.9-30.8c-0.6-1.1-1.5-2-2.5-2.8
			c-3.1-2.4-6.3-4.6-9.5-6.9c-0.9-0.6-1.9-1.2-2.8-1.8c0.8,3.2,1.8,6.1,2.9,9c5.4,14.2,10.8,28.5,16.2,42.7c0.4,1.1,1.1,2,1.7,3.3
			C1200.5,448.3,1205.4,446.1,1209.5,442.4z M1067.2,392.9c18.7-6.5,37-13,55.2-19.8c-5.4-1.6-10.7-3-16.1-4.3c-0.9-0.2-2-0.2-2.9,0
			c-11.3,2.2-22.6,4.4-33.9,6.6c-1.5,0.3-3,0.8-4.7,1.2C1064.9,382.1,1065.8,387.2,1067.2,392.9z M1149.1,402.5
			c-2.6,5.8-4.9,11-7.2,16.2c-4.6,10.4-9.1,20.8-13.6,31.2c-0.8,1.9-1.5,3.8-2.2,5.9c5.4,1.9,10.5,3,15.7,3.7c0.2-0.4,0.4-0.7,0.5-1
			c3.4-11.9,6.9-23.8,10.3-35.6c0.2-0.8,0.1-1.7,0-2.5c-0.4-2.4-0.8-4.8-1.3-7.1C1150.5,409.9,1149.8,406.5,1149.1,402.5z
			 M1082.3,424.5c1.5-0.7,2.8-1.3,4-2c8.5-4.8,17-9.6,25.5-14.5c1.8-1,3.8-1.6,5.1-3.5c2.9-4.4,5.8-8.8,8.8-13.2
			c0.2-0.4,0.3-0.8,0.7-1.6c-17.8,7-35.2,13.6-52.7,20.9C1076.2,415.6,1078.8,420.1,1082.3,424.5z M1158.8,405.1
			c-0.3,0.4-0.5,0.6-0.5,0.8c-1.4,4.9-2.9,9.8-4.3,14.7c-0.2,0.9-0.3,1.8-0.1,2.7c0.5,3.1,1.1,6.3,1.7,9.4
			c1.4,7.6,2.9,15.3,4.4,22.9c0.3,1.5,0.8,3,1.2,4.6c5.6-0.3,10.7-1.1,15.8-2.4C1176.8,455.1,1162.1,412,1158.8,405.1z M798,359.7
			c-4.3-3.3-50.2-27.5-53.5-28.3c-1.9,4.4-4,8.7-4.8,13.6c1.3,0.6,2.3,1.1,3.4,1.6c10.8,4,21.7,8,32.5,12c1.6,0.6,3.2,1.5,4.8,1.5
			C786.1,360.1,791.9,359.9,798,359.7z M763.4,304.4c-3.8,3.5-6.8,7.1-9.5,11.1c2.1,2.1,48.3,28.9,51.6,29.9c-0.3-0.6-0.4-1-0.7-1.4
			c-2-3.5-4-7-5.9-10.5c-1-2-2.4-3.5-4.2-4.9c-5.7-4.3-11.3-8.7-16.9-13C773.1,311.8,768.3,308.2,763.4,304.4z M1065.7,357.2
			c1.7,0.5,2.9,1,4.2,1.3c10.4,2.7,20.8,5.3,31.1,7.9c1.6,0.4,3.3,1.1,4.9,0.9c4.7-0.7,9.3-1.8,14.2-2.7
			c-8.3-4.7-47.8-22.7-50.7-23.1C1067.5,346.5,1066.4,351.7,1065.7,357.2z M1188.5,373.4c0,0.2,0,0.3-0.1,0.5
			c0.7,0.4,1.4,0.8,2.2,1.2c5.9,2.8,11.8,5.6,17.7,8.4c9.4,4.4,18.7,8.9,28.1,13.3c1.8,0.8,3.5,1.9,5.9,1.8c1.6-5,3.1-10,3.7-15.4
			c-5.2-1.2-10.2-2.4-15.2-3.7c-9.5-2.3-19-4.6-28.5-6.8c-1.2-0.3-2.5-0.8-3.7-0.6C1195.2,372.3,1191.8,372.9,1188.5,373.4z
			 M826.9,334.6c0.2,0,0.3,0,0.5,0c0.1-0.4,0.3-0.7,0.4-1.1c0.9-4.4,1.7-8.8,2.5-13.2c0.2-0.8,0.1-2.2,0-3.1
			c-2.2-10.5-4.4-21-6.6-31.4c-0.6-2.9-1.3-5.8-2-8.6c-3.5-0.5-12.6,1.1-15,2.7C813.5,298.1,820.2,316.3,826.9,334.6z M777.1,293.1
			c2.2,3.9,4.3,7.5,6.3,11.1c4.6,8.1,9.3,16.3,13.9,24.4c0.5,0.8,1.2,1.6,1.9,2.2c3,2.4,6.1,4.7,9.1,7c0.9,0.7,1.9,1.4,2.9,2.1
			c0.2-1,0.1-1.6-0.2-2.2c-6.1-15.4-12.2-30.8-18.3-46.2c-0.8-1.9-1.8-3.7-2.8-5.7C785.3,287.7,781.2,290.1,777.1,293.1z M736,377.2
			c10.1-0.9,19.8-3.2,29.5-4.6c9.7-1.4,19.4-3.4,29.1-5.1c-2.3-1.4-4.5-2.4-6.7-3.1c-4.5-1.5-8.8-4.3-13.9-2.7
			c-10.4,0.2-20.7,0.4-31.1,0.5c-0.9,0-1.9-0.1-2.8,0c-1.4,0.2-2.7,0.5-4.1,0.7C736,367.8,736,372.3,736,377.2z M1233.5,416.7
			c-2.8-2.2-48.4-22.5-51-22.8c0.7,1.3,1.4,2.5,2.1,3.8c2.5,4.9,5.9,9,10.6,12.1c6.7,4.5,13.3,9.3,19.9,13.9c2.8,2,5.6,3.9,8.6,5.9
			C1227.7,425.7,1230.7,421.4,1233.5,416.7z M839.6,277.1c-0.2,0.8-0.5,1.6-0.6,2.4c-2.2,11.5-4.3,23-6.4,34.5
			c-0.4,2.4-1,4.9-0.4,7.5c0.7,2.9,1.2,5.9,1.9,8.8c0.2,1.1,0.5,2.2,0.8,3.3c0.7-0.8,1-1.6,1.3-2.3c1.5-4.2,3.1-8.5,4.6-12.7
			c4.1-11.5,8.2-23,12.3-34.5c0.5-1.4,0.6-2.9,1-4.6C849.2,278.2,844.6,277.1,839.6,277.1z M1134,281.8c6.6,18.7,14.1,36.5,21.3,55
			c0.5-1.7,0.9-2.8,1.1-4c0.3-1.2,0.8-2.5,0.6-3.7c-0.7-6.4-1.6-12.8-2.5-19.1c-1.2-8.9-2.3-17.9-3.5-26.8c-0.2-1.4-0.8-2.7-1.2-4.1
			C1144.5,279.2,1139.5,280.3,1134,281.8z M1182,348.5c1.3-0.5,2.6-0.9,3.9-1.4c15.8-5.3,31.6-10.5,47.4-15.8
			c1.6-0.5,3.2-1.3,4.9-2.1c-2.2-5.1-5.1-9.3-8.2-13.7c-0.9,0.4-1.6,0.7-2.3,1.2c-4.9,3.1-9.7,6.2-14.6,9.2
			c-8.1,5.1-16.1,10.2-24.3,15.1C1185.7,342.9,1183.9,345.6,1182,348.5z M1245.2,347.9c-3.1,0.3-49.8,19-53.4,21.2
			c2.6,0.6,4.9,1.2,7.2,1.8c0.3,0.1,0.7,0,1,0c4.3-0.7,8.6-1.4,12.9-2c5-0.8,10.1-1.5,15.1-2.2c5.6-0.8,11.2-1.6,16.8-2.5
			c0.8-0.1,1.5-0.5,2.6-0.9C1246.7,358.1,1245.9,353.1,1245.2,347.9z M856.8,343.4c0.1,0.1,0.2,0.2,0.3,0.4c1-0.5,2-1,3-1.6
			c4.9-2.8,9.8-5.7,14.7-8.5c8.1-4.6,16.3-9.1,24.5-13.8c2.6-1.5,5.4-2.6,7.5-5.2c-2.8-4-5.7-7.7-9.4-10.9c-0.6,0.5-1,0.8-1.4,1.2
			c-4.9,4.2-9.9,8.5-14.8,12.7c-5.8,4.9-11.7,9.7-17.5,14.6c-0.4,0.3-0.8,0.6-1,1.1C860.6,336.7,858.7,340.1,856.8,343.4z
			 M1170.3,279.8c-0.2,0.6-0.4,1.1-0.6,1.5c-1.2,5-2.4,9.9-3.6,14.9c-2.2,9.4-4.5,18.7-6.6,28.1c-0.8,3.6-1.8,7.3-0.3,11.2
			c0.2-0.3,0.4-0.5,0.5-0.8c3.4-6.5,6.9-13,10.3-19.6c4.2-8.1,8.3-16.3,12.5-24.4c0.3-0.6,0.7-1.1,1-1.8c0.8-1.8,1.5-3.6,2.4-5.5
			C1180.5,281.5,1175.5,280.4,1170.3,279.8z M1204,291.9c-0.3,0.5-0.7,0.7-0.8,1.1c-1.8,3.8-3.8,7.6-5.5,11.5
			c-5,11.5-9.9,23-14.8,34.6c-0.8,1.8-1.5,3.7-2.2,5.6c0.2,0.1,0.4,0.3,0.6,0.4c1.6-1.3,3.3-2.5,4.7-4c1.5-1.5,2.8-3.3,4.1-5.1
			c7.5-9.6,14.9-19.3,22.4-28.9c1.4-1.8,3-3.5,4.6-5.5C1213.3,297.6,1208.7,294.8,1204,291.9z M855.1,457.8c0-0.8,0-1,0-1.3
			c-0.9-5.3-1.8-10.7-2.9-16c-1.9-9.8-3.9-19.5-5.6-29.3c-0.7-3.7-3.2-6.3-5-9.4c-0.4,1.1-0.6,2.1-0.6,3.2c0,6.2,0,12.4,0,18.6
			c-0.1,10.6-0.3,21.2-0.4,31.8c0,1.5,0.4,3.1,0.6,5C846.1,459.5,850.5,458.7,855.1,457.8z M924.3,361.6c-0.5-0.2-0.7-0.3-1-0.4
			c-2.8-0.9-5.6-0.2-8.4-0.1c-12.2,0.3-24.4,0.5-36.6,0.5c-4.3,0-7.7,2.2-11.5,3.4c0.8,0.4,1.5,0.6,2.2,0.7c6.7,1.2,13.3,2.5,20,3.7
			c10.2,1.8,20.4,3.5,30.6,5.2c1.5,0.2,3.1,0.5,4.7-0.4C924.3,370,924.3,365.9,924.3,361.6z M822.7,460.8c0.3-1.8,0.6-3.1,0.6-4.4
			c0-2.8-0.3-5.7-0.4-8.5c-0.2-7-0.4-14-0.5-21.1c-0.2-7.3-0.3-14.5-0.5-21.8c0-0.4-0.1-0.7-0.3-1.7c-1.7,3-3.2,5.5-4.6,8
			c-0.3,0.6-0.4,1.3-0.6,1.9c-2,11.3-3.9,22.5-5.9,33.8c-0.6,3.6-1.3,7.2-2,10.8c0.7,0.3,1.1,0.6,1.5,0.7
			C814.1,459.3,818.2,460,822.7,460.8z M1101.9,297.1c0.9,1.7,1.5,3.2,2.3,4.5c6,9.9,12.1,19.9,18.2,29.7c1.2,1.9,2.3,4,3.9,5.4
			c2.2,2,4.9,3.6,7.5,5.4c0-0.3,0.1-0.5,0.1-0.6c-2.6-6.9-4.4-14-7.4-20.7c-4.3-9.5-7.9-19.3-11.8-29c-0.2-0.6-0.5-1.2-0.9-2
			C1109.4,291.8,1105.7,294.2,1101.9,297.1z M884.7,444.2c-0.7-1-1-1.8-1.5-2.4c-1.6-1.8-3.2-3.6-4.8-5.4
			c-5.2-5.7-10.4-11.3-15.5-17c-2.1-2.3-4.3-4.6-6.5-7c-2.4-2.7-4.7-5.4-7.1-8.1c-0.8-0.9-1.6-2-3.3-2.7c0.5,2.8,1,5.3,1.5,7.7
			c0.1,0.3,0.3,0.6,0.4,0.9c7,12,14,24,21,35.9c1,1.7,2.2,3.3,3.5,5.2C876.5,449,880.5,446.6,884.7,444.2z M915.9,330.1
			c-14.9,8.6-29.3,17.3-43.7,26.2c2.1,0.2,4.1,0.2,6.1,0.2c5,0,9.9-0.3,14.7-2.2c8.1-3.2,16.4-6,24.5-8.9c1.1-0.4,2.1-0.9,3.4-1.5
			C919.8,339.2,918.2,334.9,915.9,330.1z M907.4,421.3c-1-0.9-1.8-1.7-2.7-2.4c-7.4-5.8-14.8-11.5-22.1-17.4
			c-2.7-2.2-5.4-4.2-8.9-4.8c-1.7-0.3-3.4-0.9-5.1-1.3c-0.5-0.1-1-0.2-2-0.4c3.8,4.5,7.3,8.6,10.7,12.7c6.1,7.3,12.1,14.7,18.2,22
			c0.8,1,1.9,1.8,2.9,2.7C901.6,428.8,905,425.6,907.4,421.3z M1125,255c0.1-1,0.2-2.1,0.1-3.1c-0.2-2.4-0.6-4.7-0.8-7.1
			c-0.1-1.3,0-2.6-0.1-4c-0.3-3.7-0.9-7.3-1-11c-0.2-6.8-0.3-13.5,0.8-20.3c0.2-1.4,0.3-2.9,0.4-4.3c-4.5,5.5-9.5,10.2-15.3,14.2
			c1,3.6,1.9,7.1,2.9,10.6c2.3,8.5,4.6,16.9,6.9,25.4c0.1,0.5,0.4,0.9,0.7,1.4C1121.2,256.3,1122.9,255.8,1125,255z M1158.1,325.6
			c1.8-7.7,3.5-15.3,5.4-23c1.8-7.6,3.8-15.2,5.4-23c-5.8-1-11.3-1.1-17-0.7C1153.3,294.8,1155.7,310.2,1158.1,325.6z M1218.2,302.4
			c-3.7,3.3-28.6,35.2-29.3,37.6c13.4-8.8,27.1-16.6,40.2-25.6C1225.8,309.8,1222.2,306,1218.2,302.4z M866.1,386.9
			c1.2,1.5,2.5,2.3,4,2.9c6.8,2.4,13.5,4.9,20.3,7.4c3.5,1.3,7.1,2.6,10.7,3.7c3.2,1,6.5,1.6,9.8,2.5c2,0.5,3.9,1.3,6,2
			c1.5-4.3,3.6-8.1,4-12.8c-1.2-0.1-2.2-0.2-3.2-0.2c-4.9-0.1-9.8,0.9-14.6-0.7c-0.3-0.1-0.7,0-1-0.1c-3.8-0.5-7.7-0.6-11.4-1.5
			c-7.2-1.7-14.4-2.9-21.7-3C868.1,386.9,867.2,386.9,866.1,386.9z M1202.7,371.6c0.8,0.2,1.6,0.4,2.4,0.6
			c7.1,1.7,14.2,3.4,21.2,5.1c5.4,1.3,10.7,2.6,16.1,3.7c1.2,0.3,2.6,0,3.8,0c1.2-3.6,1.5-13,0.4-16
			C1232,367,1217.3,369.1,1202.7,371.6z M870.3,452.1c-0.8-3-20.1-37-22.4-39.3c3.1,14.9,5.3,29.6,8.9,44.2
			C861.7,456,866,454.1,870.3,452.1z M1223.2,430.5c-10.7-7.6-21.2-15-31.7-22.4c-0.2,0.1-0.3,0.3-0.5,0.4c0.4,0.9,0.8,1.7,1.3,2.6
			c1.7,2.9,3.3,5.8,5,8.7c3.7,6.3,7.4,12.7,11.1,19c0.6,1,1.4,1.8,2.2,2.9C1215.4,438.3,1219.4,434.8,1223.2,430.5z M1152.8,346.9
			c0.1,0,0.3-0.1,0.4-0.1c0.5-2.1,0.9-4.2,1.5-6.3c0.3-1.4,0.2-2.6-0.4-3.9c-5.6-14.1-11.1-28.1-16.7-42.2c-1.6-4-3.2-8-4.9-12.3
			c-1.8,0.6-3.4,1-5.2,1.6C1136,304.9,1144.4,325.9,1152.8,346.9z M814.9,415.2c-4.7,6.3-21,35.5-21.4,38c2.2,1.4,10.6,4.1,13.2,4.1
			c0.5-1.5,1.2-3,1.5-4.6c1.9-9.9,3.7-19.9,5.5-29.8C814.1,420.5,814.5,418.1,814.9,415.2z M1065.5,358.4c-0.3,1.9-0.6,3.2-0.7,4.5
			c-0.2,2.5-0.4,5-0.5,7.5c0,1.5,0.4,3,0.6,4.9c12.7-2.4,25-4.8,37.3-7.2C1090.2,364.4,1078.1,361.5,1065.5,358.4z M864.6,329.3
			c0.1,0.1,0.3,0.2,0.4,0.3c0.3-0.2,0.5-0.3,0.8-0.5c4.7-3.9,9.4-7.7,14.1-11.6c4.9-4.1,9.8-8.3,14.6-12.5c0.7-0.6,1.2-1.3,1.9-2.2
			c-3.8-3.3-7.1-6.6-11.6-9C878,305.7,871.3,317.5,864.6,329.3z M739.1,346.5c-0.7,3.5-1.3,6.5-1.9,9.5c-0.3,1.5-0.4,3.1-0.5,4.9
			c1.4,0.1,2.6,0.2,3.8,0.2c9.8-0.2,19.6-0.3,29.4-0.5c1.1,0,2.2,0,3.3,0c1-0.1,1.9-0.3,2.9-0.4c0-0.2,0-0.3,0.1-0.5
			C763.9,355.4,751.9,350.4,739.1,346.5z M831.3,315.7c0.2-0.7,0.4-1.4,0.5-2.2c0.8-4.3,1.6-8.7,2.4-13.1c1.2-6.8,2.5-13.6,3.7-20.5
			c0.2-1,0.6-2.2-0.7-3.3c-4.4,0.1-9-0.3-14,0.3C825.3,290.3,828.5,302.9,831.3,315.7z M1142.9,459.6c5.8,0.8,11.1,1.5,16.4,0.8
			c-0.1-4.1-5.3-33.2-6.4-36.1C1149.6,436.1,1146.3,447.5,1142.9,459.6z M1125.6,197.8c-2.7-0.8-5.4-1.6-8.2-2.3
			c-1.3-0.4-2.6-1.1-3.9-0.9c-3.4,0.4-6.8,1.1-10.1,1.7c-0.7,0.1-1.3,0.5-2,0.9c0.3,1.4,0.7,2.5,0.9,3.7c0.4,2.3,1.2,4.3,3.1,5.8
			c0.6,0.5,1,1.4,1.2,2.1c0.4,1.8,0.7,3.6,1.1,5.4c0.2,1,0.6,2,0.9,3.1c0.8-0.4,1.2-0.7,1.6-0.9c5-3.7,9.2-8.2,12.9-13.2
			C1124.3,201.6,1125.7,200.3,1125.6,197.8z M794.6,327.1c0.1-0.1,0.3-0.2,0.4-0.3c-0.2-0.4-0.3-0.9-0.6-1.3
			c-5.6-9.7-11.2-19.4-16.9-29.1c-0.5-0.8-1.3-1.4-2.1-2.3c-4,2.9-7.8,5.7-11.2,9.5C774.4,311.9,784.6,319.4,794.6,327.1z
			 M1114.4,408.2c-0.1-0.2-0.2-0.3-0.3-0.5c-0.9,0.4-1.8,0.8-2.6,1.3c-4.9,2.8-9.8,5.5-14.6,8.3c-3.6,2-7.1,4.1-10.6,6.2
			c-1,0.6-2.2,1.2-2.6,2.6c3,4.2,6.9,7.6,10.8,11.6C1101.5,427.9,1107.7,417.9,1114.4,408.2z M915.3,408.4
			c-7.5-2.7-31.3-8.8-33.5-8.6c8.9,6.9,17.3,13.8,26.3,20.3C911.3,416.4,913.1,412.4,915.3,408.4z M891.5,355.7c0,0.2,0,0.4,0.1,0.7
			c10.5-0.9,21.1-0.3,31.8-1.4c-0.5-3.4-0.8-6.5-2.1-9.7C911.2,348.7,901.3,352.2,891.5,355.7z M857.2,335.3
			c0.1,0.1,0.3,0.3,0.4,0.4c1.7-1.2,3.5-2.2,4.6-4c2.3-3.9,4.5-7.9,6.7-11.8c4.2-7.4,8.4-14.9,12.6-22.3c0.8-1.5,1.5-3.1,2.4-4.9
			c-1.2-0.6-2.2-1.2-3.2-1.7C872.8,305.9,865,320.6,857.2,335.3z M854.6,369.7c0.1,0.2,0.2,0.4,0.3,0.6c0.4,0.1,0.8,0.3,1.2,0.3
			c7,0.4,14,0.7,21,1.1c0.6,0,1.2,0,1.8,0.1c4.7,0.3,9.5,0.6,14.2,0.9c2,0.1,4,0.3,6,0.4c1.3,0.1,2.6,0,4,0
			c-0.7-0.3-1.5-0.4-2.2-0.5c-11.8-2.2-23.7-4.4-35.5-6.6c-0.7-0.1-1.5-0.2-2.2,0c-2.4,0.8-4.7,1.7-7.1,2.6
			C855.5,368.9,855.1,369.4,854.6,369.7z M940.6,394.7c0.1,1.5,0,2.6,0.3,3.6c1.4,4.5,4.5,7.4,9,8.7c2.3,0.7,4.4-0.5,5.2-2.7
			c0.6-1.8,1.1-3.7,1.7-5.5c0.6-2.1,0.6-2.3-1.7-3.8C950.5,397.6,945.7,397.2,940.6,394.7z M1118.5,403.5c0.6,0,0.8,0.1,0.9,0.1
			c4.7-2.7,9.5-5.3,14.1-8.1c1-0.6,1.8-1.5,2.4-2.4c1.3-2.2,2.4-4.6,3.5-6.9c0.2-0.5,0.3-1,0.5-2c-2.4,0.9-4.4,1.9-6.4,2.4
			c-3.8,1.1-6.5,3.4-8.4,6.9C1123.2,396.8,1120.8,400,1118.5,403.5z M1153.3,419.3c0.2-0.6,0.4-0.9,0.5-1.1c0.9-3,1.7-6,2.6-8.9
			c2.1-6.7,2.2-6.7-0.4-13.2c-0.6-1.6-1.3-3.1-2.1-5.1c-1.4,3.4-2.7,6.3-3.9,9.3c-0.2,0.6-0.3,1.3-0.2,1.9c0.9,5.4,1.9,10.7,2.9,16
			C1152.9,418.4,1153,418.7,1153.3,419.3z M972.3,407.8c-2-1.3-3.6-2.2-5-3.2c-1.5-1.1-2.9-2.3-4.7-3.7c-0.6,1.9-1.2,3.3-1.6,4.8
			c-0.8,2.7,0.2,4.5,2.9,5.5c3.5,1.3,6.7,0.6,10-0.9c2.1-0.9,4.1-1.7,5-4.3c1-2.9,0.8-4.3-2.1-5.9c-1.6,1.1-2.2,2.6-1.6,4.5
			C974.2,405.7,973.4,406.6,972.3,407.8z M815.7,351.5c0.2-0.1,0.4-0.2,0.5-0.4c-0.6-1.8-1.4-3.5-1.9-5.3c-0.7-2.4-2.1-4.1-4.1-5.5
			c-2.1-1.5-4.1-3.1-6.2-4.7c-1.3-1-2.6-1.9-3.9-2.8c1.7,3.9,4,7.3,5.6,11C807.9,348.4,812.2,349.2,815.7,351.5z M955.1,375.8
			c-0.5-1.9-0.9-3.8-1.4-5.6c-0.9-3.3-2.4-4.1-5.5-2.8c-0.5,0.2-1.1,0.5-1.6,0.7c-3.1,1.6-4.4,2.7-3,8.1
			C947.3,375.8,951,377.1,955.1,375.8z M1131.7,369.9c-3.5-1.7-6.4-3.1-9.3-4.4c-0.5-0.2-1.3-0.1-1.9,0c-4.1,0.8-8.2,1.6-12.7,2.5
			c1,0.3,1.7,0.6,2.4,0.8c3.4,0.9,6.9,1.6,10.2,2.7C1124.3,372.8,1127.7,371.7,1131.7,369.9z M783.7,361.5c3.5,1.4,6.9,2.7,10.3,4
			c1.1,0.4,2.2,0.8,3.3,1.2c0.3,0.1,0.7,0.2,1,0.1c3.2-0.6,6.3-1.2,9.5-1.8c0-0.2,0.1-0.3,0.1-0.5c-1.7-0.9-3.4-1.7-5-2.6
			c-1.7-0.9-3.4-1.4-5.3-1.3c-4.5,0.2-9,0.4-13.5,0.6C784,361.2,784,361.3,783.7,361.5z M1176.5,351.8c-5.2,0.5-10.8,3.3-13.2,6.4
			c0.7,1.4,1.4,3.1,2.4,4.5c1.1,1.5,2.5,1.3,3.7-0.2c1.6-2,3.2-3.9,4.6-5.9C1174.9,355.2,1175.5,353.7,1176.5,351.8z M831.3,321.8
			c-0.2,0.5-0.3,0.8-0.4,1c-0.6,3.1-1.2,6.2-1.9,9.3c-1.2,5.8-1.2,5.8,1,11.3c0.2,0.5,0.6,0.9,1.1,1.8c1.1-3.1,2-5.8,2.9-8.5
			c0.2-0.5,0.1-1.2,0-1.7C833.1,330.7,832.2,326.4,831.3,321.8z M1124.3,364.7c-0.1,0.2-0.1,0.4-0.2,0.5c2.7,1.2,5.4,2.5,8.2,3.7
			c0.4,0.2,1,0.3,1.5,0.2c2.7-0.9,5.5-1.9,8.3-2.9c-0.6-1.5-1-2.7-1.5-4.1C1135,362.5,1129.7,364,1124.3,364.7z M1179.3,391
			c0.1-0.1,0.3-0.2,0.4-0.3c-2.7-4.6-5.4-9.3-8.1-14.1c-1.5,0.6-2.7,1.1-4.2,1.6c0.6,1.6,1.2,3,1.6,4.4c0.9,3.5,2.7,5.9,6.4,6.7
			C1176.8,389.7,1178,390.5,1179.3,391z M915.2,152.3c-6.3-0.7-12.3,0.5-18.4,1.7c-1.5,0.3-2.6,1.3-2.9,3c1.5,0.7,2.7,0.3,3.9-0.3
			c2.6-1.3,3.2-1.2,5.3,0.6C908.1,157.9,911.4,154.5,915.2,152.3z M1171.7,388.7c0.7,3.9,1.3,5,3.9,6.8c0.9,0.7,1.8,1.4,2.8,2.1
			c2.6,1.9,5.2,3.8,7.8,5.6c0.2-0.1,0.3-0.3,0.5-0.4c-1.5-2.7-3-5.3-4.6-7.9c-0.6-1-1.4-2-2.3-2.5
			C1177.3,391.1,1174.7,390,1171.7,388.7z M886,262.9c4.5-8.6,8.8-16.9,13.1-25.3c-0.9,0.3-1.5,0.8-2,1.4c-1.7,2.1-3.4,4.1-4.8,6.4
			c-1.2,1.8-2.2,3.7-2.9,5.8c-0.4,1.3-1,2.4-1.9,3.4c-1.7,1.9-3.2,4-4.1,6.4C884.4,261.6,885.1,262.2,886,262.9z M792.1,391.8
			c0.1,0.2,0.2,0.4,0.3,0.5c2.4-0.8,4.8-1.8,7.3-2.4c4.7-1.1,6.5-5.1,9.1-8.3c-2.4,0.3-4.9,0.2-6.9,1.8c-1.8,1.5-3.6,2.9-5.4,4.4
			C795,389.1,793.6,390.5,792.1,391.8z M967,370.8c2.8-2.2,4.7-4.8,6.7-7.7c-3.4-1.5-6.5-2.2-10.2-0.5
			C965,365.3,964,368.7,967,370.8z M1181.5,371.8c-4.6-2.1-8.6-4-12.7-5.8c-0.1,0.1-0.3,0.2-0.4,0.4c0.4,0.7,0.8,1.5,1.3,2.3
			c0,0.1-0.1,0.5-0.2,0.8c-0.6,3.9,2.2,6.2,5.8,4.8C1177.2,373.5,1179,372.8,1181.5,371.8z M1156.8,343.2c-1.9,2.1-3.3,4.1-2.8,6.5
			c0.5,2.5,1.8,4.8,2.8,7.4c1.4-0.6,2.6-1.1,4-1.7C1160.2,351,1158.3,347.3,1156.8,343.2z M1137.5,393c3.2-1.6,6.5-2.7,9.1-5.1
			c-0.4-2-0.7-3.9-1.1-6.2c-1.6,0.8-3.2,1.1-3.8,2.1C1139.8,386.5,1138.3,389.5,1137.5,393z M1147.6,388.6c0.6,3.5,1.2,6.8,1.7,10.1
			c1.4-2.3,2.2-4.7,3.4-6.8c1.1-2,0.6-3.6-0.5-5.5C1150.7,387.1,1149.3,387.8,1147.6,388.6z M941.3,392.2c3.9,2.3,7.7,2.9,11.9,0.9
			c-1.2-1.8-2.5-2.9-4.7-2.7c-1.2,0.1-2.5,0-3.7,0.1C943.5,390.5,942.1,390.7,941.3,392.2z M764,293.6c4-2.9,7.8-5.7,11.7-8.5
			c-1.5,0-3,0-4.5,0c-0.1-0.2-0.1-0.3-0.2-0.5c-2.6,1.9-5.2,3.9-7.7,5.7C763.6,291.6,763.8,292.4,764,293.6z M1136.8,350.3
			c-0.9-2.5-1.2-4.9-2.5-6.4c-1.8-2.1-4.3-3.6-7.3-5.2c2.1,3.5,3.9,6.5,5.7,9.5C1133.5,349.5,1134.8,350,1136.8,350.3z M887.1,359.7
			c0.5,0.3,0.6,0.4,0.7,0.4c11.6,0,23.3,0.3,34.9-0.5c0.3,0,0.6-0.3,0.9-0.4c0-0.2-0.1-0.5-0.1-0.7
			C911.5,359,899.5,359.2,887.1,359.7z M944.4,410.3c-1.2-0.1-2.1-0.2-3.2-0.3c-0.1-0.8-0.1-1.6-0.2-2.5c-0.9-0.2-1.8-0.3-2.6-0.5
			c-0.1-1.4-0.3-2.3-1-3.3c-0.8,2.3-1.6,4.3-2.5,6.6c3.2,0.7,6,1.4,8.9,2C944.1,411.6,944.2,411.1,944.4,410.3z M860.9,389.7
			c-2.9-4.7-7.8-4.8-11.9-6.6c-0.7,0.8-1.3,1.5-2.2,2.4C851.7,387,856.1,388.3,860.9,389.7z M1127.1,372.6c0,0.2,0.1,0.3,0.1,0.5
			c2.4,0.6,4.8,1.2,7.2,1.8c2.5,0.6,2.8,0.4,3.9-2.4c-1.7-0.7-3.3-2-5-1.9C1131.2,370.7,1129.2,371.9,1127.1,372.6z M882.4,456.8
			c5.1-2.8,9.5-5.7,13.5-9.1c-4.2-1.2-6.9,1.2-9.6,4C886.7,454.2,883.5,454.4,882.4,456.8z M1172,365.6c-0.1,0.3-0.2,0.5-0.3,0.8
			c3.4,1.5,6.8,3.1,10.2,4.6c0.5,0.2,1.3,0.1,1.9,0c1.2-0.4,2.3-0.9,3.5-1.4c0-0.1,0-0.3,0-0.4
			C1182.3,367.9,1177.1,366.8,1172,365.6z M878.1,384.7c8.8,1.6,17.5,4.1,26.6,2.3C895.9,386.3,887,385.5,878.1,384.7z
			 M1151.9,385.3c-0.6-1.8-1.1-3.5-1.7-5.4c-1.3,0.6-2.3,1-3.5,1.5c0.3,2.1,0.5,4.1,0.8,6.4C1149.1,386.9,1150.4,386.2,1151.9,385.3
			z M860,335.7c-4.5,2.3-6.7,6.1-8,10.6c1.1-0.4,2.2-0.8,2.7-1.7C856.6,341.8,858.2,338.7,860,335.7z M950.3,357.2
			c-2.7,0.2-5.1,0.4-7.5,0.6c0.1,1.9,0.3,3.6,0.4,5.7c0.3-0.8,0.5-1.3,0.7-1.8c0.8,0,1.5,0,2.3,0c0.3-0.9,0.5-1.8,0.8-2.7
			c0.9,0.3,1.6,0.5,2.6,0.8C949.9,358.9,950.1,358.1,950.3,357.2z M1163.7,387.4c2.7,1.8,5.1,3.5,7.6,5.1c0.1-0.1,0.3-0.3,0.4-0.4
			c-0.6-1.5-1.2-3-1.8-4.5c-1.9-0.7-3.6-1.4-5.4-2.1C1164.3,386.2,1164.1,386.7,1163.7,387.4z M860,364c1.3,0.2,2.7,0.8,3.8,0.5
			c2.8-0.6,5.5-1.7,8.2-2.5C867.9,362.3,863.6,360.3,860,364z M866.6,297.5c0.2,0.1,0.3,0.2,0.5,0.3c2-3.7,4-7.4,6.1-11.3
			c-1-0.3-1.6-0.4-2.2-0.6C869.5,289.9,868.1,293.7,866.6,297.5z M1195,371.3c-3.7-2.1-7.2-1.6-10.9,0.8
			C1188.1,373.3,1191.5,371.6,1195,371.3z M800.6,367.5c2.5,1.5,4.6,2.2,7,2.6c0.2-1.4,0.3-2.5,0.5-4.1
			C805.5,366.6,803.3,367,800.6,367.5z M834.9,339.1c-0.2,0-0.4,0-0.6,0.1c-0.7,2.2-1.4,4.3-2.2,6.8c1.5,0.2,2.7,0.4,4.1,0.6
			C835.8,343.8,835.3,341.5,834.9,339.1z M1166.8,379.2c-0.2,0-0.4,0-0.7,0c-0.5,1.6-0.9,3.3-1.4,5.2c1.5,0.7,2.7,1.3,4,1.9
			c0.2-0.2,0.3-0.3,0.5-0.5C1168.4,383.6,1167.6,381.4,1166.8,379.2z M1138.4,352.7c0.9,2.8,1.6,5,2.4,7.1c0.4,1,1.4,1,2.7,0.6
			c-1-2.3-1.8-4.5-2.9-6.7C1140.5,353.2,1139.6,353.2,1138.4,352.7z M820.9,349.1c-1.6-2.1-3.7-3.3-5.9-4.4c0.9,2.2,1.7,4.3,2.7,6.7
			C818.9,350.6,819.8,349.9,820.9,349.1z M809.6,349.3c-0.1,0.1-0.3,0.2-0.4,0.3c1.1,2,2.2,4,3.6,6.4c1.1-1.3,1.9-2.2,2.9-3.3
			C813.6,351.5,811.6,350.4,809.6,349.3z M845.3,405.3c-0.7-3,0.1-6.6-3.6-8.6C841,400.5,843.7,402.7,845.3,405.3z M1137.9,375.1
			c0.1,0.3,0.1,0.5,0.2,0.8c1.9,0.4,3.8,0.7,5.7,1c0.2,0,0.4-0.6,0.9-1.2c-1.7-0.9-3.2-1.7-4.9-2.7
			C1139,373.9,1138.4,374.5,1137.9,375.1z M987.3,393.1c-4.2-0.7-5.1-0.5-6.1,1.9c1.7,1,4.4,1,5.6,0
			C987,394.4,987.1,393.8,987.3,393.1z M824.2,391.3c-1.8,2.2-1.2,4.5-1.1,7.4c1.4-2.5,2.6-4.5,3.8-6.7
			C825.8,391.8,825,391.6,824.2,391.3z M861.5,388.2c0.7,1.7,2,2.4,3.7,2.7c1.6,0.3,3.1,0.8,4.6,1.2
			C867.7,389.2,864.5,388.8,861.5,388.2z M1139.2,371.9c0.8-1.6,2.5-2.4,2.8-4.6c-2.5,0.9-4.7,1.7-7.2,2.6
			C1136.4,370.6,1137.6,371.2,1139.2,371.9z M848.7,353.7c0.3,0.1,0.6,0.1,0.9,0.2c1.2-2.1,2.5-4.2,4-6.7c-2.9,0.7-4.2,2.4-5,4.6
			C848.3,352.3,848.6,353.1,848.7,353.7z M830,346.3c-0.8-2.2-1.4-3.9-2.1-5.7c-0.2,0-0.3,0-0.5,0c-0.3,1.9-0.7,3.9-1.1,6.1
			C827.7,346.6,828.7,346.5,830,346.3z M808.5,363.1c0.5-1.1,0.8-1.9,1.2-2.9c-2.4,0-4.3,0-6.3,0c0,0.1-0.1,0.2-0.1,0.4
			C805,361.3,806.6,362.1,808.5,363.1z M1068.9,320.8c-0.6,1.3-1.3,2.5-1.9,3.8c0.9,0.4,1.6,0.7,2.4,1c0.6-1,1.2-2,1.8-3
			c-0.5,0.4-1.1,0.9-1.6,1.3C1069.4,323.1,1069.2,322.2,1068.9,320.8z M854.7,368.1c2.4-0.9,4.4-1.6,6.8-2.6
			C856.9,364.5,855.4,365,854.7,368.1z M843.9,397.1c-0.6-2.8-1.1-5.2-1.7-8.3C840.8,392.7,841.3,394.8,843.9,397.1z M1136.5,345.6
			c0.1,3.3,1.2,5.5,3.1,6.2C1139.3,349.4,1138,347,1136.5,345.6z M1134.6,350.9c1.5,2.5,2.8,4.6,4.1,6.7c0.2-0.1,0.3-0.2,0.5-0.3
			C1137.9,355.2,1138.6,351.8,1134.6,350.9z M859.8,361.7c-2.2,0-4,0-6.1,0C855.9,363.5,857.3,363.6,859.8,361.7z M872.3,391.6
			c-0.1,0.1-0.2,0.3-0.3,0.4c1.9,1.3,3.9,2.3,6.3,2.3c0.1-0.2,0.1-0.3,0.2-0.5C876.5,393,874.4,392.3,872.3,391.6z M1155.4,383.3
			c-1.2-0.8-2.1-1.7-3.7-1.4c0.4,1,0.8,1.8,1.2,2.8C1153.9,384.2,1154.6,383.7,1155.4,383.3z M1242.3,416.4c-1,2.2,1.3,1.8,1.8,3.4
			c0.6-1.2,0.9-1.9,1.3-2.7C1244.2,416.8,1243.3,416.6,1242.3,416.4z M866.9,360.1c4.4,0.9,8.1,0.7,9.1,0
			C873.1,360.1,870,360.1,866.9,360.1z M1158.8,345.4c0.2-0.1,0.3-0.1,0.5-0.2c-0.2-1.7-0.5-3.5-0.8-5.5
			C1156.3,342.1,1158.4,343.7,1158.8,345.4z M1182.3,346.2c-2.9,0.6-3.4,1.2-3.1,3.6C1180.4,348.5,1181.3,347.4,1182.3,346.2z
			 M1030.5,387.6c-3.5-0.4-4.4-0.4-5.9,0.5C1026.3,388,1028.2,389.1,1030.5,387.6z M1156.8,339.8c1.7-2.5,1.7-2.6,0.5-5.2
			C1157.2,336.4,1155.8,337.8,1156.8,339.8z M1101.6,454.3c-0.1,0.2-0.2,0.4-0.3,0.6c1.7,0.9,3.3,1.9,5,2.8c0.1-0.2,0.2-0.3,0.3-0.5
			C1105.3,455.6,1103.5,454.8,1101.6,454.3z M1145.6,380.8c-0.4-1-0.7-1.6-1-2.3c-0.2,0-0.4,0-0.6,0c-0.4,0.9-0.9,1.8-1.5,3.1
			C1143.8,381.4,1144.5,381.2,1145.6,380.8z M1120.5,262.7c-0.1,0-0.2,0.1-0.3,0.1c0.3,1.2,0.6,2.3,0.9,3.7c0.8-0.4,1.2-0.7,1.8-1
			C1122,264.5,1121.2,263.6,1120.5,262.7z M1164.6,381.4c-0.1-0.1-0.2-0.2-0.3-0.4c-1,0.5-2,0.9-3.4,1.6c1.2,0.4,1.9,0.7,2.8,1
			C1164.1,382.8,1164.4,382.1,1164.6,381.4z M840.3,396.7c-0.2-2.6-0.5-3.1-3-4.5C838.4,393.8,839.2,395.1,840.3,396.7z
			 M1154.2,388.4c0.6-1.5,1-2.5,1.4-3.5c-0.1-0.1-0.2-0.2-0.3-0.3c-0.6,0.4-1.3,0.7-2.1,1.2C1153.5,386.6,1153.7,387.2,1154.2,388.4
			z M974.4,371c0.2,0.1,0.3,0.3,0.5,0.4c1.2-1.4,2.4-2.7,3.5-4.1c-0.2-0.1-0.3-0.3-0.5-0.4C976.7,368.2,975.5,369.6,974.4,371z
			 M1140.2,372.3c0.9,0.3,1.5,0.5,2.4,0.7c-0.2-0.8-0.2-1.2-0.3-1.6c-0.1-0.4-0.3-0.9-0.4-1.4c-0.3,0.3-0.5,0.5-0.7,0.6
			C1140.9,371.1,1140.7,371.5,1140.2,372.3z M879.4,360c0,0.2,0.1,0.5,0.1,0.7c1.9-0.2,3.7-0.3,5.6-0.5c0-0.2,0-0.3,0-0.5
			C883.1,359.8,881.3,359.9,879.4,360z M1157.2,357.8c2.8,1.1,2.9,1,3.1-1C1159.5,357.1,1158.6,357.3,1157.2,357.8z"/>
	</g>
	<g>
		<path fill="#191919" d="M2295.1,328.5c-2.9-2.4-5.7-4.7-8.6-7.1c-14.1-11.4-27.2-23.9-39.6-37c-3-3.2-6.2-6.2-9.1-9.4
			c-13.3-15-26-30.5-36.5-47.6c-5.5-8.9-8.6-18.6-9.9-28.8c-1.4-10.8-2.5-21.7-3.6-32.6c-0.7-7.7-1.1-15.5-1.7-23.2
			c-2.2-25.7-1.6-51.5-1.6-77.3c0-0.6-0.1-1.1-0.2-2.6c-1.9,2.4-1.5,4.5-1.6,6.4c-0.1,2.2,0,4.3,0,6.5c0,2.2,0,4.3-0.7,6.8
			c-0.6-1.1-1.6-2.2-1.7-3.3c-0.4-7.5-3.9-13.8-7.6-20c-2.8-4.8-2.6-6,0.7-10.4c2.1-2.8,4.5-4.6,7.7-5.8c5.1-2,10.4-3.1,15.8-4
			c8.5-1.3,17-1.1,25.5-2.2c0.7-0.1,1.8-0.2,2.4-0.2c15.7-0.3,31.4-0.2,47.1-1.1c18.3-1.1,36.6-0.5,54.9-0.6c13,0,25.9,0.4,38.9,0.9
			c10.6,0.4,21.3,0.9,31.9,1.7c12.6,1,25.2,2.1,37.8,3.5c15.4,1.7,30.7,4.3,45.9,7.9c14.4,3.4,28.3,8.5,41.4,15.6
			c4.7,2.5,9.1,5.5,13.4,8.6c6,4.3,15.6,11.6,21.4,16.1c2.3,1.8,4.6,3.7,6.8,5.7c6.2,5.6,12.2,11.3,18.3,16.9
			c4.9,4.6,10,9,14.8,13.7c3.1,3,5.8,6.4,8.8,9.5c1.8,1.8,3.9,3.3,6.3,5.4c-4.6,2.2-8.3-1.1-12.4,0.6c-4.4,5.2-2.3,11.5-2.4,17.2
			c2.5,0.8,4.5,1.5,6.5,2c1.8,0.5,3.6,0.9,5.5,1.1c3.6,0.4,7.1,0.7,10.7,0.9c1.8,0.1,2.9,1,3.6,2.6c2.4,5.5,2.5,5.5,9,6.6
			c0.1-0.5,0.3-1,0.4-1.5c0.1-0.5,0.1-1.1,0.2-1.8c1.1,0.3,2,0.2,2.6,0.7c4.9,3.8,10.7,5.7,16.3,7.9c0.4,0.2,0.8,0.3,1.2,0.4
			c5.7,2.7,7.4,5.5,7,12c3.4,2.5,6.9,5,10.2,7.8c2,1.7,4.3,3.6,2.7,6.8c-4.6,2.4-9-0.7-13.4-0.8c-0.1,0.3-0.2,0.6-0.3,0.9
			c1,0.6,2,1.3,3,1.9c8.3,4.6,16.8,8.9,24.9,13.7c7.3,4.4,14.3,9.2,21.2,14.2c4,2.9,7.8,6.4,11.1,10.1c3.1,3.4,4.1,7.8,2.8,12.5
			c-0.4,1.4-0.4,2.8-0.7,4.3c0.5,0.3,1,0.9,1.5,0.9c2.5,0.1,4.2,1.2,5.6,3.4c1,1.5,2.5,2.8,4.1,3.8c2.4,1.5,2.9,3.7,2.2,6
			c-1.9,6-4.3,11.8-8,17.7c10.7,5.5,21.4,11.1,30.6,19.3c-0.1,0.9-0.2,1.9-0.4,3c3.8,3.6,7.7,7.2,11.4,10.9c1.5,1.5,2.4,3.6,3.8,5.2
			c4.7,5.3,7.6,11.8,10.4,18.2c3.1,7.1,4.8,14.6,5.6,22.4c1.2,11.9-0.6,23.3-5,34.2c-10.8,26.5-31.6,41.3-58.6,48.5
			c-6.7,1.8-13.5,3.1-20.4,3.2c-18,0.4-33.6-5.9-47-17.6c-10.5-9.1-18.9-19.8-24.5-32.6c-0.3-0.7-1-1.3-1.6-2.2
			c-7.3,3.3-14.6,6.5-21.7,9.8c-6.9,3.1-13.8,5.8-21.4,6.3c-6.3,0.4-12.7,0.9-19,0.8c-18.7-0.1-37.5-0.4-56.2-0.9
			c-16.7-0.4-33.4-1.1-50.1-1.7c-17.1-0.6-34.3-1.2-51.4-1.8c-16.6-0.6-33.1-1.1-49.7-1.7c-17.3-0.6-34.6-1.2-51.9-1.8
			c-16.4-0.6-32.8-1.3-48.6-1.9c-2.4,1.3-4,2.3-5.8,3.3c-1.3-1.4-2.2-2.4-3.2-3.5c-11.9-0.4-23.8-0.8-35.8-1.3
			c-1.3,2.6-2.5,4.7-3.5,6.9c-6,13.5-13.2,26.3-23,37.4c-11.6,13.1-26.2,20.9-43.6,23.4c-11.7,1.6-23.3,1.4-34.6-2.3
			c-12.6-4.1-24-10.5-34.2-18.9c-9.3-7.6-16.9-16.5-22.1-27.4c-4.1-8.7-6.4-17.9-7.4-27.4c-0.7-6.7-0.9-13.5-1.4-20.3
			c-2.2-1.3-4.5-2.8-6.9-4c-2.9-1.5-4.3-4-4.5-7.1c-0.3-4.9-1-9.8-2.6-14.5c-1.3-4.1-1.2-9-0.7-13.4c0.6-4.2,0.6-8.3-0.6-12.4
			c-0.4-1.5-0.9-2.9,0.1-4.6c5.2,8.1,4.6,16.9,5.4,25.7c0.8-2.2,1.4-4.5,2.3-6.6c3.8-8.8,9.5-16.3,15.9-23.3
			c1.5-1.6,2.1-4.4,5.2-3.9l0-0.1c0.6,1.3,1.3,2.5,1.9,3.8c-4.6,5.1-9.4,10.2-12,16.8c4.7-5.4,8.9-11.3,14.1-16.1
			c5.3-5,11.3-9.4,17.6-13.2c6.2-3.8,13.1-6.4,19.9-9.7c-1.3-2.1-2.6-4.4-0.7-7c2.9,1.1,3.1,3.5,2.9,6.5c12.6-2.3,24.9-4.2,37.7-2.4
			c12.8,1.9,24.6,5.9,35.7,12c11.1,6.1,20.5,14.4,28.5,24.2c8.1,9.9,13.9,21.2,18.4,33.6c5.6,0,11.2,0,16.9,0
			c-4.8-1.5-9.8-0.3-15.1-1.1c-1.2-2.4-2.8-4.9-3.6-7.7c-2.1-6.6-5.6-12.3-9.5-18c-1.2-1.7-1.9-3.7-2.3-5.8
			c-1.8-1.5-3.7-3.1-5.6-4.7c1.6-2,2.7-1.1,3.8-0.1c3.2,2.9,5.9,6.1,7.2,10.4c0.4,1.4,1.3,2.6,2.5,3.4c1.4,1.5,3,2.9,4.1,4.5
			c2.5,3.8,3.9,5.4,8.2,8.5c2.5-0.5,5.1-0.9,7.5-1.7c1.1-0.4,2.4-1.7,2.8-2.9c1.8-4.9,3.3-10,4.9-15.1l-1-20.2
			c1.5,0.8,2.5,1.1,3.3,1.7c3.1,2.4,5.8,5.3,9.2,7.1c3.8,2.2,7.9,3.7,11.2,6.7c1,0.9,2.6,1.1,4.3,1.7c1,3.7,4.9,3.4,7.8,5v3.4
			c4.2,1.1,7.6,4.2,12.2,3.5c1.5-2.9,1.5-2.9-1.3-5c0.4-2,1.6-2.5,3.4-1.8c1.2,0.5,2.3,1.3,3.5,1.8c3.7,1.5,7.4,3,11.1,4.4
			c0.5,0.2,1.3-0.2,3-0.6c-4.7-2.2-7.6-3.6-11.1-5.4c-1.9-1-5-2.7-6.9-3.9c-2.7-1.7-5.4-3.5-8-5.4c-1.1-0.8-1.9-1.9-2.8-2.9
			c0.2-0.3,0.4-0.5,0.6-0.8c0.8,0.5,1.6,1,3,1.8c0.3-0.6,0.7-1.3,0.9-1.6C2290.9,326.8,2293,327.6,2295.1,328.5
			c4.6,5.2,11.1,6.5,17.2,8.4c-0.4-0.7-1-1.1-1.6-1.3c-3.9-1.8-7.8-3.7-11.7-5.5C2297.7,329.5,2296.4,329,2295.1,328.5z
			 M2354.1,149.8c0.2,2.4,0.4,4.2,0.6,6.1c0.6,8.8,1.2,17.5,1.9,26.3c0.1,1.2,0.7,2.5,1.4,3.5c4.1,6.6,8.4,13.1,12.3,19.8
			c4,6.8,6.3,14.1,6.2,22.2c-0.1,11-0.4,21.9-1.4,32.8c-0.9,9.1-2.1,18-5.2,26.6c-0.1,0.2,0.2,0.5,0.5,1c2.9-2.6,7.9,0.1,9.9-4.4
			c0-1.9-0.4-4.5,0.6-5.6c4.4-4.9,9.3-9.4,14-13.9c0.2-0.2,0.6,0,0.6-0.1c3.8,3.6,7.4,7.2,11.5,11.1c-2.6,2.8-5.1,5.5-8,8.6
			c5-0.3,9.1-0.5,13.3-0.9c12.2-1,24.4-2.5,36.6-3c11.7-0.5,23.4-0.3,35-0.1c4.3,0.1,8.6,0.9,12.8,1.8c4.6,1,8.5,3.4,11.5,7.2
			c1,1.3,2.5,2.3,3.7,3.6c1.8,1.8,3.8,3.6,5.2,5.7c3.2,4.9,4.6,10.5,5.4,16.3c0.3,1.7-0.3,3.7-0.9,5.4c-0.8,2.4-1.9,4.7-3,7.4
			c10.3,0.8,20,1.5,29.8-0.5c6.5-1.4,11.4-4.7,15-10.1c3.7-5.5,7-11.3,10.2-17c1.6-2.7,2.7-5.7,4.1-8.6
			c5.1-10.6,10.5-21.1,15.3-31.9c6.3-14,7.1-28.4,1.6-42.9c-1.3-3.4-2.5-6.7-3.9-10.1c-3-7.2-6.2-14.3-9.1-21.5
			c-1.3-3.3-1.7-3.8-5.3-3.6c-5.6,0.3-10.1,2.6-13.6,7.2c-3.1,4.1-6.6,8-10.2,11.8c-1.3,1.4-3.1,2.4-4.7,3.6
			c-1.5-0.9-2.7-1.5-3.7-2.3c-7.7-5.6-14.3-12.5-20.7-19.5c-3-3.3-4.9-7.3-8.6-10.1c-3.2-2.4-2-7.3,1.9-9.2c1.1-0.6,2.4-0.8,3.7-1.3
			c0.6-2.4,1.1-4.6,1.7-6.9c0.8-0.5,1.8-1,2.5-1.6c3.7-3,8.3-4.7,11.1-8.8c3-4.4,6.7-7.9,12.6-9.5c3.8,1.4,8.2,2.8,12.4,4.6
			c4.4,1.9,8.6,4.1,12.8,6.3c3.9,2.1,7.3,5.1,12.3,7.2c-0.8-1.6-1-2.3-1.5-2.8c-1.9-2.3-3.7-4.8-5.9-6.9
			c-17.2-16.4-34-33.3-52.8-47.9c-10.8-8.4-22.1-15.7-34.5-21.2c-8.9-3.9-18.2-6.5-27.6-8.7c-6.2-1.4-12.4-2.7-18.6-3.6
			c-10.5-1.5-21.2-2.4-31.7-3.8c-14.9-2-29.8-2.7-44.8-3.2c-4.6-0.2-9.2-0.5-13.8-0.7c-2.4-0.1-4.8,0-7.4,0
			c-0.1,1.5-0.3,2.6-0.3,3.7c0.4,6.2,0.7,12.4,1.2,18.5c1,11.8,2.2,23.5,3.1,35.3c0.8,9.9,1.3,19.8,2,29.7c0.1,1.2,0.6,2.6,1.4,3.4
			c2.8,2.7,5.8,5.1,8.7,7.6c0.6,0.5,1.1,1.2,2,2.2C2360.3,155.2,2358.4,150.4,2354.1,149.8z M2311.5,56.4c-3.9-3.4-8-3.5-12.2-3.4
			c-3.5,0.1-6.9,0.4-10.4,0.5c-13.2,0.4-26.5,0.8-39.8,1c-8.4,0.1-16.7,0.4-24.9,2c-6.4,1.2-12.3,3.6-14.9,10.4
			c-1,2.5-1.6,5.3-1.7,8c-0.1,12.1-0.3,24.2,0.1,36.3c0.4,12.4,1.4,24.7,2.3,37c0.6,8.3,1.4,16.6,2.4,24.9
			c0.8,6.7,1.8,13.4,2.8,20.1c1,6.9,2.4,13.7,5.8,19.8c3.7,6.6,7.9,13.1,12.5,19.1c8.3,10.7,16.7,21.3,25.9,31.2
			c10,10.8,20.8,20.8,31.5,30.8c6.7,6.3,14.2,11.7,22.6,15.7c8.6,4.1,17.8,5.6,27.1,6.8c3.2,0.4,6.5,0.5,9.9,0.8
			c0.4-2.5,0.5-4.4-0.5-6.5c-1.8-3.8-0.2-7.5,1.2-11.1c0.4-1.1,1.1-2.2,1.6-3.4c1.9-4.5,0.5-9-0.6-13.2
			c-3.9-15.3-8.4-30.5-12.4-45.8c-2.6-10-5-20.1-7-30.3c-2-10-3.4-20.1-4.9-30.2c-0.8-5.3-1.5-10.5-2-15.8c-0.5-4.7-0.5-9.5-1-14.2
			c-0.7-6.6-1.6-13.1-2.5-19.7c-0.7-5-1.4-10-2.3-14.9c-1-5.5-2.5-10.7-2.5-16.5c0.1-8-1.7-16-2.9-23.9c-0.7-4.7-1.8-9.3-2.8-13.9
			C2311.9,57.4,2311.5,56.6,2311.5,56.4z M2703.4,240.3c-0.1-0.2-0.1-0.4-0.2-0.6c-1.5-0.9-3.1-1.8-4.6-2.7c-0.9-0.5-1.7-1-2.6-1.5
			c-4.8-2.6-9.5-5.3-14.3-7.8c-8.7-4.4-17.4-8.7-26.2-13.1c-3.2-1.6-6.4-3-8.9-4.1c-3.9,1-7,1.7-10,2.7c-2.3,0.8-4.5,2-7.5,3.3
			c-0.1,0-1.1-0.3-2.7-0.8c0.6,2,0.9,3.3,1.4,4.7c1.3,3.7,2.7,7.3,3.9,11c2.2,6.5,2.4,13.3,1.8,20c-0.4,4.6-1.5,9.1-2.2,13.6
			c-0.2,1.5-0.2,3-0.3,4.6c1.8,0.7,3.2,1.3,4.3,1.8c0.7,1.1,1.2,1.8,1.7,2.6c2.3-2.3,4.4-4.3,6.5-6.3c2.8,0.7,2.8,0.7,3.1,5.4
			c0.6,0.1,1.3,0.1,1.1,0.1c2.6-3.3,4.5-6.4,6.9-8.9c3.8-3.8,8.7-3,13.5-2.7c2.3,0.1,4.5-0.1,6.8,0.1c1.5,0.1,3,0.5,4.4,0.9
			c1.5,0.4,2.9,1.3,4.4,1.3c2.8,0.1,5.6-0.3,8.5-0.5c0.2-2.1,0.3-3.8,0.4-5.7c2.1,1.3,4,2.4,5.8,3.5c-1.8-4.6-2.3-8.7,0-12.9
			c2.5-4.5,7.3-4.3,11.4-6.2C2707.7,241.5,2705.5,240.9,2703.4,240.3z M2596.3,355.3c-5,0-9.5,0-14.5,0c0.4,1.4,0.7,2.5,1,3.4
			c-2.1,1.7-4.9-0.4-7.1,1.9c1,0.3,1.5,0.5,2,0.5c7.8,0.3,15.5,0.8,23.3,0.9c10.8,0.1,21.6,0.1,32.4,0c3.9-0.1,7.8-0.4,11.6-1.1
			c3.4-0.6,6.7-1.6,9.8-2.9c3.7-1.6,7.1-3.7,10.5-5.9c1.4-0.9,3.1-2,3.2-4.7c-2.1,0.7-3.8,1.2-5.6,1.7c-0.7-0.5-1.4-1.1-2.1-1.5
			c-3.2-2.2-7-2.8-10.3-1.4c-6.2,2.5-12.4,4.6-19.1,3.8c-1.1,0.9-2.1,1.7-2.8,2.3c-5.8,0.4-11.3,1.2-16.7,1.1
			c-5.3-0.1-10.6-1.5-16.1-0.7C2595.9,353.6,2596.1,354.2,2596.3,355.3z M2335.3,104.9c1,11.2,1.9,22.3,3.1,33.3
			c1.1,10.5,3.6,20.7,9.1,29.9c1,1.8,2,3.6,3,5.4c0.3-0.1,0.6-0.2,0.9-0.3c-0.7-8.8-1.4-17.7-2.1-25.4c-1.4-3.2-5.9-2.9-4.6-7.1
			c1.3-0.1,2.5-0.3,4-0.4c-2.2-28.7-4.4-57.3-6.6-86c-0.8-0.2-1.4-0.4-1.9-0.4c-0.4,0-0.7,0.3-1,0.5c-0.1,0.4-0.3,0.7-0.3,0.9
			c0.4,12.5,0.7,25,1.4,37.5c0.2,4.6-0.2,8.6-4.4,11.3C2335.6,104.1,2335.5,104.5,2335.3,104.9z M2705.8,422.1
			c23.9,1.3,43.9-18.8,44.8-36.7c-4.6-0.6-8.7,0.9-12.8,2c-5.3,10.5-8.5,15.1-20.1,20.7c-1,0.5-2,1.3-2.6,2.1
			C2712,414,2709.1,417.9,2705.8,422.1z M2710.2,335.6c0.1,1.4,0.2,2.5,0.3,3.6c0.5,4,0.8,4.2,4.9,5.4c5.8,1.7,11.1,4.5,14.7,9.2
			c3.2,4.1,6.7,5.9,11.7,5.6c1-0.1,2,0.4,3,0.4c0.9,0,1.8-0.2,2.8-0.3C2743.5,346.2,2723.9,332.9,2710.2,335.6z M2685,404.7
			c-2.7-3.1-5.3-5.7-7.3-8.6c-2-3-3.7-6.2-4.9-9.6c-1.1-3.2-1.4-6.8-2.1-10.5c-1.5,1.6-2.5,2.9-3.7,3.9c-2.1,1.8-2.6,3.9-2.4,6.5
			c0.5,5.9,2.6,11.3,5.9,16.1c2.9,4.2,6,8.4,10.9,11.3C2682.7,410.5,2683.9,407.6,2685,404.7z M2684.1,329.4c0.6-0.1,0.9,0,1.1-0.2
			c5.1-5.5,9-11.8,13.1-18c2.7-4,4.9-8.4,7.9-12.1c4.9-6.3,7.7-13.7,12-20.3c0.8-1.3,1.3-2.9,1.6-4.5c0.2-1-0.2-2.1-0.3-3.2
			c-3.3,1.7-6.1,3.1-9.2,4.7c-2.1,6.1-4.3,12.4-6.5,18.8c-0.3,0.9-0.6,2-1.3,2.7c-3.6,3.9-4.3,9.3-7.3,13.6c-2.4,3.4-4,7.5-6.8,10.7
			c-1.6,1.8-3,3.9-4.3,5.9C2683.9,327.9,2684.1,328.7,2684.1,329.4z M2595.9,326.5c0.3,0.2,0.6,0.4,0.8,0.6c1.5-2.1,2.9-4.2,4.5-6.2
			c5.8-7.2,9.9-15.5,14.2-23.6c3.2-6.1,5.8-12.5,8.6-18.8c1.6-3.5,3.1-7.1,4.5-10.7c0.7-1.7,1-3.3-1.1-4.4c-0.5,0.3-1,0.4-1.1,0.8
			C2617.8,285.7,2607.5,306.4,2595.9,326.5z M2249.8,376.7c0,0.4-0.1,0.8-0.1,1.2c4.3,0.7,8.5,1.7,12.9,2.1c7.2,0.6,14.4,0.7,21.5,1
			c7.5,0.3,14.9,0.6,22.4,0.9c0.6,0,1.1,0.2,1.7,0.2c4.4,0.2,8.9,0.4,13.3,0.6c1.4,0,2.7-0.3,3.3-2.3c-5.1-0.4-10-0.8-14.8-1.1
			c-4.3-0.2-8.7,0-13-0.2c-10.1-0.5-20.1-1-30.2-1.6c-3.6-0.2-7.2-0.6-10.7-0.7C2254.1,376.6,2251.9,376.7,2249.8,376.7z
			 M2252.7,380.8c0.6,2.6,2.5,2.5,4.3,2.6c5.5,0.2,10.9,0.6,16.4,0.8c11.1,0.4,22.1,0.7,33.2,1.1c4.7,0.2,9.5,0.5,14.2,0.8
			c0.8,0.1,1.5,0.6,2.3,0.9c0.8,3.6-1.6,7.2,0.5,10.8c0.9-0.4,1.6-0.7,1.9-0.9c0-2.8,0-5.2,0-7.8c4.6-0.9,4.4-5.6,7.8-8.7
			c-2.8-0.2-4.6-0.3-6.7-0.4c0.2,1.1,0.4,1.9,0.5,2.6c-1.4,2-3,2.9-5.6,2.1c-1.6-0.5-3.4-0.4-5.1-0.4c-3.2-0.1-6.3,0.1-9.5-0.1
			c-8.2-0.5-16.3-1.1-24.5-1.5c-4.9-0.2-9.8,0.1-14.7-0.2C2262.9,382.2,2258,381.4,2252.7,380.8z M2406.3,353.2
			c-0.4-0.3-0.8-0.7-1.1-0.7c-4.9-0.4-9.7-0.7-14.6-1c-2.3-0.1-4.6,0-6.9-0.2c-7-0.5-14-1.4-21-1.5c-8.3-0.2-16.6-0.4-24.9-1.7
			c-3-0.4-6-0.4-9,0.6c2.9,0.9,5.8,1.5,8.7,1.8c6.2,0.4,12.3,0.6,18.5,0.9c0.6,0,1.1,0.2,1.7,0.2c3.9,0.5,7.8,1.5,11.9,0.7
			c1.1-0.2,2.3,0.2,3.4,0.3c3.8,0.4,7.8,1.4,11.5,1.1c6.2-0.6,12.3-1.4,18.3,0.8C2404.2,355.1,2405.6,355.1,2406.3,353.2z
			 M2400,334.7c-0.1-0.3-0.1-0.6-0.2-0.9c-12.9-0.8-25.8-1.5-39.1-2.3c0.3,1,0.4,1.7,0.6,2.3c6.3,0.4,12.5,0.9,18.6,1.3
			c5.6,0.3,11.2,0.6,16.7,0.7C2397.7,335.7,2398.9,335,2400,334.7z M2419.9,303.8c1.5,0,3,0,4.6,0c7.6,0,15.4-0.6,22.9,0.3
			c8.9,1,17.8,1.6,26.7,1.5c1.2,0,2.4-0.2,3.7-0.2C2458.5,302.5,2439.2,303.1,2419.9,303.8z M2480.5,356.6c0,0.4,0,0.8,0.1,1.3
			c7.7,1,15.4,0.6,23.1,1.2c3,0.3,6-0.1,9-0.3c0.3,0,0.5-0.6,1.1-1.5c-9-1.7-17.8,0.3-26.3-1.2c-1.8-0.3-3.7-0.2-5.6-0.2
			C2481.4,355.9,2481,356.4,2480.5,356.6z M2558.8,353.4c0-0.3,0-0.6,0.1-0.9c-6.7-0.3-13.5-1-20.2-1c-6.5,0.1-13.1-2.1-20.4-0.2
			c1.2,0.5,1.5,0.8,1.9,0.8c6.4,0.5,12.7,0.1,19.1,1.5C2545.4,355,2552.2,353.6,2558.8,353.4z M2552.4,360
			c-4.9-2.7-10.2-1.4-15.3-1.6c-5.1-0.2-10.2-2-15.4,0.1c1.3,0.8,2.7,1.4,4.2,1.5c2.7,0.2,5.5-0.2,8.1,0.4c2.1,0.4,3.9,0.4,5.9-0.4
			c1.8-0.7,3.4-0.9,5.3,0.2C2547.4,361.5,2549.9,361.3,2552.4,360z M2319.1,339.2c10.1,3,20.5,4.4,31.2,3.7
			C2339.9,341.7,2329.5,340.5,2319.1,339.2z M2563.5,376.1l0.1-1.2c-1.2,0-2.4-0.1-3.6-0.1c-1,0-2,0.2-3,0.2
			c-3.9-0.1-7.8-0.2-11.6-0.3c-0.7,0-1.4,0.5-2.1,0.8l0.4,1.8C2555,376.6,2552.2,376.8,2563.5,376.1z M2751.4,372.3
			c-4.1-2.1-8.1-1.8-12.1-1.3c-0.1,2.1,0.7,2.6,2.1,2.5c2.7-0.2,5.4-0.4,8.2-0.6C2750.2,372.9,2750.8,372.5,2751.4,372.3z
			 M2313.9,345.2c-0.1,0.4-0.1,0.7-0.2,1.1c3.9,1.8,7.7,3.9,12.2,0.8C2322,346.4,2318,345.8,2313.9,345.2z M2576.6,349.2
			c-2.2,0.5-4.4,0.9-6.5,1.4c-2.2,0.5-4.7-0.6-7.7,1.5C2568,352.3,2572.7,353.4,2576.6,349.2z M2509.7,373
			c4.3,1.5,11.9,1.3,14.6-0.6C2519,372.3,2514.3,371.8,2509.7,373z M2538.5,374.5c0-0.3,0-0.7,0.1-1c-3.4-2.2-6.6-1.4-9.8,1
			C2532,374.5,2535.2,374.5,2538.5,374.5z M2559.7,360.8c4.8,1.6,10.3,1.3,13-0.4C2568,360,2563.9,360,2559.7,360.8z M2516.6,338.5
			c-2.2,3.3-2.1,7.3-0.4,10c0.2-0.9,0.4-1.6,0.4-2.3C2516.6,343.6,2516.6,341.1,2516.6,338.5z M2254.6,385.1
			c-2.6,2.9-2.6,6.7-0.4,8.9C2254.3,390.9,2254.5,388,2254.6,385.1z M2693.3,418.6c2.2-2.6,4.3-5.3,5.4-8.7
			C2695.4,411.9,2694.7,415.5,2693.3,418.6z"/>
		<path fill="#191919" d="M2061.7,148.1c1.3,0.2,1.9,0.3,2.6,0.4c0.2-0.3,0.4-0.5,0.4-0.7c-0.2-7-0.3-14.1-0.9-21.1
			c-0.3-3.1-1.6-6-2.6-9c-1.2-3.6-0.2-6.7,2-9.7c1.6-2.1,2.1-4.4,1-7.2c-5.8-1.2-6.5-6.1-7.3-10.8c-0.8-4.4,0.4-8.6,2-12.6
			c0.5-1.2,1.8-2.2,2.8-3.2c1.2-1.2,2.6-2.2,3.9-3.2c-0.9-4.3-1.9-8.1-4.4-11.5c-5.6-7.8-11.1-15.7-16.9-24c0.1-5.7,1.3-6.9,7.8-7.7
			c-1.2,1.5-2.4,3-3.5,4.4c-0.1,0.2,0,0.6,0,1.5c2.1,0.6,4.3,1.7,6.6,1.9c6.8,0.6,12.8,3.4,18.7,6.2c13.4,6.4,25.8,14.6,37.8,23.3
			c4.4,3.2,8.7,6.5,12.5,10.5c2.7,2.9,3.8,6.3,3.5,9.8c-0.3,3.6,0.2,7.1,0.2,10.7c0,6.9-1.9,9.4-8.9,10.7c-4.1,0.7-8.2,1.2-12.4,1.8
			c-0.5,0.1-1,0.3-2.1,0.6c1.2,1.1,2.1,1.9,3.1,2.8c-2.2,1.8-4.3,0.1-6.9,0.5c-0.2,1.3-0.6,2.6-0.6,3.9c-0.1,11.3,0,22.5,0,33.8
			c0,1.1,0.4,2.3,0.4,3.4c0,1.2-0.2,2.4-1,3.6c-1.3-2.4-2.6-4.8-3.7-6.7c0.6-2.9,1.3-5.3,1.7-7.8c0.4-2.1-0.8-3.5-2.3-4.8
			c-3.4-2.9-6.6-5.9-10.3-9.2h-3c-1.9-1.4-3.7-3-5.8-4.3c-3.9-2.5-6-5.7-5.5-10.4c0.1-0.5-0.1-1.1-0.9-1.7c-0.3,3.2-0.7,6.4-0.8,9.6
			c-0.1,5.5-0.2,11,0,16.4c0.3,7,1.1,14,1.5,21c0.3,4.7,0.5,9.4,0.8,14.1c1.8-0.7,3.1-1.2,4.9-1.9c0.2,1.6,0.4,2.6,0.3,3.5
			c-0.1,1-0.4,1.9-0.6,3.3c5.6,1.8,7.5,7.4,11.6,10.9c1.1,0.9,2.1,1.9,3.6,3.3c0.2,0.6,0.5,1.8,0.9,3.1c0.6-0.2,1.2-0.3,1.3-0.6
			c0.3-1.2,0.4-2.5,0.6-3.7c0.2-1.1,0.4-2.3,0.6-3.4c0.5-0.1,0.5-0.1,1-0.2c1.2,1.9,2.3,3.8,3.7,5.9c1.2-1.8,2.3-3.5,3.4-5.4
			c2.6,1.3,1.6,3.3,1.3,5.2c3.1,2.1,4.3,5.2,5.7,8.6c2.2,5.1,5.7,9.6,8.9,14.2c2.3,3.3,4.9,6.4,7.4,9.5c1.3,1.7,2.8,3.2,4.2,4.9
			c0.8,1,1.3,2.1,2.2,3.4c-3.1,1.1-4.5-1.2-6.5-2.3c-1.1,0.7-2.1,1.4-3.1,2c-2.5-0.8-4.7-1.6-7.1-2.4l-3.4,3.2
			c-2.1-1.9-4.6-2.3-7.4-2.5c-4.3-0.3-8-1.8-10.1-6.2c-1.3-2.7-3.6-5-5.7-8c-0.8,0-2.3,0.1-3.8,0.2c-0.1-0.2-0.2-0.5-0.4-0.7
			c1.6-1.2,3.2-2.3,5.1-3.7c-2-4.2-2.5-8.4,0.4-12.7c-7.3-3.8-8.7-11.2-11.7-17.8c-2.1,1.4-1.8,3-1.6,4.5c0.8,7,1.7,14,2.5,20.9
			c0.1,1.1,0.4,2.3,0.7,3.6l-1.9,3l2,10.5c-4.1,3.3-4.1,3.6-2,6.5c0.4-0.7,0.8-1.2,1.1-1.8c0.3-0.4,0.5-0.9,0.9-1.7
			c1,1.2,1.9,1.6,1.4,2.7c-2.5,5.6-1.2,12.8,4.1,15.8c0.8,0.5,0.2,1-0.3,2.3c-3.2-3.2-3-7.3-4-10.8c-2.6-1-3.9,0.8-5.2,2
			c-0.4,4-0.4,4,2.3,8.4c-1.7,2.9-3.6,5.2-7.6,5.8c-3.6,0.6-7.7,1.2-10.2,4.9c-0.7,1-2.3,1.4-3.5,2.1c0.4,1.7,1.4,3.7,1.2,5.5
			c-0.3,2.5-1.3,5-2.3,7.3c-1.3,3-3.8,4.7-7,5c-3.5,0.3-6.3,1.9-8.8,4.1c-1.9,1.6-3.6,3.3-3.5,6.1c0,0.4-0.5,0.9-0.9,1.5
			c-1.9-1.2-1.8-2.8-1.2-4.3c0.8-1.8,1.9-3.5,3-5.2c1.3-2.1,2.3-4.4,3.9-6.1c2.4-2.6,5.2-4.9,8.4-7.8c0.2,1.4,0.3,2.1,0.4,3.2
			c2.1-0.2,3.9-0.8,4.7-3.5l-2.3-1.9c0.3-4.9,2.7-9.2,5.1-13.5c2.5-4.4,5.4-8.5,8.1-12.7c1.9-3,3.9-6.1,4.4-9.7
			c0.2-1.4,0.2-2.8,0.2-4.4c-1.3,0.3-2.1,0.5-2.9,0.6c-0.1-0.3-0.4-0.5-0.3-0.8c0.9-5.5-0.7-10.8-1.3-16.2
			c-0.5-3.9-1.1-7.7-1.3-11.6c-0.1-1.5,0.8-3,1.1-4.5c0.5-2.1,1.3-4.2,1.2-6.2c-0.3-7.6-1.1-15.2-1.5-22.8c-0.1-2.4-0.6-4.5-2-6.5
			C2061.7,155.1,2061.5,151.8,2061.7,148.1z M2080.9,69.1c-0.1-0.5-0.3-1.4-0.5-2.2c-2-0.2-3.7-0.4-5.5-0.7
			c-1.5,4.2-4.3,7.9-4.1,12.6c0.2,4.4-0.5,8.9,0.6,13.3c3.3,0.5,6.2,1.1,9.2,1.3c9.9,0.4,19.8,0.7,29.8,0.9c3,0,5.9-0.6,9.3-1
			c0.5-2.1,0.7-4,1.4-5.6c0.7-1.8,1.9-3.3,3-5.2c-0.8-1.1-1.7-2.3-2.7-3.7c-4.5,0.5-8.3-0.7-11.9-3c-0.6-0.4-1.4-0.4-2.1-0.6
			C2098.7,73.2,2090.1,71.2,2080.9,69.1z"/>
		<path fill="#191919" d="M2056.1,24.9c4.7-1.1,9.4-2.2,14.1-3.3c7.7-1.7,15.5-3.4,23.3-4.8c8.5-1.5,17-2.7,25.6-4
			c6.8-1,13.6-2.1,20.5-3c6.3-0.8,12.6-1.5,18.8-2.1c8.1-0.8,16.3-1.7,24.4-2.4c4.4-0.4,8.9-0.7,13.3-1c9.9-0.6,19.8-1.1,29.7-1.7
			c0.3,0,0.6,0,0.9,0c11.4-0.3,22.7-0.8,34.1-0.9c20.5-0.3,40.9-0.7,61.4-0.7c13.2,0,26.5,0.4,39.7,0.8c10.6,0.4,21.3,0.9,31.9,1.7
			c12.3,0.9,24.7,1.9,36.9,3.5c21,2.7,41.9,5.9,62.2,12c14.1,4.2,27.9,9.2,40.9,16.5c3-1.5,5.6-0.6,8.4,1.1
			c14.7,8.6,28.5,18.4,41.7,29.2c22.8,18.8,43.1,40,63.9,60.8c3.9,3.9,8.3,7,13.1,9.8c8.3,4.9,16.3,10.2,24.5,15.3
			c7.6,4.7,15.3,9.2,22.9,13.9c3.1,1.9,5.8,4.1,7.5,7.6c0.8,1.8,2.4,3.2,3.8,5c-1.2,2-2.3,3.8-3.3,5.6c-1.5,0.4-2.9,0.7-4.7,1.1
			c1.2,1.6,2.3,3,3.4,4.5c-0.3,0.8-0.6,1.4-0.9,2c-1.1,2.5-1,4,1.5,4.9c6.1,2,7.4,7.1,8.9,12.3c0.7,2.6,2,5.1,2.6,7.7
			c1,4.6,2.5,9.4,0.4,14.1c-0.3-0.1-0.6-0.1-0.6-0.1c-2.2-7.1-7.3-12.3-12-17.5c-9.5-10.5-19.2-20.7-29-30.8
			c-6.8-7-14-13.7-20.7-20.8c-7.5-7.9-14.7-16.3-22.1-24.3c-6.6-7.2-13.3-14.4-20.1-21.5c-6.9-7.1-13.9-14.2-21.1-21
			c-16.3-15.5-33.5-30-51.9-42.9c-1.1-0.7-2.2-1.5-3-2.4c-7.3-8.1-16.6-13.1-26.4-17.4c-14.9-6.7-30.6-11.1-46.5-14.5
			c-11.8-2.5-23.8-4.1-35.8-5.7c-11.5-1.5-23.1-2.5-34.7-3.5c-8.7-0.8-17.5-1.2-26.2-1.7c-7.6-0.4-15.3-0.4-22.9-0.9
			c-27.5-1.8-55.1-0.5-82.6-0.7c-10.2-0.1-20.4,0.5-30.6,0.9c-12.4,0.5-24.7,1-37.1,1.8c-10.8,0.7-21.5,1.6-32.2,2.5
			c-12.6,1.1-25.2,2.2-37.7,4.1c-13.9,2.1-27.9,4-41.8,6c-6.3,0.9-12.5,1.8-18.7,3c-3.5,0.7-6.9,2-10.4,2.7
			c-2.2,0.5-4.5,0.5-6.8,0.7C2056.3,25.7,2056.2,25.3,2056.1,24.9z M2704.9,180.1c-4.5-4.5-8.6-8.5-12.6-12.5c-3-3-5.9-6-8.8-8.9
			c-5-5-11.1-8.4-17.3-11.7c9.7,12,19.5,23.9,29.2,35.8C2698.8,181.8,2701.8,181,2704.9,180.1z M2675.2,166.5
			c-2.6-6.5-4.9-8.8-7.5-8.6C2670.2,160.8,2672.7,163.6,2675.2,166.5z"/>
		<path fill="#191919" d="M2060.5,318.6c0.4-2.6,2.3-0.6,3.4-1.2c0.4-1.2,0.8-2.3,1.2-3.8c1.7,0.8,2.9,1.3,4.5,2.1
			c-2,1.8-3.8,3.3-5.8,5.1C2062.8,320,2061.6,319.3,2060.5,318.6L2060.5,318.6z"/>
		<path fill="#191919" d="M2657,169.9c-2.1,1.7-5.6,2-9.6,0.7C2649.6,169.6,2654.9,169.3,2657,169.9z"/>
	</g>
	<g>
		<path fill="#191919" d="M1380.7,251.1c0.1-1.7,1-2.6,2.5-3.3c5.6-2.6,11.6-3,17.6-2.2c9.5,1.3,18.9,2.9,28.3,4.3
			c6.7,1,13.5,1.9,20.2,2.9c2,0.3,4,0.9,6.2,1.4c0.1-0.9,0.3-1.6,0.2-2.3c-0.3-2.5,0.2-4.8,1.1-7.1c1.3-3.2,1-6.6,0.6-9.9
			c-0.1-1.2-0.1-2.5,0-3.7c0-1.4,0.8-1.9,2.1-2.3c5.6-1.5,11.3-2.4,17.1-2.4c3.3,0,6.5,0.1,9.8,0.1c9.7-0.1,19.3-0.3,29-0.4
			c2.3,0,4.6,0.1,6.9,0.2c3.9,0.1,7.8,0.4,11.6,0.2c2.5-0.1,5.2-1.7,7.4-1.1c3.1,0.9,4.9-1.3,7.3-1.8c0.8-0.1,1.7-0.6,2.5-0.5
			c2.2,0.1,4.5,0.1,6.4,0.8c2.8,1.1,5.2,2.9,7.8,4.4c0.4,0.3,1,0.4,1.5,0.5c3.8,0.8,7.4,2.4,11.4,1.7c0.5-0.1,1,0.2,1.5,0.2
			c4.1,0.4,8,2.5,12.3,1.8c0.2,0,0.4,0.1,0.6,0.1c3.6,0.6,7.2,1.3,10.9,1.8c6.4,0.8,12.9,1.5,19.3,2.1c4.1,0.4,8.2,1.2,12.2,0.9
			c6.3-0.4,12.5,0.7,18.8,1.2c6.1,0.5,10.5,4.4,14.7,8.4c4.6,4.3,7.3,9.8,9.8,15.3c2.1,4.6,3,9.6,3.3,14.7c0.1,2.4-1.1,4.2-2.3,6
			c-1.3,1.9-2.4,3.8-4.9,3.3c0.5,1.7,1.4,3.3,1.3,4.8c-0.4,5.3-1.1,10.6-1.9,15.9c-1.4,9-3.2,18-4.6,27c-0.5,3.5-0.8,7.2-0.3,10.6
			c0.7,5.6,5,8.5,9.6,10.9c10.9,5.5,22.5,8.2,34.6,8.2c6,0,11.9-0.3,17.9-0.8c2.9-0.2,5.8-0.8,8.7-1.5c3.3-0.8,6.2-2.5,8.4-5.2
			c1.5-1.8,2.9-3.6,4.4-5.4c5.2-5.9,10.4-11.8,15.6-17.7c0.3-0.4,0.5-0.9,0.7-1.2c-1.1-3-2.3-5.9-3.2-8.7
			c-1.7-5.4-0.8-10.9-0.3-16.3c0.8-9.8,2.2-19.6,0.4-29.5c-1.4-7.5-3.1-15-4.8-22.4c-0.5-2.1-1.4-4.2-2.3-6.2
			c-0.3-0.7-0.9-1.4-1.5-1.9c-1.3-1-1.9-2.4-2.4-3.9c-1.1-3.7-1.5-7.6-4-10.9c1.2-1.6,0.9-3.2,0.2-5c-1.2-3.3-2.2-6.8-3.3-10.2
			c-0.3-1-0.7-2.2-0.4-3.1c0.9-3.2-0.2-6.3-0.6-9.3c-1-6.8-2-13.5-1.4-20.3c0.2-1.8-0.7-3.4-2.3-3.7c-3.2-0.7-4.2-3-5-5.7
			c-3.4-0.3-6.5,0.7-9.7,1.5c-3,0.7-5.7-1.2-6.1-4.3c-0.4-2.9,1.6-5.4,4.5-5.8c0.6-0.1,1.3-0.1,1.9-0.1c4.4-0.5,8.7-1,11.7-5.1
			c0.8-1.1,2.6-1.8,4-2.3c3-1,3.2-1.2,3.2-4.4c0-2.1,0.1-4.2,0.5-6.2c0.5-2.4,2.7-3.1,4.8-1.8c0.5,0.3,0.9,0.8,1.3,1.1
			c4.9-0.8,9.3-2.6,13.4-5c0.8-0.5,1.8-1.2,1.9-1.9c0.7-5.1,1.4-10.2-0.2-15.3c-3-0.5-4.2-2.6-4.8-5.2c-2.1-9.3-1-18.6,0.8-27.8
			c0.4-1.9,1.2-3.8,2.1-5.6c2.1-3.8,5.3-3.7,7.4,0c1.1,1.8,2.1,3.6,3.1,5.5c3.4,6.6,4.3,13.3,0.3,20.1c-1.6,2.8-2.8,5.8-2.5,9.3
			c0.2,2.5,0.4,5.3-1,7.6c-1.8,3-0.3,6.3-0.9,9.5c1.6-0.5,2.8-1.4,4.1-1.9c1.6-0.6,3.4-1.4,5.1-1.4c2.2-0.1,4.3,0.5,6.5,0.8
			c11.9,1.2,22.9,5.1,33.5,10.3c1.3,0.7,2,1.7,2.5,3c1.1,3,0.3,5.9-0.8,8.6c-3.2,7.7-6.6,15.2-9.8,22.9c-0.8,2-2.2,3.3-4.2,4
			c-1.8,0.6-3.7,0.8-4.5,2.9c-0.2,0.4-1.3,0.6-2,0.7c-2.4,0.3-4.8,0.5-7.2,0.9c-0.8,0.1-2.1,0.6-2.3,1.1c-0.5,1.7-1.3,3.5-0.5,5.6
			c2.5-0.3,4.9-0.6,7.2-0.9c2.7-0.4,3.8,0.1,5,2.6c0.6,1.3,1,2.8,1.6,4.1c1,2,1.5,4.3,3.1,6.1c5.4,5.9,10.7,11.8,15.7,18
			c5.7,7.1,11.1,14.4,16.6,21.6c-0.7,2.7,0.2,4.7,4.7,10.7c0.4-0.6,0.7-1.2,1.3-2.1c2.8,5.7,4.6,11.1,4.6,17.1c0,1,0.3,2,0.6,3
			c1.7,4.6,3.5,9.2,5.1,13.9c1.4,4.3,1.9,8.7,0.5,13.3c-0.9,3.1-2.7,5.6-4.4,8.3c-0.6,0.9-1,1.9-1.7,3.1c1.6,0.3,2.8,0.6,3.9,0.7
			c8.4,0.6,16.4,2.9,23.9,6.4c5.4,2.5,10.4,5.8,15.5,9c7.1,4.4,12.7,10.3,17.2,17.2c1.9,2.9,3.6,5.9,5.6,8.7
			c0.8,1.2,1.2,2.1,0.7,3.4c-0.5,1.5-1.8,1.6-3.1,1.7c-3.9,0.2-7.8,0.3-11.7,0.5c-1,0-2,0.2-3.3,0.3c1.8,2,3.4,3.6,4.9,5.4
			c6.6,7.6,10.9,16.3,13.5,26c0.5,1.7,0.4,3.5,0.7,5.3c1.2,7,1.3,14.1,0.4,21c-2.4,19.1-12.5,33.6-28.2,44.3
			c-9.4,6.4-19.7,10.6-31,12.6c-6.5,1.1-13,1.2-19.4,0.3c-10.1-1.5-19.5-4.9-28-10.8c-14.6-10.1-23.2-23.9-26.2-41.3
			c-0.2-1.3-0.7-2.5-1-3.8c-0.8,0.2-1.2,0.2-1.6,0.3c-4.6,1.4-9.4,1.2-14,0.3c-2.2-0.4-3.5,0-5.1,1.1c-7,5-15,7.6-23.5,8
			c-8.4,0.4-16.8,0.6-25.2,1c-1.3,0.1-2.6,0.5-3.9,1c-1.5,0.6-2.9,1.2-4.2,2.1c-1.7,1.2-4,1.8-4.8,4.1c-0.7,2.1-1,2.3-3.7,2.4
			c-1.7,0-3.2-0.1-3.4-2.3c-0.1-1.4-0.8-2.3-2.2-2.3c-1.1,0.7-2.5,1.8-3.5,1.6c-1.1-0.3-2-1.8-3.1-2.8c-3.5,2.7-7.2,2.6-11.1,0.5
			c-1.2-0.7-2.8-0.9-4.3-1c-4.9-0.4-9.8-0.6-14.8-0.8c-2.3-0.1-4.6,0.4-6.8,0c-3.1-0.6-6.4,0.6-9.3-1.1c-2.9,2.2-5.4-0.5-8.1-0.5
			c-4-0.1-8-0.1-11.9,0c-5.8,0.2-9.5-2.8-10.2-8.2c0-0.2-0.3-0.3-0.5-0.5c-3.2,1.9-6.1,1.5-9-0.7c-0.7-0.5-2-0.4-3-0.3
			c-9.5,0.7-19,1.5-28.5,2.2c-0.5,0-1,0.1-1.6,0.1c-1.6,0-2.3,0.9-2.3,2.4c0,1.6,0,3.2,0,4.7c0,1.4-0.6,2.4-2.1,2.6
			c-0.6,0.1-1.1,0.3-1.7,0.4c1.3,4.7,2.4,9.1,3.7,13.6c0.7,2.2,1.1,4.7,2.6,6.3c1.9,2.2,2.4,4.5,2.7,7.2c0.2,2.1-0.7,3.6-2.6,4.2
			c-1.8,0.5-3.8,0.6-6,0.9c0,0.2-0.1,0.8,0,1.4c0.9,4.5,1.8,9.1,2.8,13.6c0.2,0.9,0.5,2,1.1,2.5c2.3,2.1,2.5,4.8,2.7,7.5
			c0.1,0.8-0.2,1.7-0.6,2.4c-1,1.7-4.5,3-6.4,2.5c-2.2-0.5-3.3-2.1-3.7-4.2c-0.3-1.6-0.7-3.2-1.2-5c-2.1,0.8-3.7,1.6-5.4,2.1
			c-2.8,0.8-5.6,1.8-8.5,2.1c-10.2,0.8-20.3,1.4-30.5,1.9c-2.2,0.1-4,0.7-5.7,2.2c-0.8,0.7-1.8,1.5-2.9,1.8
			c-1.6,0.5-2.7-0.6-2.2-2.3c0.1-0.4,0.3-0.9,0.6-1.1c2.6-2.3,5.1-4.6,7.8-6.7c0.6-0.5,2.1-0.5,2.6-0.1c1.5,1.3,3.1,1.1,4.8,1
			c7.8-0.5,15.5-1.1,23.3-1.5c3.2-0.1,6.1-0.4,8.3-3.3c1.3-1.7,3.4-2.8,5.1-4.1c0.8-0.6,1.6-1.3,2.6-2c-0.3-1.2-0.6-2.2-1-3.8
			c-2,2.5-4.3,3.2-7,2.1c-2.1-0.8-3.3-3-3-5.4c0.2-1.9,1.6-3.1,3.9-3.5c0.9-0.1,1.9,0.1,2.8,0c0.6-0.1,1.7-0.6,1.7-0.8
			c0-0.8-0.3-1.8-0.8-2.4c-0.4-0.5-1.3-0.6-2-0.6c-1.6,0-2.3-0.8-2.6-2.2c-0.3-1.5-0.4-2.9,1.4-3.8c0.5-0.2,0.9-0.7,1.3-1.1
			c-2.9-2.4-2.8-2.4-2.9-6.1c0-0.9-0.4-1.8-0.6-2.7c-0.7-2.6-1.9-5.2-1.9-7.8c0.1-4.2-1.7-8-2-12c-0.1-1.3-0.8-1.8-2.1-1.7
			c-2.2,0.3-4.4,0.5-6.6,0.6c-1.6,0.1-2.5,0.6-2.9,2.2c-0.4,1.6-0.8,3.3-1.3,4.9c-3.4,10.5-9.8,19-17.9,26.2
			c-11.8,10.4-26,15.7-41.5,17.2c-9,0.9-17.9-0.3-26.4-3.2c-13.2-4.4-24.7-11.5-33.8-22.2c-6.3-7.3-11-15.6-13.8-24.9
			c-2.4-8.1-3.2-16.4-2.5-24.9c0.5-6.4,1.9-12.7,4.3-18.6c4-9.9,10.4-18.2,18.3-25.3c0.7-0.6,1.2-1.3,1.9-2
			c-2.3-0.9-4.4-1.6-6.7-2.5c-1.1,1.6-2.1,3.3-3.2,4.9c-1.4,2.2-2.6,4.8-4.4,6.5c-2.5,2.2-4.1,5-6,7.7c-1.3,2-2.7,4-4,6
			c-0.9,1.3-1.7,2.6-3.4,3c-0.8,0.2-1.4,1.2-1.9,2c-0.9,1.5-1.7,3.1-2.5,4.7c-2.7,5.2-4.8,5.7-9.7,2.4c-2.1-1.4-2.2-1.7-1.3-4.1
			c1.2-2.9,2.3-5.9,3.6-8.7c0.7-1.4,0.5-2.4-0.7-3.6c-4.1-4.4-4.3-7.7-1-12.7c0.2-0.3,0.5-0.7,0.5-0.7c-0.2-1.2-0.6-2.3-0.3-3
			c1.7-4.3,3.6-8.5,7.4-11.5c0.5-0.4,1.1-0.8,1.6-0.8c3.1,0.5,3.9-2,5.4-3.6c-0.9-1-2-1.6-2.3-2.5c-0.8-2.4-2.5-3.4-4.8-4.1
			c-0.8-0.3-1.9-1.2-2.1-2c-0.6-2.5,1.2-5.1,3.8-5.7c1.7-0.4,3.5-0.7,5.3-0.9c1.4-0.1,2.2-0.7,3.1-1.7c2.4-2.8,0.9-6.4,2.3-9.3
			c-1-2,0.2-3.5,1.2-4.9c3.5-4.9,7.2-9.8,10.7-14.8c2.4-3.4,5.3-6.2,8.6-8.7c3.9-2.8,7.7-5.7,11.6-8.6c0.7-0.6,1.7-1.4,0.8-2.3
			c-0.9-1-1.6,0-2.3,0.7c-0.1,0.1-0.4,0-0.7,0c-0.4-2.3-0.8-4.6-0.1-7.1c2.6,0.6,5,1.4,7.5,1.8c9.7,1.6,19.4,1.5,29.2,1.4
			c4.1,0,8.2-0.6,12.2-1c9.5-1,19-2.1,28.4-3.2c1.5-0.2,3.1-0.3,4.1-2.1c-0.6-0.4-1.1-0.8-1.6-1c-1.5-0.7-3.2-1.2-4.5-2.2
			c-1.2-1-2.3-1.2-3.7-1.2c-5.3,0-10.7,0.1-16,0c-3.3-0.1-6.7-0.7-10-1c-2.2-0.2-4.4-0.5-6.6-0.7c-0.5,0-1,0.4-2.2,1
			c5,2.3,9.9,0.8,14.3,2.4c-5.2,0.5-10.4,1.1-15.6,0.8c-3.2-0.2-6.5-0.4-9.7-0.6c-1.4-0.1-2.7-0.1-4.1-0.2c-2.3-0.2-4.6-0.7-6.9-0.4
			c-4.2,0.5-8.4,1.5-12.6,2.2c-0.6,0.1-1.3-0.2-2.3-0.5c4.2-3.7,8.6-4.2,13.5-3.6c-1.3-0.8-2.6-1.5-4-1.7c-4.3-0.7-8.7-1.2-13.1-1.9
			c-6.5-1.1-13-2.3-19.5-3.4c-7-1.2-14.1-2.2-21.1-3.4C1385.2,252.3,1383,251.6,1380.7,251.1L1380.7,251.1z M1783.5,167.2
			c-2.5-2.6-5.4-4.1-8.9-4.7c-0.6,1.5-1.3,2.9-1.8,4.4c-0.6,1.6-0.1,2.9,1.6,3.5c1.9,0.7,3.8,1.3,5.7,1.7c2.2,0.5,3.7,1.9,5.1,3.5
			c1.1,1.3,1.8,2.8,1.2,4.6c-0.2,0.6-0.2,1.2-0.3,1.8c3.7-0.3,6.1-3,6.2-6.9c0.8-0.5,1.6-1,2.4-1.6c-2.7-4.3-3.2-4.8-6.6-5.7
			c1.6,2.7,4.6,4.1,4.2,7.2C1789.4,172.5,1786.3,170,1783.5,167.2z M1874.4,421.1c-1.7-4.3-3.5-8.6-5.2-12.8
			c-3.5-8.7-7-17.3-10.5-26c-0.4-0.9-0.9-1.8-1.9-2.5c0.2,0.8,0.3,1.7,0.7,2.5c3.5,8.8,7,17.6,10.5,26.3c2.2,5.6,4.3,11.2,6.6,16.7
			c0.8,1.9,2.2,3.5,3.3,5.2c0.1,0.8,0.2,1.7,0.2,2.4c-2.6,1.8-2.9,1.7-4.6-0.5c-1.1-1.5-2.2-3-3.4-4.4c-1.3-1.6-2.9-1.7-4.7-0.6
			c-1.3,0.8-2.8,1.5-4.1,2.3c-0.9,0.5-1.9,1-2.6,1.8c-4.4,4.8-8.8,9.6-13.2,14.4c-0.2,0.2-0.3,0.5-0.6,1.2c3.7,1.2,7.4,1.5,11.1,1
			c8.9-1.1,16.7-4.8,23.3-10.8c5.1-4.6,8.6-10.2,10.7-16.7c0.7-2.1,0.1-3.7-1.3-5.1c-3.1-3.1-7.5-3.9-11.3-1.8
			c0.9,2.2,1.8,4.4,2.7,6.6c1.3,3.2,2.6,6.5,1.4,10c-0.3,0.9-0.9,1.6-1.5,2.5c-1-0.9-1.6-1.6-2.3-2.2
			C1876.6,427.4,1875.6,424.2,1874.4,421.1z M1781.7,225.1c1.2,2.9,2.4,5.8,4.1,8.5c4,6.4,8.4,12.6,12.5,18.9
			c6.2,9.5,11.6,19.5,16.3,29.8c3,6.7,6.1,13.4,8.5,20.3c3.8,10.4,2.8,20.8-2.8,30.4c-5.7,9.7-12.2,18.9-19.6,27.4
			c-4,4.6-7.9,9.3-12.1,13.7c-5.7,6-11.7,11.7-17.6,17.6c-0.4,0.4-1.2,0.8-1.3,1.3c-0.5,2.6-2.6,3.6-4.6,4.8
			c-7.9,4.9-16.5,7.8-25.6,9.2c-5.5,0.9-11,1.6-16.5,2c-8.5,0.5-17,0.9-25.5,0.9c-6.7,0-13.4-0.4-20.1-0.8c-7.2-0.4-14.4-1-22-1.5
			c0,1.8-0.1,3.7,0,5.5c0.1,4,0,3.8-3.9,4.2c-4.3,0.5-8.5,0.1-12.8-0.2c-3.1-0.2-6.2,0-9.4,0.1c-0.8,0-1.5,0.3-2.3,0.4
			c0,0.2,0,0.5,0,0.7c2.4,0.2,4.8,0.4,7.3,0.5c0.9,0.1,2-0.1,2.8,0.3c2.3,1,4.4,1.1,6.6-0.2c0.4-0.2,1.1-0.3,1.5-0.1
			c2.1,1.2,4.3,0.5,6.5,0.7c2.5,0.2,5,0.7,7.5,0.9c3,0.3,6,0.7,9.1,0.7c4.8-0.1,9.5,2,14.3,0.8c3.5-0.8,7,0.2,10.5-1
			c1.8-0.7,4.1,0,6.1,0.1c0.6,0,1.3,0.4,1.9,0.2c5.6-1.5,11.3-0.3,17-1.7c5.5-1.4,11.4-1.7,17-2.8c3.2-0.6,6.5-0.7,9.4-2.8
			c2-1.4,4.8-1.8,7.3-2.7c1.8-0.6,3.5-1.3,5.3-2c0.6-0.2,1.3-0.5,1.5-1c1.1-2.1,2.8-2.7,5.2-2.2c-0.1-1-0.2-1.8-0.4-2.9
			c1.1,0,2.2,0,3.5,0c0.7-2.3,1.7-4.5,4.8-4.4c-0.5-1.1-1.2-2.1-1.1-2.9c0.2-1.3,1.1-2.5,1.6-3.8c0.2,0.1,0.4,0.2,0.6,0.2
			c-0.1,1.2-0.2,2.4-0.3,3.7c2.6-0.9,2.6-1,2.7-4.4c0.8-0.3,1.7-0.5,2.5-0.9c2.3-1.2,4.6-2.4,6.9-3.6c3.2-1.7,4.5-5.1,6.8-7.5
			c0.2-0.2,0.3-0.7,0.5-0.8c5-2.4,6.4-8.1,10.5-11.3c1-0.8,1.9-2,2.5-3.2c1.7-3.3,4.5-5.4,7.1-7.8c0.6-0.6,1-1.3,1.6-1.9
			c1.6-1.7,3.2-3.3,4.7-5c2.8-3.1,5.7-6.1,7.7-9.9c0.6-1,1.4-2,2.4-2.7c1.4-1,2.7-2,3.2-3.7c0.2-0.6,0.5-1.3,0.9-1.6
			c2.4-1.8,2.9-4.5,3.6-7.1c0.1-0.4,0.2-0.8,0.4-1.2c2.7-4,1.8-8.5,1.9-12.9c0.1-4.3-2.4-7.5-3.3-11.3c-0.6-2.4-2-4.4-1.9-7.1
			c0.1-1.5-1.3-3.2-2.1-4.7c-0.9-1.6-2.7-2.8-1.5-5c0.1-0.2-0.2-0.8-0.4-1.1c-3.1-4.9-6.1-9.8-9.3-14.5c-2.5-3.6-5.2-7.1-7.8-10.6
			c-0.6-0.8-1-1.7-1.5-2.5c0.2-0.2,0.4-0.4,0.7-0.6c0.5,0.5,1.1,0.9,1.5,1.5c5.5,7.3,11.1,14.5,16.5,21.8c3.5,4.8,6.8,9.8,10.2,14.7
			c1,1.5,2.2,2.7,4.4,2.3c1.2-0.3,2.6,0,3.9,0.1c0-0.3,0.1-0.5,0.1-0.8c-2.1-0.4-4.2-0.8-6.5-1.2c1.5-2.7,4.4,0,6-2.1
			c-1.8-0.1-3.3-0.4-4.8-0.3c-2.2,0.2-3.6-0.8-4.7-2.4c-2.9-4.2-5.8-8.5-8.9-12.6c-5-6.8-10.2-13.6-15.3-20.4
			c-0.5-0.6-1-1.4-1.1-2.2c-0.4-1.9,0.3-2.8,2.2-3c3.3-0.4,6.3-0.1,8.7,2.6c0.6,0.7,1.4,1.2,2.3,2.1c-1.2-2.7-2.8-4.2-5.3-5
			c-2.1-0.7-4-1.6-5.6-3.3c-1.4-1.5-3.4-2.5-5.1-3.7c-0.4-0.3-0.9-0.6-1.2-1c-2.6-3-5.2-6-7.7-9c-0.1-0.2-0.2-0.4-0.4-0.5
			c-2.7-1.6-5.2-3.4-8.1-4.5c-1.5-0.6-2.4-1-2.5-2.7c0-0.6-0.2-1.3-0.5-1.8c-1.6-2.8-2.5-3.1-5.7-2.1c0.1-1.2,0.2-2.3,0.3-3.4
			c0.8-0.8,1.8-1.5,2.3-2.5c0.9-2,3-2,4.1-1.6c1.8,0.7,3.1,0,4.4-0.8c1.1-0.7,1.8-0.5,2.9,0.1c8.1,5.1,15.7,10.8,22.3,17.7
			c6.1,6.4,12.5,12.7,17.5,20.1c0.6,0.8,1.5,1.4,2.6,1.9c-0.1-0.5-0.2-1.1-0.5-1.5c-5.2-6.6-10.3-13.2-15.6-19.7
			c-1.9-2.4-4.1-4.5-6.3-6.6c-4.7-4.5-9.5-8.9-14.3-13.2c-2.6-2.3-4.7-4.7-5.9-8.2c-4.2-0.5-7.4,2.5-11.3,3c0.4,2,1.1,3.7,0.8,5.2
			c-0.3,1.5-1.7,2.8-2.5,4.3c-0.3,0.5-0.4,1.2-0.6,1.8C1781.3,218.5,1780.2,221.5,1781.7,225.1z M1431,321.2c6.3-7.3,14-13,22.1-18
			c6.5-4,13.4-7.1,20.5-9.6c4.9-1.7,10.1-2.9,15.1-4.3c0.4-0.1,0.8-0.2,1.2-0.2c4.6,0.6,8.9-1,13.4-1.2c7.1-0.4,14.3-0.7,21.4-0.5
			c10.8,0.3,21.3,2.4,31.6,5.2c7.8,2.1,15.4,4.8,23,7.5c4.4,1.6,8.5,4,12.8,5.9c4.2,1.9,7.7,4.8,10.8,8c5.8,6,8.7,13.2,7.1,21.8
			c-1.2,6.5-3.8,12.4-7.8,17.7c-1,1.3-1.9,2.7-3.2,4.5c7.1,0.5,13.7,1,20.2,1.4c0-0.2,0-0.4,0-0.6c-0.9,0-1.8,0-2.6-0.1
			c-2.5-0.2-3.5-1.9-1.8-3.5c2.8-2.7,2.4-6.4,3.7-9.5c1.3-3,1.9-6.4,2.7-9.6c0.2-1.1,0-2.2-0.1-3.4c0-0.9-0.3-2,0-2.8
			c1-2.2,0.7-4.5,0.7-6.8c0-2.2,0.3-4.4,0.2-6.6c-0.1-1.9-0.3-3.8-0.8-5.6c-0.9-3.2-2-6.4-3-9.5c-0.2-0.5-0.6-1.1-0.4-1.5
			c0.8-2.4-0.5-3.5-2.3-4.8c-2.9-2.1-5.4-4.7-8.2-6.7c-2.7-1.9-5.6-3.6-8.6-5.1c-4-2-8.1-3.8-12.3-5.3c-5.1-1.8-10.4-3.4-15.6-4.8
			c-4.2-1.2-8.5-2.2-12.9-2.8c-6.8-1-13.7-1.6-20.6-2.2c-5.6-0.4-11.3-0.5-16.9-0.8c-1,0-2,0.2-2.9,0.2c-0.2,1.4-0.1,3-0.8,3.7
			c-0.9,0.8-2.4,1.1-3.7,1.4c-5.8,1.1-11.5,2.1-17.3,3.1c-4.3,0.7-8.7,1.3-13.1,2c-6.5,1-13.1,1.7-19.6,2.9
			c-2.5,0.5-4.8-0.2-7.1-0.3c-2.9-0.1-5.8-1.2-8.7,0c-0.6,0.2-1.4,0.3-1.7,0.7c-2.4,3-5.9,4.9-8.7,7.4c-2.5,2.3-6,3.8-7.9,6.5
			c-1.6,2.2-4.2,3.4-4.9,6.5c-0.4,2.1-2.5,4.1-4.1,5.9c-5.6,6.1-11,12.4-15.6,19.3c-0.4,0.6-0.8,1.3-0.9,2.2c2.8-1.7,4-4.8,6.4-7
			c0.9,0.4,1.7,0.7,2.7,1.2c-0.2,0.4-0.4,0.6-0.5,0.8c-0.5,0.6-1.3,1.1-1.4,1.8c-0.9,4.6-2.8,8.7-5.5,12.4c-0.8,1.1-1.5,2.2-1.1,3.7
			c0.3,1.2,0.1,2.5,0.2,3.9c-2,0-3.1-2-4.8-2.7c-0.1,0.2-0.2,0.3-0.4,0.5c1.3,1.1,2.5,2.4,3.9,3.4c4.3,2.9,8.8,5.3,13.9,6.4
			c1.8,0.4,3.7,1,5.4,1.8c1.8,0.8,3.1,0.5,4.6-0.7c2-1.6,4-3,6.2-4.3c2.1-1.2,4.3-1.9,6.9-1.5c5.2,1,10.4,1.6,15.5,2.4
			c4.9,0.7,9.7,1.4,14.6,2.2c2,0.3,4,0.6,5.9,1.1c7.6,2.1,15.5,2.7,23.2,4c1.1,0.2,2.2,0.5,3.2,0.8c0.1,0.5,0.3,0.7,0.2,0.9
			c-1.6,3.3-5.7,5.7-9.1,5.1c-10.2-1.6-20.3-3.3-30.5-4.9c-7.3-1.1-14.5-2.2-21.8-3.1c-1.8-0.2-3.8-0.4-5.5,0.9
			c2,1.7,3.7,2.1,7.5,1.8c-0.4,0.5-0.6,0.9-0.8,1.3c2.3,0.8,4.7,1.7,7,2.5c0.1-1.4,0.1-1.4-3.5-2.9c1.2,0,2.2-0.4,3-0.1
			c7,2.3,14.4,2.8,21.6,4.2c7.9,1.5,15.9,2.7,23.9,4c20.6,3.5,41.2,7.1,61.8,10.3c11.7,1.8,23.5,3,35.3,4.5c1.8,0.2,3.6,0.4,5.3,0.3
			c1,0,2.1-0.3,2.9-0.9c2.8-2.2,5.6-4.4,8.3-6.8c1.1-1,2.2-2.2,1.7-4.1c-0.2-0.7,0-1.4,0-1.8c1.4-2,3.5,1.7,4.8-1.4
			c-2.7-0.3-5.3-0.6-7.8-1c-6.4-0.9-12.9-1.6-19.3-2.7c-2.3-0.4-4,0-5.9,1.3c-3.6,2.4-7.3,4.9-11.3,6.8c-5.4,2.5-11.2,2.7-17,1.9
			c-8-1.2-16-2.5-23.9-3.7c-0.8-0.1-1.7-0.2-2.5-0.5c-0.7-0.3-1.9-0.8-1.9-1.3c0-0.7,0.6-1.7,1.1-2.3c3.3-3.7,7.6-4.2,12.2-3.4
			c4.9,0.8,9.7,1.9,14.6,2.5c4.6,0.6,9.2,0.7,13.6-1.5c0.4-0.2,0.8-0.4,1.2-0.4c5.7-0.7,9.5-4.4,13.2-8.4c0.8-0.9,2-1.4,2.9-2.2
			c2.3-2,4.6-4,6.9-6c0.2-0.1,0.4-0.3,0.5-0.4c2.9-5.7,6.5-11.1,5.2-18c-0.6-3.6-2.3-6.6-5-8.9c-2.7-2.3-5.6-4.5-8.8-5.9
			c-15.7-7.1-32-12.1-49.1-14.4c-10.4-1.4-21-2-31.4-0.7c-7.2,0.9-14.3,3.1-21.4,5c-7.8,2.1-14.9,5.7-21.7,9.9
			c-6.2,3.9-11.9,8.6-16.7,14.3c-2.1,2.4-4.1,3.2-7.1,2.3c-2.3-0.7-4.7-1.1-7-1.7c-0.7-0.2-1.3-0.6-2.6-1.2
			C1427.6,325.9,1429.1,323.4,1431,321.2z M1446.8,429.1c0.2-0.7,0.4-1.5,0.8-2.5c1.3,1.4,3.4,2,3.2,4.4c0,0.5,0.7,1.2,1.3,1.5
			c2.2,1.1,4.5,1.5,7,1.1c1.1-0.2,2.3-0.3,3.4-0.4c1.5-0.1,2.9-0.1,3.9,1.4c0.3,0.5,1.3,0.6,1.9,0.9c0.1-0.2,0.3-0.4,0.4-0.6
			c-0.5-0.9-1.1-1.9-1.7-2.9c1-1.4,2-0.9,3-0.1c1.6,1.2,3.3,2.1,5.4,2.3c2.5,0.2,3.9-0.4,5.2-2.6c0.7-1.2,1.2-2.4,1.9-3.8
			c0.5,0.4,1,0.8,1.3,1.3c0.8,1.3,2,1.4,3.3,1.1c2.1-0.3,4.1-0.6,6.2-0.7c1.8-0.1,3.6,0,4.9-1.6c0.1-0.2,0.3-0.3,0.5-0.3
			c2.1-0.4,4.2-0.8,6.3-1.1c1.5-0.2,3.4,1,4.4-1.1c2,1,3.7-0.6,5.6-0.7c3-0.2,5.9-0.8,8.9-1.2c1.4-0.2,2.7,0.5,4.1,0.8
			c1.2,0.3,2.7-0.9,4.1-1.1c0.8-0.1,1.6,0.6,2.8,1.1c-0.9,0.6-1.5,1.1-2.3,1.6c0.3,0.2,0.6,0.5,0.8,0.5c0.5-0.1,1.2-0.2,1.4-0.5
			c2.4-3.7,6.1-3.4,9.8-3.3c0.5,0,1,0,1.2,0.1c0.3,0.6,0.5,1.4,0.8,1.5c1.6,0.5,3.2,1,4.8,1c4.9,0,9.9,0,14.8-0.3
			c4.1-0.3,8.1-0.9,12.2-1.4c1.1-0.1,2.3-0.3,3.4-0.1c3.4,0.4,6.4-0.8,9.4-2c1.1-0.4,1.8-1.7,2.6-2.7c3.4-4.5,4.6-9.4,2-14.7
			c-1.3-2.7-2-5.9-4.7-7.7c-3.3-2.3-6.9-4-11.1-3.6c-7.5,0.6-15.1,1.1-22.6,1.6c-5.3,0.4-10.7,0.8-16,1.2c-8.8,0.7-17.6,1-26.3,2.5
			c-6.2,1.1-12.3,1.3-18.4,1.8c-7.8,0.7-15.6,1.5-23.5,2.2c-3.9,0.4-7.7,0.7-11.6,1.1c-8.4,0.8-14.1,5.4-17.1,12.9
			c-1.6,3.8-0.9,8.1,0.5,12c1.4,3.8,3.5,7.2,6.8,9.7c0.8,0.6,1.7,1,2.6,1.6c0.2-0.2,0.4-0.5,0.6-0.7
			C1450.8,436.6,1449.2,432.6,1446.8,429.1z M1890.2,380c4.4,3.3,7.5,7.9,10.1,12.8c2.6,4.8,3.8,9.9,4.3,15.3
			c0.5,5.5,0.2,10.9-1.3,16.2c-1.4,5.2-4,9.8-6.9,15.1c-0.5-1.6-0.8-2.4-1.1-3.4c-1.4,1.5-2.7,2.9-3.9,4.3c-0.2-0.1-0.3-0.3-0.5-0.4
			c0.6-0.9,1.1-1.8,1.8-3c-1.9,0.9-7,5.7-7.5,7.1c-0.2,0.7,0.2,1.5,0.4,2.8c-3,2.1-6.3,4.3-9.5,6.6c0.1,0.2,0.3,0.4,0.4,0.6
			c3-1.8,5.9-3.6,9-5.4c-0.3,1.9-0.2,2-8.6,7.4c-3.2,2-6.6,3.8-10.5,3.9c-0.2-0.3-0.5-0.6-0.7-0.9c1-0.7,2-1.3,3-2
			c-0.1-0.1-0.2-0.2-0.3-0.3c-4.2,0.5-8.5,1-12.9,1.5c0,0.8-0.1,1.6-0.1,2.8c-1.3,0.1-2.6,0.3-3.8,0.1c-7.7-0.9-15-3.1-21.3-7.8
			c-5.2-3.8-9.7-8.2-12.5-14.2c-2.1-4.6-3.9-9.2-4.5-14.2c-0.3-2.3-1.1-3.1-3.6-2.9c-2.1,0.2-4.1,0.7-6.2,1.1
			c-1.2,0.2-2.5,0.4-3.9,0.7c-0.8,3.2,0.3,6.4,1,9.4c1.9,7.6,5.2,14.6,10.2,20.7c6.8,8.2,15.1,14.3,25.3,17.4
			c8.5,2.6,17.1,3.6,26.1,2.3c14-2,25.9-7.8,36.2-17.5c10.5-9.9,16.9-21.9,19-36.1c2.5-16-1.1-30.7-11.3-43.5
			c-2.6-3.2-6-5.9-9.1-8.6c-1-0.9-2.3-2.6-3.8-0.3c-1.9,0-3.7-0.1-5.6-0.1c-1,0-2.1,0-3,0.4c-2.5,1-4.9,2.2-7.6,3.5
			C1881.4,374.2,1886,376.8,1890.2,380z M1484.1,456.9c-1.8-0.4-10.9,1.2-14,2.5c2.1,1.4,4.1,0.1,6.2,0.5c-0.4,0.2-0.9,0.6-1.3,0.6
			c-12,1.2-23.1-1.2-33.5-7.4c-5.2-3.1-9.8-7-13.5-11.7c-5.1-6.6-8.5-14-9.7-22.5c-1.2-7.6,0.1-14.8,2.3-21.9
			c0.3-0.9,0.4-1.8,0.6-2.8c0.1-0.3-0.1-0.8,0.1-0.9c2.7-1.8,2.4-5.3,4.5-7.5c1.6-1.6,3.9-2.6,4.2-5.5c0.1-1.2,2.3-2.2,3.6-3.2
			c2.4-1.9,4.9-3.7,7.5-5.5c0-1.3-0.4-2.4-1.9-3c-0.8-0.3-1.1-1.5-1.8-2.1c-1-0.7-2.2-1.6-3.2-1.5c-2.7,0.2-5.2,0.9-7.2,3.3
			c-1.4,1.7-2.7,3.9-5.6,3.8c-0.9,0-1.9,1.2-2.7,1.9c-3.6,3.5-6,7.9-8.1,12.3c-9.6,19.9-8,39.2,3.7,57.8c8,12.7,19.5,21,33.5,25.8
			c10.5,3.6,21.3,4.4,32.3,2.4c16.6-3,29.8-11.2,39.6-25c1.2-1.8,2.2-3.7,2.9-5.8c-2.1,2.2-4.1,4.4-6.4,6.7c-0.3-0.5-0.6-1-0.9-1.5
			c-0.6-1-1.4-1.3-2.4-0.9c-2.5,0.9-5,2.3-7.6,2.6c-6.1,0.9-10,5.8-15.5,7.7c-2.7,1-5.4,2.1-8.1,3.2c-0.2-0.3-0.4-0.5-0.5-0.8
			C1482,458.2,1483,457.5,1484.1,456.9z M1650.5,353c-0.7-2.3-0.9-4.9-0.9-7.4c0-3.2,0.4-6.5,0.8-9.7c0.1-1.2,0.3-2.5,0.9-3.7
			c1.4-3,3-6,4.4-8.9c0.3-0.6,0.6-1.1,0.8-1.7c1.2-4.4,2-9.1,3.7-13.3c1.4-3.4,2-6.8,2.6-10.3c0.2-1.2-0.3-2.6-0.5-4.3
			c1.4-0.3,2.9-0.7,4.4-1.1c0-0.2,0-0.4,0-0.5c-0.5-0.2-1-0.5-1.5-0.5c-5.8,0.5-11.7,1.1-17.5,1.7c-0.9,0.1-1.8,0.4-2.7,0.7
			c-0.7,0.2-1.4,0.7-2.1,0.6c-5.9-0.6-11.6,1.3-17.5,1.4c-1,0-2.1,0.1-3.4,0.1c0.3-1.8,0.5-3.2,0.8-5c-2.3,1.7-2.6,4-2.9,6.2
			c-0.1,0.6,0.4,1.4,0.9,1.9c3.4,4.5,6.3,9.3,7.9,14.8c2.4,8.2,2.8,16.4,1.4,24.9c-1,5.9-2.7,11.6-5.4,17c-0.6,1.2-0.9,2.5-1.5,4
			c13.8,1.7,27.3,1.8,40.9,0.3c-2.6-0.1-5.1-0.1-7.7-0.2c-2.7-0.1-5.4-0.1-8.8-0.2C1651.6,357.7,1651.7,356.7,1650.5,353z
			 M1828.4,382.6c-0.4-1.8-1.4-2.3-2.9-1.3c-0.9,0.6-1.6,1.4-2.3,2.1c-3.5,4.2-6.9,8.4-10.5,12.5c-4.1,4.7-8.3,9.1-12.3,13.9
			c-3,3.5-6,7-9.8,9.6c-0.1,0.1-0.1,0.4-0.2,0.8c4.6-0.5,9.1-0.8,12.5-4.5c2.9-3.2,6-6.1,9-9.2c2.5-2.6,4.7-5.7,7.5-8
			c3.2-2.6,5.5-6,8.5-8.7c1.1-1,2.4-1.9,3.8-2.1c2.5-0.5,4.1-1.9,5.4-3.9c3.4-5.1,7.3-9.7,12.2-13.4c5.9-4.4,12.4-6.9,19.6-7.8
			c1.1-0.1,2.2-0.4,3.9-0.7c-3.1-4.1-5.8-7.7-8.6-11.3c-1.7-2.1-3.6-4.1-5.5-6.1c-0.5-0.5-1-1.1-1.5-1.6c-1.7-1.4-2.5-1.4-4,0.3
			c-2.5,3-4.8,6.1-7.1,9.2c-1.7,2.3-3.2,4.7-5,6.8c-3.1,3.8-6.4,7.5-9.7,11.2c-1.8,2-2.7,4.2-2,6.9c0.6,2.3,1,4.7,1.4,7.1
			c0.3,1.4,0.2,1.4-1.7,3C1829.1,385.7,1828.7,384.1,1828.4,382.6z M1895.3,358.5c-2.6-0.1-3.2-0.8-2.5-3.3c0.2-0.7,0.6-1.4,0.6-2.1
			c0.1-1.4,0.5-2.3,1.8-3c0.5-0.2,1.1-1.6,0.9-1.9c-1.7-2.3-1.5-5.2-2.3-7.8c-1.1-3.5-3.2-6.2-6.5-7.8c-2.2-1.1-4.6-1.9-7.1-2.6
			c-3.3-0.9-6.7-1.6-10-2.4c-0.6-0.1-1.2-0.2-1.9-0.2c-4.2-0.1-4.4,0.1-5.8,4.1c-1,2.6-2.3,5.1-3.6,7.8c6.1,7.1,12.2,14.3,18.4,21.6
			c1.5-1.9,3.3-1.6,5.3-1.5c5.8,0.3,11.7,0.2,17.6,0.3c0-0.3,0.1-0.6,0.1-1C1898.7,358.6,1897,358.5,1895.3,358.5z M1863.5,377.5
			c2.1,4.5,2.9,9.3,6.5,13.1c2,2.1,3.2,5.1,4.6,7.8c0.6,1,0.9,2.1,2.3,2.3c3.9,0.7,7.8,1.4,11.8,2.1c0.6,0.1,1.2-0.1,2-0.2
			C1890.5,391.1,1877.9,377.7,1863.5,377.5z M1800.7,168.8c0.7,2.8,2.9,2.1,4.8,2.1c1.3,0,2.2-0.7,2.6-1.9c1.6-6,3.1-12,4.6-18
			c0.1-0.3-0.1-0.6-0.1-1.3c-1,1.3-1.5,2.8-3.1,2.7c-1.4-0.2-3-0.2-4.2-0.8c-3-1.6-6.1-1.4-9.2-0.8c-1.2,0.2-2.3,0.7-2.9,2.2
			c-0.2,0.7-1.1,1.2-1.7,1.6c-2.2,1.7-3.3,5-2.1,7.5c0.3,0.6,1.1,1.1,1.8,1.5c0.8,0.5,2.2,0.9,2.3,1.5c0.2,2.7,2.7,2.7,4.1,4.2
			c0.6-0.5,1.1-0.9,1.9-1.6C1800,168.1,1800.6,168.3,1800.7,168.8z M1780.2,203c-0.1-0.3-0.2-0.5-0.2-0.8c-1.6,0.6-3.3,1.1-4.9,1.7
			c-2.3,0.9-3.1,0.5-4.1-1.7c-0.3-0.8-1-1.6-1.7-2.1c-2.5-1.6-5.1-2.8-7-5.3c-0.6-0.9-2.2-1-3.3-1.6c-1.9-1.1-3.8-2.2-5.7-3.3
			c-1.2-0.7-2.2-0.3-2.4,1c-0.4,1.9-0.7,3.9-0.6,5.9c0.1,4.1,0.5,8.2,0.7,12.2c0,0.8-0.2,1.6-0.4,3.1
			C1760.9,209.4,1770.6,206.4,1780.2,203z M1820,421.2c1,6,3,11.5,7.1,16.2c1.8,2,3.8,2.9,6.4,2.5c3.7-0.7,6.6-2.6,8.4-5.9
			c0.7-1.2,0.4-2.1-0.8-2.9c-2.3-1.4-4.5-3-6.7-4.6c-0.3-0.2-0.7-0.5-1.1-0.5c-4.9-0.9-8.2-4.4-11.9-7.2c-0.2-0.1-0.4-0.1-1.2-0.4
			C1820.1,419.5,1819.9,420.4,1820,421.2z M1511.6,265.3c2.3,0.2,4.6,0.3,6.9,0.4c6.5,0.2,13,0.5,19.5,0.4
			c5.6-0.1,11.1,0.8,16.6,1.4c3.9,0.5,7.8,1.4,11.7,2.3c4.2,1,8.3,2,12.4,3.3c4.7,1.4,9.4,2.9,13.9,4.8c4.8,2.1,9.3,4.8,14,7.1
			c4.7,2.2,8.2,5.9,12.3,9.7c0.4-2-0.4-3.8,0.8-5.3c-1.3,0.3-2.7,0.5-4.3,0.9c0.2-1.1,0.2-1.8,0.4-3c-2.7-1.6-5.5-3.5-8.6-5
			c-5.1-2.5-10.2-4.9-15.4-7.1c-6.3-2.7-12.8-4.8-19.5-6c-7-1.3-14-2.7-21.1-3.7c-5-0.7-10-0.8-15-1.1c-7.4-0.4-14.9-0.6-22.3-0.9
			c-1.3,0-2.6,0.1-4,0.1c0,0.3-0.1,0.6-0.1,1C1510.4,264.8,1511,265.3,1511.6,265.3z M1787.9,153.7c0.6-1,1.4-1.8,2.3-2.5
			c2.8-2.2,2.7-4.8-0.3-6.8c-3.9-2.6-5.3-2.4-9.2,0.5c-1.5,1.1-3.3,1.8-5,2.7c-1,0.5-2.1,0.9-2.9,1.2c-0.2,3.3-0.3,6.3-0.5,9.4
			c4.1,0.2,8.7-2.9,12.8,0.9C1786.2,157.2,1786.9,155.4,1787.9,153.7z M1766.4,150.6c-5.6,1.3-10.9,2.5-16.6,3.8
			c2.1,1.4,2.7,3,1.7,5.5c-0.6,1.6,0,3.6,0.1,5.6c0.9-0.6,2-1.4,3.2-2.1c1.3-0.8,2.6-1.9,4.1-2.4c1.4-0.4,2.9-0.2,4.8-0.3
			C1764.5,157.6,1765.4,154.3,1766.4,150.6z M1487.9,452.4c-9.3,3.4-18.9,4.1-28.7,3.4C1469.2,458.9,1478.8,457.8,1487.9,452.4z
			 M1475.4,436.3c-1.6,0-3.3-0.5-4.6,0.1c-3.4,1.5-6.5,0.4-9.7-0.4c-1-0.3-2-0.8-3-0.9c-0.6-0.1-1.3,0.4-2.7,0.9
			C1462.6,439.4,1468.9,440.9,1475.4,436.3z M1466.4,443.1c4.3,0.1,8.4-0.6,12.2-3c-4.9,1.3-9.8,2.6-15,1.4c-0.1,0.3-0.1,0.7-0.2,1
			C1464.4,442.7,1465.4,443.1,1466.4,443.1z M1852.4,456.4c4.9,1.7,9.4,0.3,14-1.5C1861.8,455.4,1857.1,455.9,1852.4,456.4z
			 M1676.3,282.4c0.5-5.7-0.3-11.4-1.6-17C1675.2,271,1675.8,276.7,1676.3,282.4z M1490.9,395.4c1.9,1.1,3.6,1.4,5.8,0.7
			c2-0.7,4.3-0.3,6.5-0.4c0-0.3,0-0.5,0-0.8C1499,395.1,1495,395.3,1490.9,395.4z M1854.8,376c0.8-0.9,0.8-0.9-0.2-5.6
			C1852.4,371.5,1852.5,373.1,1854.8,376z M1874.4,417.4c0.3-0.1,0.5-0.2,0.8-0.3c-1.3-3.4-2.7-6.9-4-10.3c-0.3,0.1-0.5,0.2-0.8,0.3
			C1871.7,410.5,1873,414,1874.4,417.4z"/>
		<path fill="#191919" d="M1752.3,144.2c-0.4-1.6-0.5-3.2-1.2-4.6c-1.6-3.3-3.5-6.4-5.2-9.7c-1.7-3.3-3.3-6.7-4.9-10.1
			c-0.4-0.7-0.7-1.7-1.3-2.1c-2.6-1.8-2.9-4.7-3.7-7.4c-1.6-5.7-4-11-7.6-15.7c-2.1-2.7-4.8-2.5-5.9,0.7c-0.8,2.4-1.3,5.1-1.2,7.7
			c0.1,5.1,0.5,10.3,1.3,15.3c0.3,2.2,1.5,4.4,2.7,6.2c1.2,1.8,2.6,1.7,4.3,0.2c0.5-0.4,0.8-1,1.1-1.5c2.1-3.1,5.2-2.8,7.1,0.5
			c1,1.8,2.4,3.4,3.6,5c0.7,0.9,1.3,1.9,1.9,2.9c1.4,2.4,2.9,4.9,4.2,7.4c0.6,1.1,1.1,2.3,1.3,3.5
			C1748.9,144.6,1750,145,1752.3,144.2z"/>
		<path fill="#191919" d="M1380.7,251.1c-0.4-0.2-0.8-0.3-1.2-0.5c-3.4-1-4.2-0.4-4.5,3.2c-0.1,1.5-0.4,2.9-0.4,4.4
			c0,2.6,0.9,3.4,3.5,3.1c0.4,0,0.9-0.1,1.2-0.2c1.7-0.8,3.4-1.5,5-2.5c0.6-0.4,1.2-1.3,1.2-2c0-0.4-0.8-1.1-1.4-1.4
			c-1.3-0.7-2.7-1.2-4.1-1.8C1380.3,252.6,1380.5,251.8,1380.7,251.1L1380.7,251.1z"/>
		<path fill="#191919" d="M1393,258.3c5.8,2.5,10.9,4.8,16.5,5.8C1407.7,262.5,1397,258.8,1393,258.3z"/>
		<path fill="#191919" d="M1448.3,302.8c-0.9-2-2.7-2.1-3.9-3c-4.5-3.2-8.4-1.8-11.8,1.6c-3.3,3.2-6.4,6.5-9.5,10
			c-2.7,3-5.1,6.2-7.7,9.4c2.4,6,2.4,6,4.6,5.9c-0.3-2-0.6-4-1-6.7c1.6,1,2.6,1.6,3.6,2.3c2.4,1.8,3.5,1.6,5.5-0.6
			c2.2-2.5,4.3-5.1,6.8-7.3c3.8-3.5,7.8-6.6,11.7-9.9C1447.1,303.9,1447.7,303.4,1448.3,302.8z"/>
		<path fill="#191919" d="M1507.2,355.9c2.8,0,4.5-2,6.4-3.7c0.7-0.6,0.4-1.6-0.5-2.1c-0.3-0.2-0.8-0.3-1.2-0.3
			c-8.6-1.3-17.2-2.7-25.8-4c-3.9-0.6-7.8-1.5-11.7-2.2c-2.4-0.4-4.7-0.8-7.1-1.2c-2.5-0.4-6.2,1.6-7.3,3.9c-0.6,1.3,0,2.1,1.3,2.3
			c1.9,0.4,3.9,0.6,5.9,1c12.3,2,24.6,4,36.9,5.9C1505.1,355.7,1506.2,355.8,1507.2,355.9z"/>
		<path fill="#191919" d="M1608.8,370.1c-3.1-0.2-5.9-0.3-8.7-0.6c-3.7-0.4-7.4-1-11.2-1.5c-0.5-0.1-1.1-0.4-1.5-0.2
			c-0.8,0.4-1.8,0.8-2.1,1.5c-0.4,1.2,0.7,1.6,1.6,1.8c2.2,0.4,4.3,0.7,6.5,0.9c3.9,0.4,7.9,0.9,11.8,1.2
			C1607.6,373.4,1608,373,1608.8,370.1z"/>
		<path fill="#191919" d="M1576.4,377.4c0.7,0.3,1.2,0.6,1.7,0.7c6.2,0.8,12.5,1.5,18.7,2.2c0.4,0,0.8,0.2,1.2,0.1
			c1.2-0.2,2.5-0.4,2.6-1.8c0.1-1.5-1.3-1.4-2.3-1.5c-6.2-0.7-12.5-1.4-18.7-2.1C1578.1,374.8,1577.1,375.5,1576.4,377.4z"/>
		<path fill="#191919" d="M1536,279.2c0.9-0.6,1.7-1.2,2.6-1.7c1.1-0.6,1.3-1.5,1-2.6c-0.5-1.8-2.7-3.1-4.7-2.9c-2,0.2-3.9,2-4,3.8
			c-0.1,1.2,0.4,2.1,1.5,2.4C1533.6,278.6,1534.8,278.9,1536,279.2z"/>
		<path fill="#191919" d="M1493.4,415.7c-2,0-3.7,1.6-3.7,3.5c0,1.9,1.8,3.3,4.2,3.3c2.1,0.1,3.8-1.5,3.8-3.4
			C1497.7,417.6,1495.3,415.7,1493.4,415.7z"/>
		<path fill="#191919" d="M1569.4,421.1c-1.5-2.8-3.1-3.6-4.9-3.1c-1.9,0.5-3,2.2-2.8,4c0.2,1.7,1.2,2.5,2.8,1.9
			C1566.2,423.3,1567.7,422.2,1569.4,421.1z"/>
		<path fill="#191919" d="M1846.9,362.2c1.2-0.1,2.6-1.8,2.6-3.1c0-1.5-1.1-2.5-2.6-2.4c-1.7,0.1-3,1.3-2.8,2.7
			C1844.2,360.7,1845.7,362.2,1846.9,362.2z"/>
	</g>
	<path fill="#191919" d="M607.6,447.2c-1.5-8.8-5.9-15.8-13.2-20.9c-0.4-0.3-0.6-0.8-1-1.2c-0.6-0.7-1.2-1.8-1.9-2
		c-3.6-1-7.2-1.7-10.9-2.6c-1.4-0.4-3.3,0.9-4.2-0.9c-0.7-1.4-1.2-2.9-1.5-4.4c-1.4-7-2.5-14-4-21c-0.6-3-0.4-6.4-2.9-8.7
		c-0.2-0.2-0.2-0.7-0.3-1c-1.4-7.6-2.9-15.3-4.3-22.9c-1.8-9.5-3.6-19-5.4-28.5c-2.1-10.9-4.1-21.7-6.2-32.6c0-0.1,0-0.2,0.1-0.4
		c0.4-0.2,0.8-0.5,1.1-0.7c-0.3-2.1-0.7-4.1-1-6c1.2-0.5,2.2-0.9,3.1-1.4c0.3-0.2,0.6-0.7,0.5-1c0-0.2-0.6-0.6-0.9-0.6
		c-0.9-0.1-1.9-0.1-2.8,0c-1.1,0.2-1.9,0.2-2.4-0.1c-0.8-3.1-1.6-6.3-2.2-9.4c-1.3-6.1-3-12.2-3.6-18.5c-0.4-3.9-1.2-7.7,0.2-11.6
		c0.4-1.1,0.2-2.3,0.3-3.5c0.1-1.3-0.4-2.3-1.9-3c-0.8,0.7-1.7,1.5-2.7,2.5c-0.8-1.8-0.1-3.3,0.5-4.7c1.6-3.6,1.3-7.2-0.1-10.7
		c-0.2-0.6-0.7-1.1-1-1.5c-1.9,0.4-1.6,2.1-2.5,3c0.1-1.2-0.1-2.7,0.6-3.6c1.8-2.5,1.6-5.2,1.1-8c-0.3-1.5-0.6-2.9,0.2-4.4
		c0.2-0.5,0.2-1.3,0-1.7c-0.9-1.6-1.9-3.1-2.9-4.8c-2.6,0.4-4.8-0.4-6.9-1.8c-2.2-1.4-5.6-0.1-7.2,2.3c-1.1,1.6-1.3,3.2-0.2,4.9
		c0.8,1.2,1.5,2.4,2.1,3.7c0.7,1.6,0.8,3.2,0.1,4.9c-1.2,0.1-2.4,0.1-3.6,0.2c-1.5,0.2-1.9,0.9-1.6,2.7c1.9,0.8,3.9,0.1,5.8-0.1
		c1.5,1.7,3,3.4,4.6,5.2c-0.1,0.3-0.3,1-0.5,1.6c-0.4,2.1-1.5,3.3-3.5,4.3c-1.3,0.7-2.3,2.1-3.3,3.3c-0.5,0.6-0.9,1.4-1.4,2.1
		c-2.2,2.8-4.6,5.6-6.8,8.4c-1.3,1.6-1.2,3,0.2,4.5c2.2,2.5,5.8,2.2,7.8-0.5c1.2-1.7,2.5-3.4,3.9-5.1c1.5,1.8,3.5,5,4.1,4.8
		c0.6-0.2,5.6-0.3,6.6-0.7l3,21.1l3.9,15.7c-0.1,0.1-0.2,0.1-0.4,0.2c-2.3,1.1-2.4,1.2-1.5,3.6c0.2,0.5,0.4,0.9,0.6,1.4
		c0,0,1.9,13.2,2.7,17.5c1.8,9.3,3.7,18.7,5.4,28c2,10.9,3.9,21.7,6,32.6c0.8,4,1.7,8,2.6,12c0.4,1.9,1,3.8,1.4,5.7
		c0.1,0.5,0.3,1.1,0.1,1.4c-1.7,2.8-3.3,5.7-5.2,8.3c-3.3,4.7-6.9,9.2-10.3,13.8c-1.6,2.1-3,4.3-4.5,6.4c-0.9,1.2-1.8,2.4-2.8,3.8
		c-0.1-1.3-0.1-2.2-0.2-3c-0.3-0.1-0.5-0.1-0.8-0.2c-0.6,1.4-1.2,2.8-1.7,4.2c-0.4,1.1-0.3,2.4-0.8,3.4c-2.4,4.1-5,8.1-7.6,12.1
		c-1.4,2.1-3.5,3.5-6.1,3.7c-2.5,0.2-95.6,0.7-97.3,0.5c-1.8-0.2-4.6-3.4-5.1-4.3c-0.4-0.9-2.3-4.7-3.1-6.3
		c-5-9.6-12.8-15.5-23.6-16.5c-8.8-0.8-17.2,1-24.3,6.8c-0.7,0.5-1.7,0.6-2.5,0.9c-0.6,0.2-1.5,0.4-1.9,0.8c-2.1,3.1-4.1,6.2-6,9.4
		c-0.1,0.2-0.2,0.5-0.1,0.7c1.2,1.8-0.1,3.4-0.4,5.1c-0.4,2.2-0.7,4.5-1.1,7.1c1.5-0.4,2.4-0.7,3.4-1c-0.2,18.9,13.7,28.4,25.7,29.3
		c6,0.5,11.7-1.1,16.9-4.1c6.3-3.7,10.8-8.8,13-15.9c9.2,0,107.1,0.1,108.6-0.3c5.1-1.3,9.8-3.2,13.2-7.5c0.2-0.2,0.4-0.6,0.6-0.6
		c3.1-0.5,5.1-2.9,7.6-4.5c1.9-1.2,2.7-2.9,2-5.1c-0.4-1.2-0.8-2.3-1.2-3.4c2.4-3.7,5.2-7,9.1-9.2c3.7-2.2,7.2-4.7,11-7.2
		c0.4,1.7,0.2,2.5-1.1,3.2c-3.9,2-7.1,4.9-9.8,8.4c-5.7,7.4-7.3,15.8-6,25c0.6,4.3,0.5,4.3,4.9,3.3c0.2,0.3,0.3,0.5,0.4,0.7
		c4.9,10.5,13.2,16.4,24.6,17.2c11.7,0.9,21.1-3.8,27.2-14.2C607.4,459.5,608.7,453.6,607.6,447.2z M550.2,315.3
		c0-0.2-0.1-0.4-0.1-0.6c0.7-0.1,1.3-0.2,2-0.2c0,0.2,0,0.4,0.1,0.5C551.5,315.1,550.8,315.2,550.2,315.3z M380,461.1
		c1,0.9,2.8,0.9,4.7,1.5c-2.6,0.4-4.7,1-6.9,1c-0.6,0-1.2-1.6-1.9-2.7C377.8,460.1,378.8,460,380,461.1z M378.5,468.5
		c-8-3.5-13-12.7-10.6-20.4c0.6,2.6,1.1,4.9,1.5,7.2c2.2,11.1,15.6,15.7,24,10c1.3-0.9,2.8-1.4,4.3-1.9
		C395.7,467.5,386.1,471.8,378.5,468.5z M587.5,441.6c1.2-0.6,1.9,0.2,2.5,1c1.6,2.1,2.5,4.9,2.5,8c0.2,2.7-0.9,5.2-2.2,7.6
		c-1,1.8-2.2,1.8-3.3,0.1c-0.5-0.7-0.9-1.4-1.4-2.1c-0.7-1-1.1-2-0.5-3.4c0.4-1.1-0.1-2.7-0.3-4C584.3,447.2,586,442.4,587.5,441.6z
		 M563.3,419c-2.5,1.8-5,3.4-7.5,5.1c-0.8,0.5-1.6,0.9-2.4,1.4c-0.1-0.1-0.2-0.3-0.3-0.4c3.1-4.3,6.1-8.7,9.2-13
		c0.7-1,1.6-1,1.9,0.2c0.4,1.6,0.8,3.2,0.7,4.8C565,417.7,564,418.5,563.3,419z M562.6,444c1.4-3.4,3.3-6.1,6.5-7.8
		c-1,1.2-2,2.3-3,3.5c-0.4,0.5-1,1.2-1,1.8C565.1,443.1,564.6,444.1,562.6,444z M566.1,445.1c0.8-1.6,2-3.1,3-4.6
		c0.2,0.1,0.4,0.1,0.5,0.2c0.7,2.2,1.3,4.3,2.1,6.8c-1.5,0.1-2.7,0.2-3.9,0.2C566.2,447.5,565.4,446.5,566.1,445.1z M567.7,453.3
		c0.1,0,0.2,0,0.4,0c0.8,0,1.7,0,2.2,0c5.5-0.8,10.5,4.9,11.7,8.9c0.4,1.1-0.1,2-1.4,2.2c-6.4,0.8-11.8-2.7-14.5-8.6
		C565.5,454.4,566.2,453.5,567.7,453.3z M594.1,461.9c-6.9,10-21,8.9-27.3,1.1c1.6,0.8,3.1,1.7,4.7,2.5c4.4,2.1,8.8,2.6,13.6,0.9
		c3.3-1.2,5.9-2.9,8-5.6c0.3-0.3,0.6-0.5,0.9-0.8c0.2,0.1,0.4,0.2,0.5,0.2C594.4,460.8,594.4,461.5,594.1,461.9z"/>
	<g>
		<path fill="#191919" d="M15.4,444.9L15.4,444.9C15.4,444.9,15.5,444.9,15.4,444.9C15.5,444.9,15.4,444.9,15.4,444.9z M56.8,459.4
			L56.8,459.4C56.8,459.4,56.8,459.4,56.8,459.4C56.8,459.4,56.8,459.4,56.8,459.4z M178.1,467.2L178.1,467.2
			C178.1,467.2,178.1,467.2,178.1,467.2C178.1,467.2,178.1,467.2,178.1,467.2z M183.1,460C183.1,460,183,460.1,183.1,460
			C183.1,460.1,183.1,460.1,183.1,460C183.1,460,183.1,460,183.1,460C183.1,460,183.1,460,183.1,460z"/>
		<path fill="#191919" d="M245.8,435.5c-1.9-1.2-4-0.7-6.1-0.2c-7.1,1.8-14.2,3.5-21.3,5.4c-12.3,3.3-24.8,4.9-37.7,4.8
			c-40-0.2-80-0.1-120-0.1c-7.7,0-15.4-0.8-22.9-2.6c-9.9-2.4-19.8-4.9-29.7-7.3c-2.4-0.6-4.8-1.1-7.1-0.1c-0.8,2.2,0.8,2.7,2,3.4
			c10.2,5.7,21.2,8.9,32.7,9.9l-0.5,0.3c-0.9,0.7-1.7,1.2-0.2,1.8c0.3,0.1,0.7,0.5,0.7,0.7c-0.4,1.8,0.9,3.2,1.5,4.7
			c0.2,0.7,0.7,1.2,1.5,0.8c1.1-0.5,1.8,0,2.1,0.8c0.4,1-0.7,1.2-1.4,1.5c-5.4,2.3-7.4,8-5.7,13.4c1.6,4.9,7.1,7.5,12.5,6.3
			c2.9-0.7,5-2.6,7-4.5c0.5-0.4,0.6-0.6,0.5,0.2c0.2,0,0.4,0.1,0.5,0c0.3-0.4,0.6-0.9,0.9-1.3c1.6-2.6,2-4.5,0.9-5.9
			c-0.3,2.1-0.6,3.9-0.9,5.8c-0.8-0.5-1-1-0.7-2c0.3-0.8,0.4-1.7,0.5-2.6c0-0.4,0.6-1.5-0.7-1.1c0,0-0.2-0.3-0.3-0.5
			c-0.2-0.7-0.4-1.3-0.6-2c-0.2-0.7-0.5-1.5-0.8-2.2c0.5,0.6,1,1.2,1.7,1.7c0.4,0.3,0.9,0.3,1.4,0.4c0.1-0.4,0.3-0.8,0.3-1.2
			c-0.1-1.2-0.5-2.4,0.7-3.2c0.2-0.2,0.1-0.7,0.2-1.1c0,0,0,0,0,0c0,0,0,0,0,0v0c-0.5-0.2-1-0.5-1.5-0.6c-1.6-0.2-1.9-1.2-2-2.6
			c0-0.6,0-1.4-0.4-1.9c-0.9-1.1,0-1,0.6-1.3c0.1,0,0.2,0,0.3-0.1c2.2-0.4,2.9,0.2,3,2.5c0,1.3,0,2.6-0.1,3.8c0,0,0,0,0,0
			c0.7-1.1,1.5-2.3,2.2-3.5c0.2-0.3,0.4-0.9,0.2-1c-0.3-0.3-0.8-0.4-1.2-0.6c0.7-0.9,0.7-0.9,1.5-0.4c0.1,0.1,0.6-0.1,0.6-0.2
			c0.1-1.3,0.1-2.7,0.1-4c0-0.1-0.6-0.3-0.8-0.3c-1.1,0-2.3,0-3.4,0l0.4,0c7.3,0.1,14.5,0.1,21.8,0.2c7.8,0.1,15.7-0.5,23.5-0.5
			c23.8,0,47.6-0.1,71.4-0.1c0.3,0.4,0.2,1.1-0.1,2.2c-0.2,0.8-0.3,1.8,0,2.5c0.9,2.1,1.9,4.1,3.1,6.1c0.8,1.4,1.8,2.7,1,4.4
			c-0.1,0.2-0.1,0.5,0,0.5c0.9,0.4,0.4,0.8,0.1,1.3c-0.2,0.3-0.4,0.6-0.6,0.8c0.3,0.1,0.6,0.1,0.9,0.2c0.3,0.1,0.5,0.1,0.8,0.2v0
			c0,0,0,0,0,0c0,0,0,0,0,0c0.6-2.7,1.8-5.1,4.2-6.6c0.3-0.2,0.7-0.3,1.1-0.5c0,0,0,0,0.1-0.1c0,0,0,0,0,0c0.1-0.7,1-1.3,0.2-2.1
			c0.4-0.4,0.7-1,1.2-1.2c0.9-0.4,1.9-0.6,2.8-0.8c0.6-0.1,1.6-0.6,1.7,0.4c0.1,0.8-0.2,1.8-1.4,2.1c-1.6,0.4-3,1-4.5,1.6
			c0,0,0,0,0,0c0,0-0.1,0-0.1,0c-2.7,2.3-4.3,5.2-4.6,9.1c-0.3-0.8-0.4-1.4-0.6-2c0,0,0,0,0,0v3.4c-0.1,0-0.1,0-0.2,0
			c-0.2-0.6-0.4-1.1-0.6-1.7c-0.1,0-0.2,0.1-0.3,0.1c0.3,1.5,0.6,3,1.1,4.5c0.1,0.3,1.1,0.3,1.3,0.7c0.6,1.4,1.9,1.8,2.9,2.7
			c6.4,5.2,15.8,2.1,17.4-5.8c1-4.7-1.8-10-6-11.6c-0.5-0.2-0.7-0.8-1.1-1.2c0.5-0.3,1.1-0.8,1.6-0.7c1.1,0.2,1.5-0.3,1.9-1.1
			c0.5-1.2,0.9-2.3,1.4-3.5c0.3-0.5,0.7-1,1.1-1.5c0.2-0.3,0.5-0.7,0.5-1.1c0-0.2-0.5-0.5-0.9-0.5c-2.1-0.3-4.2-0.5-6.3-0.7
			c-0.4,0-0.9-0.1-1.3-0.1c2.8,0,5.5,0,8.3,0c9.6,0,19-0.7,28.1-3.6c5.6-1.8,11.1-4,16.6-6.2C245,438.7,246.6,437.8,245.8,435.5z
			 M48.9,458.8c-1-0.2-2.1-0.3-3.3-0.5c-0.5-0.1-1.3,0-1.5-0.4c-0.5-0.7-0.7-1.5-1-2.3c0.6,0,1.3-0.2,1.9-0.1c0.7,0.1,1.4,0.2,2,0.5
			c0.9,0.5,2.3,0.7,1.6,2.4C48.7,458.5,48.9,458.7,48.9,458.8C48.9,458.8,48.9,458.8,48.9,458.8C49,458.8,49,458.8,48.9,458.8z
			 M58.6,452.7c0-0.5,0-0.5,0-1.6h-4.7c0,1.1,0,1.1,0,1.6H58.6z M183.1,466.8c0.1,1.5,0.2,3.1,0.3,4.6
			C182.7,469.9,182.1,468.4,183.1,466.8z M179.7,449.4c0,0,0,0.1,0,0.1H174c0-0.2,0-0.3,0-0.5C175.9,449.1,177.8,449.3,179.7,449.4z
			 M179.6,454.7c-0.3,1-0.5,2.1-0.7,3.2c-0.1,0.4-0.4,0.8-0.7,1c-1.4,0.8-1.8,0.6-2-1c-0.1-0.5-0.1-1-0.2-1.2c0-2.4,1.3-3.6,3-3.1
			C179.6,453.7,179.8,454,179.6,454.7z M173.9,452.7c-0.2,0-0.5-0.5-0.7-0.8c0,0,0.2-0.2,0.3-0.3c1.4,1.6,3.2,0.3,4.8,0.7
			c0.4,0.1,0.9,0,1.4,0c0,0.1,0,0.2,0,0.3C177.8,452.8,175.8,452.8,173.9,452.7z"/>
	</g>
</g>
</svg>
