<?xml version="1.0" encoding="utf-8"?>
<!-- Generator: Adobe Illustrator 21.1.0, SVG Export Plug-In . SVG Version: 6.00 Build 0)  -->
<svg version="1.1" id="Layer_1" xmlns="http://www.w3.org/2000/svg" xmlns:xlink="http://www.w3.org/1999/xlink" x="0px" y="0px"
	 viewBox="0 0 1920 1012" enable-background="new 0 0 1920 1012" xml:space="preserve">
<path fill-rule="evenodd" clip-rule="evenodd" fill="none" stroke="#44D62C" stroke-miterlimit="10" d="M1337.7,1011.6
	L1337.7,1011.6l137.5-26.4l14-2.7l159.6,20.8h0l65.9,8.6 M320.3,1010.8L320.3,1010.8L181.6,975l-32.7,35.7"/>
<path fill-rule="evenodd" clip-rule="evenodd" fill="none" stroke="#44D62C" stroke-miterlimit="10" d="M1539.1,1011.7l-63.9-26.6
	l-143.4-59.7l-667.3,67.5L0.6,810 M1920,922l-271.1,81.2h0l-28.5,8.5"/>
<path fill-rule="evenodd" clip-rule="evenodd" fill="none" stroke="#44D62C" stroke-miterlimit="10" d="M1919.6,553.6h-0.1l-592.2,9
	l-176.9,1.5l-249.5,2.1l-119.4,1l-94.3,0.8l-90.4,0.7l-87,58.5L270,477.2l-97.5,1.5L0.1,393.6"/>
<path fill-rule="evenodd" clip-rule="evenodd" fill="none" stroke="#44D62C" stroke-miterlimit="10" d="M1919.7,725.1l-99.6,18.6
	l-424.3,79.4l-82.1,15.4L883.4,733.6l-74.6-122l-27.2-44.4L567,216.3l-128.5,51l-256.9,102L0,314.1"/>
<path fill-rule="evenodd" clip-rule="evenodd" fill="none" stroke="#44D62C" stroke-miterlimit="10" d="M292.7-0.1l0.3,0.5
	l145.5,266.9l124.4,227.9l124.4,72.8l96.1,56.2l25.4-12.5l92.2-45.4l171.4-84.5l78.1,82.4l245.4,259.1l25.9,27.4l311.9,37.5
	l86.5-144.3l99.4-165.8"/>
<path fill-rule="evenodd" clip-rule="evenodd" fill="none" stroke="#44D62C" stroke-miterlimit="10" d="M1918.9,151.8l-181.4,129.8
	l-32.3,23.1l-307.4-123.1L1141.6,79.1l-76.7-30.7l-208-48"/>
<path fill-rule="evenodd" clip-rule="evenodd" fill="none" stroke="#44D62C" stroke-miterlimit="10" d="M1919.3,392.2l-181.7-110.5
	l-225.8-137.3l-114,37.3l-156,51.1L1141.6,79.1l-51.3-78.7"/>
</svg>
